<?xml version="1.0" encoding="UTF-8"?>
<!DOCTYPE svg PUBLIC "-//W3C//DTD SVG 1.1//EN" "http://www.w3.org/Graphics/SVG/1.1/DTD/svg11.dtd">
<!-- Creator: CorelDRAW X7 -->
<svg xmlns="http://www.w3.org/2000/svg" xml:space="preserve" width="12mm" height="12mm" version="1.1" style="shape-rendering:geometricPrecision; text-rendering:geometricPrecision; image-rendering:optimizeQuality; fill-rule:evenodd; clip-rule:evenodd"
viewBox="0 0 1200 1200"
 xmlns:xlink="http://www.w3.org/1999/xlink">
 <defs>
  <style type="text/css">
   <![CDATA[
    .str0 {stroke:black;stroke-width:20}
    .str4 {stroke:#244A6A;stroke-width:20}
    .str2 {stroke:#4D1F1F;stroke-width:20}
    .str3 {stroke:#4D1F1F;stroke-width:20}
    .str1 {stroke:black;stroke-width:10}
    .fil0 {fill:none}
    .fil10 {fill:#7789A4}
    .fil3 {fill:black}
    .fil8 {fill:lime}
    .fil16 {fill:aqua}
    .fil14 {fill:#2196F3}
    .fil12 {fill:#244A6A}
    .fil11 {fill:#38A0C4}
    .fil2 {fill:#38A0C4}
    .fil17 {fill:#4D1F1F}
    .fil15 {fill:#C9C7C7}
    .fil13 {fill:#EBE8E8}
    .fil18 {fill:#EBE8E8}
    .fil4 {fill:red}
    .fil6 {fill:#FFB300}
    .fil19 {fill:white}
    .fil1 {fill:black;fill-rule:nonzero}
    .fil9 {fill:lime;fill-rule:nonzero}
    .fil5 {fill:#38A0C4;fill-rule:nonzero}
    .fil7 {fill:#FFB300;fill-rule:nonzero}
   ]]>
  </style>
 </defs>
 <g id="Layer_x0020_1">
  <metadata id="CorelCorpID_0Corel-Layer"/>
  <path class="fil0 str0" d="M2904 749c350,-538 350,-841 0,-909 -371,86 -371,389 0,909z"/>
  <g id="_1847628222624">
   <ellipse class="fil0 str0" cx="2902" cy="-81" rx="218" ry="223"/>
   <path class="fil1" d="M2974 -34c0,9 -2,18 -5,25 -4,8 -9,14 -15,20 -7,5 -15,10 -24,13 -9,3 -20,5 -31,6l-4 37c0,1 0,2 -1,2 0,1 0,2 -1,2 -1,0 -2,1 -4,1 -1,0 -3,0 -5,0 -3,0 -5,0 -7,0 -1,0 -2,-1 -3,-1 -1,-1 -2,-1 -2,-2 0,-1 0,-2 0,-3l4 -37c-6,-1 -11,-2 -16,-3 -4,-1 -9,-2 -12,-3 -4,-2 -7,-3 -10,-4 -2,-2 -4,-3 -6,-4 -1,-1 -2,-3 -2,-5 -1,-2 -1,-5 -1,-8 0,-3 0,-5 1,-7 0,-1 0,-3 1,-4 0,-1 1,-2 1,-2 1,0 2,-1 3,-1 2,0 4,1 7,3 2,2 6,3 11,5 4,3 10,4 16,6 7,2 15,3 24,3 16,0 29,-3 37,-10 9,-6 13,-15 13,-26 0,-7 -1,-13 -5,-17 -3,-5 -7,-9 -12,-12 -5,-3 -11,-6 -17,-9 -7,-2 -14,-4 -20,-7 -7,-2 -14,-5 -20,-8 -7,-3 -13,-7 -18,-12 -5,-4 -9,-10 -12,-17 -3,-6 -5,-14 -5,-24 0,-8 2,-15 4,-22 3,-6 7,-12 12,-17 6,-5 12,-9 20,-13 8,-3 18,-5 29,-5l3 -35c0,-1 0,-2 1,-2 0,-1 1,-2 1,-2 1,0 2,-1 4,-1 1,0 3,0 5,0 3,0 5,0 7,0 1,0 3,1 3,1 1,1 2,1 2,2 0,1 0,2 0,3l-3 34c3,0 7,1 11,2 3,1 7,2 10,3 3,1 6,2 9,4 3,1 4,2 5,3 1,1 2,2 3,3 0,0 0,1 0,2 1,1 1,3 1,4 0,1 0,3 0,5 0,2 0,4 0,5 0,2 0,3 -1,4 0,1 -1,2 -1,2 -1,1 -1,1 -2,1 -1,0 -3,-1 -6,-2 -3,-2 -6,-3 -11,-5 -4,-2 -9,-4 -14,-5 -6,-1 -12,-2 -19,-2 -8,0 -14,1 -20,2 -5,1 -10,4 -13,6 -4,3 -6,6 -8,10 -1,4 -2,8 -2,13 0,6 2,12 5,17 3,4 7,8 12,12 5,3 11,6 18,8 7,2 13,5 20,7 7,3 14,5 20,8 7,3 13,7 18,12 5,4 9,10 12,17 4,6 5,14 5,24z"/>
  </g>
  <ellipse class="fil0 str0" cx="2902" cy="142" rx="190" ry="169"/>
  <g id="_1847628222048">
   <path class="fil2" d="M1743 375c0,8 -2,15 -5,21 -2,6 -7,12 -12,16 -5,5 -12,8 -20,11 -8,3 -16,4 -26,5l-3 31 -1 2c0,1 0,1 -1,1l-3 1 -5 0 -5 0 -3 -1c-1,0 -1,-1 -2,-1 0,-1 0,-2 0,-2l4 -32c-5,0 -9,-1 -13,-2l-11 -3c-3,-1 -5,-2 -8,-3 -2,-1 -3,-3 -4,-4 -1,-1 -2,-2 -2,-3 -1,-2 -1,-4 -1,-7l0 -6 1 -3c1,-1 1,-2 2,-2l2 0c1,0 3,0 5,2 3,1 6,3 9,4 4,2 9,4 14,5 6,1 12,2 20,2 14,0 24,-3 31,-8 7,-5 11,-13 11,-22 0,-6 -1,-10 -4,-14 -3,-4 -6,-7 -10,-10 -5,-3 -9,-5 -15,-7l-17 -6c-5,-2 -11,-4 -16,-7 -6,-3 -10,-6 -15,-10 -4,-3 -7,-8 -10,-14 -3,-5 -4,-12 -4,-20 0,-7 1,-13 3,-18 3,-6 6,-11 10,-15 5,-4 11,-7 17,-10 7,-3 15,-4 24,-5l3 -29 0 -2 2 -1 2 -1 5 0 5 0c2,0 3,1 4,1 0,1 1,1 1,2l0 2 -3 28 9 2 9 2 7 3c3,2 4,2 5,3l2 2 0 3 1 3 0 4 0 5 -1 3 -1 1c0,1 -1,1 -2,1 -1,0 -2,-1 -5,-2l-8 -4c-4,-1 -8,-3 -13,-4 -4,-1 -9,-2 -15,-2 -7,0 -12,1 -17,2 -4,1 -8,3 -11,5 -3,3 -5,5 -6,8 -1,4 -2,7 -2,11 0,6 1,10 4,14 3,4 6,7 10,10 5,3 10,5 15,7l17 6c6,2 11,4 17,7 5,2 10,6 14,9 5,4 8,9 11,15 3,5 4,12 4,20zm122 -39c0,-103 -82,-186 -183,-186 -100,0 -182,83 -182,186 0,102 82,185 182,185 101,0 183,-83 183,-185z"/>
   <path class="fil2" d="M1840 484c0,78 -71,141 -158,141 -88,0 -159,-63 -159,-141 0,-24 7,-47 19,-67 -21,-25 -35,-55 -40,-89 -106,124 -45,344 182,662 208,-321 268,-541 177,-662 -5,34 -19,64 -39,89 11,20 18,43 18,67z"/>
  </g>
  <path class="fil0 str0" d="M2854 2685c49,-90 162,-284 226,-380 63,-97 76,-97 154,-69 78,28 221,85 297,151 77,66 88,141 83,187 -6,45 -27,61 -19,80 8,19 45,41 79,66 34,26 63,55 31,137 -32,82 -126,217 -180,282 -54,64 -67,59 -96,29 -28,-29 -71,-83 -87,-122 -16,-39 -6,-64 -8,-86 -3,-23 -19,-45 -61,-73 -41,-28 -109,-63 -186,-88 -77,-25 -164,-39 -215,-39 -51,0 -66,14 -18,-75z"/>
  <path class="fil3" d="M3225 -809c-35,54 -97,161 -124,211 -28,50 -19,42 9,42 28,0 77,8 119,21 43,14 80,33 104,49 23,16 32,28 33,40 2,13 -4,26 5,48 9,22 32,51 48,68 16,16 23,19 53,-17 30,-35 82,-110 100,-155 18,-46 1,-62 -17,-76 -19,-15 -40,-27 -44,-37 -5,-10 7,-19 10,-45 3,-25 -3,-67 -45,-103 -43,-37 -122,-68 -165,-84 -43,-15 -51,-15 -86,38z"/>
  <path class="fil4" d="M5970 2046c24,0 44,17 44,38 0,22 -20,39 -44,39 -25,0 -45,-17 -45,-39 0,-21 20,-38 45,-38zm-155 -404c-63,97 -176,290 -225,380 -49,90 -34,75 17,75 51,0 138,15 215,39 78,25 145,60 187,88 41,28 57,50 60,73 3,23 -8,47 8,86 16,39 59,93 88,122 28,30 41,35 95,-29 54,-65 148,-199 180,-282 33,-82 3,-111 -31,-137 -33,-25 -71,-47 -79,-66 -8,-18 13,-35 19,-80 5,-46 -6,-121 -82,-187 -77,-66 -219,-123 -297,-151 -78,-28 -92,-28 -155,69zm395 117l-186 234 120 -282 66 48z"/>
  <path class="fil0 str0" d="M1217 1983c8,-103 16,-206 36,-275 21,-70 55,-105 88,-127 34,-22 68,-30 90,-19 21,11 31,41 54,66 23,26 58,48 92,34 34,-14 65,-63 88,-89 23,-26 37,-28 61,-21 23,7 57,23 83,55 26,31 43,79 53,141 10,62 12,140 14,217"/>
  <ellipse class="fil0 str0" cx="1553" cy="1369" rx="188" ry="178"/>
  <g id="_1847628220448">
   <path class="fil2" d="M-1450 570c-88,0 -160,-64 -160,-142 0,-79 72,-143 160,-143 89,0 161,64 161,143 0,78 -72,142 -161,142zm181 -300c-35,-48 -94,-79 -175,-96 0,0 0,0 0,0 -6,2 -11,3 -17,3 -96,24 -161,67 -194,129 -70,129 -1,340 207,633 212,-325 271,-548 179,-669z"/>
   <path class="fil2" d="M-1647 314c34,-61 98,-104 195,-129 -15,-1 -29,-11 -39,-23 -14,-15 -20,-33 -33,-39 -13,-7 -33,-2 -53,11 -20,13 -40,34 -53,76 -8,28 -13,64 -17,104z"/>
   <path class="fil2" d="M-1453 183c82,16 140,48 176,95 -1,-16 -3,-30 -5,-44 -6,-37 -17,-66 -32,-85 -15,-19 -36,-28 -50,-32 -14,-4 -22,-3 -36,12 -14,16 -33,45 -53,54z"/>
   <path class="fil2" d="M-1458 114c62,0 112,-48 112,-107 0,-59 -50,-107 -112,-107 -62,0 -113,48 -113,107 0,59 51,107 113,107z"/>
   <path class="fil5" d="M-1389 466c0,7 -1,14 -4,20 -3,6 -7,11 -12,15 -5,5 -11,8 -19,11 -7,2 -15,4 -25,4l-3 30c0,1 0,1 0,2 0,0 -1,1 -1,1 -1,0 -2,1 -3,1 -1,0 -3,0 -5,0 -2,0 -3,0 -5,0 -1,0 -2,-1 -3,-1 0,0 -1,-1 -1,-1 0,-1 0,-2 0,-2l3 -30c-4,-1 -8,-2 -12,-2 -4,-1 -7,-2 -10,-3 -3,-1 -6,-2 -8,-4 -2,-1 -3,-2 -4,-3 -1,-1 -2,-2 -2,-3 -1,-2 -1,-4 -1,-7 0,-2 0,-4 0,-5 1,-1 1,-2 1,-3 1,-1 1,-2 2,-2 0,0 1,-1 2,-1 1,0 3,1 5,2 2,2 5,3 9,5 3,1 8,3 13,4 5,2 12,2 19,2 13,0 23,-2 30,-7 6,-5 10,-12 10,-21 0,-6 -2,-10 -4,-14 -2,-3 -6,-7 -10,-9 -4,-3 -9,-5 -14,-7 -5,-2 -10,-4 -16,-6 -5,-1 -10,-4 -15,-6 -6,-3 -10,-6 -14,-9 -4,-4 -8,-9 -10,-14 -3,-5 -4,-12 -4,-19 0,-7 1,-12 3,-18 2,-5 6,-10 10,-14 4,-4 9,-7 16,-9 6,-3 14,-4 22,-5l3 -28c0,0 0,-1 1,-1 0,-1 0,-1 1,-2 1,0 1,0 2,0 2,-1 3,-1 5,-1 2,0 4,1 5,1 1,0 2,0 3,1 1,0 1,0 1,1 1,1 1,1 1,2l-3 27c2,1 5,1 8,2 3,1 6,1 9,2 2,1 5,2 7,3 2,1 3,2 4,3 1,1 1,1 2,2 0,1 0,1 1,2 0,1 0,2 0,3 0,1 0,2 0,4 0,1 0,3 0,4 0,2 0,3 -1,3 0,1 0,2 -1,2 0,0 -1,1 -1,1 -1,0 -3,-1 -5,-2 -2,-1 -5,-3 -9,-4 -3,-1 -7,-3 -11,-4 -5,-1 -9,-2 -15,-2 -6,0 -11,1 -16,2 -4,1 -8,3 -10,5 -3,2 -5,5 -6,8 -1,3 -2,6 -2,10 0,5 1,10 4,13 2,4 5,7 10,10 4,2 8,5 14,6 5,2 10,4 16,6 5,2 10,4 16,7 5,2 10,5 14,9 4,4 7,8 10,13 2,6 3,12 3,20z"/>
  </g>
  <ellipse class="fil0 str0" cx="3854" cy="-85" rx="218" ry="223"/>
  <g id="_1847628217920">
   <path class="fil6" d="M695 1373c-30,46 -84,139 -108,182 -23,43 -16,36 9,36 24,0 66,7 103,19 37,12 69,29 89,42 20,14 28,24 29,35 2,11 -4,23 4,41 8,19 29,45 42,59 14,14 20,17 46,-14 26,-31 71,-96 86,-135 16,-39 2,-54 -14,-66 -17,-12 -35,-22 -39,-31 -3,-9 7,-17 10,-39 2,-22 -3,-58 -40,-90 -37,-32 -105,-59 -143,-72 -37,-14 -43,-14 -74,33z"/>
   <path class="fil7" d="M662 1923c0,8 -1,14 -4,21 -3,6 -7,11 -12,15 -5,4 -11,8 -19,10 -7,3 -15,4 -25,5l-3 30c0,1 0,1 0,2 0,0 -1,0 -1,1 -1,0 -2,0 -3,1 -1,0 -3,0 -5,0 -2,0 -3,0 -5,0 -1,-1 -2,-1 -3,-1 0,-1 -1,-1 -1,-2 0,0 0,-1 0,-2l3 -30c-4,0 -9,-1 -12,-2 -4,-1 -7,-2 -10,-3 -3,-1 -6,-2 -8,-3 -2,-1 -3,-2 -4,-3 -1,-1 -2,-2 -2,-4 -1,-1 -1,-3 -1,-6 0,-2 0,-4 0,-5 1,-2 1,-3 1,-4 0,0 1,-1 2,-1 0,-1 1,-1 2,-1 1,0 3,1 5,2 2,2 5,3 9,5 3,1 8,3 13,4 5,1 11,2 19,2 13,0 23,-2 30,-8 6,-5 10,-12 10,-20 0,-6 -2,-10 -4,-14 -3,-4 -6,-7 -10,-9 -4,-3 -9,-5 -14,-7 -5,-2 -10,-4 -16,-6 -5,-2 -10,-4 -16,-7 -5,-2 -9,-5 -13,-9 -4,-3 -8,-8 -10,-13 -3,-6 -4,-12 -4,-20 0,-6 1,-12 3,-17 2,-5 6,-10 10,-14 4,-4 9,-7 16,-10 6,-2 14,-4 22,-4l3 -28c0,-1 0,-1 0,-2 1,0 1,-1 2,-1 0,0 1,-1 2,-1 2,0 3,0 5,0 2,0 4,0 5,0 1,0 2,1 3,1 1,1 1,1 1,2 1,0 1,1 1,2l-3 27c2,0 5,1 8,2 3,0 6,1 9,2 2,1 5,2 7,3 2,1 3,2 4,2 1,1 1,2 2,3 0,0 0,1 0,2 1,1 1,2 1,3 0,1 0,2 0,3 0,2 0,4 0,5 0,1 0,2 -1,3 0,1 0,1 -1,2 0,0 -1,0 -1,0 -1,0 -3,0 -5,-2 -2,-1 -5,-2 -9,-3 -3,-2 -7,-3 -11,-4 -5,-2 -10,-2 -15,-2 -6,0 -11,0 -16,2 -4,1 -8,3 -10,5 -3,2 -5,4 -6,7 -2,3 -2,7 -2,10 0,6 1,10 4,14 2,4 5,7 9,10 5,2 9,4 15,6 5,2 10,4 16,6 5,2 10,4 16,6 5,3 10,6 14,10 4,3 7,8 10,13 2,5 3,12 3,19z"/>
   <path class="fil6" d="M774 1878c0,81 -74,146 -164,146 -91,0 -164,-65 -164,-146 0,-80 73,-146 164,-146 90,0 164,66 164,146zm-162 523c301,-463 301,-724 0,-783 -319,74 -319,335 0,783z"/>
  </g>
  <g id="_1847628215328">
   <path class="fil8" d="M5725 805c-123,0 -224,-90 -224,-200 0,-110 101,-199 224,-199 124,0 224,89 224,199 0,110 -100,200 -224,200zm253 -421c-49,-66 -131,-111 -245,-134 0,0 0,0 0,0 -8,3 -16,4 -23,4 -135,34 -226,94 -272,181 -98,181 -2,476 290,885 296,-454 379,-766 250,-936z"/>
   <path class="fil8" d="M5449 446c47,-86 138,-146 273,-181 -21,-1 -41,-15 -55,-31 -19,-22 -27,-47 -45,-56 -19,-9 -47,-2 -75,16 -28,18 -56,48 -74,106 -11,39 -18,91 -24,146z"/>
   <path class="fil8" d="M5721 262c114,23 196,68 246,133 -2,-21 -4,-42 -7,-61 -8,-52 -23,-92 -45,-118 -21,-27 -50,-40 -70,-46 -20,-6 -31,-4 -50,17 -19,22 -46,63 -74,75z"/>
   <path class="fil8" d="M5713 166c87,0 157,-67 157,-149 0,-83 -70,-150 -157,-150 -87,0 -157,67 -157,150 0,82 70,149 157,149z"/>
   <path class="fil9" d="M5811 658c0,11 -2,20 -6,28 -4,9 -10,16 -17,22 -7,6 -16,11 -26,14 -11,4 -22,6 -35,7l-4 42c-1,1 -1,1 -1,2 0,1 -1,1 -2,2 -1,0 -2,1 -4,1 -1,0 -3,0 -6,0 -3,0 -5,0 -7,0 -2,-1 -3,-1 -4,-1 -1,-1 -2,-1 -2,-2 -1,-1 -1,-2 0,-3l4 -42c-6,-1 -12,-2 -17,-3 -5,-1 -10,-2 -14,-4 -4,-1 -8,-3 -11,-4 -2,-2 -5,-3 -6,-5 -1,-1 -2,-3 -3,-5 0,-2 -1,-5 -1,-9 0,-3 1,-5 1,-7 0,-2 1,-4 1,-5 0,-1 1,-2 2,-2 1,-1 2,-1 3,-1 2,0 4,1 7,3 3,2 7,4 12,6 5,2 12,4 19,6 7,2 16,3 26,3 19,0 33,-3 42,-11 10,-7 14,-17 14,-29 0,-7 -2,-14 -5,-19 -3,-5 -8,-9 -14,-13 -6,-4 -12,-7 -19,-9 -8,-3 -15,-6 -22,-8 -8,-3 -15,-6 -23,-10 -7,-3 -13,-7 -19,-13 -6,-5 -10,-11 -14,-18 -3,-8 -5,-17 -5,-28 0,-8 2,-16 4,-24 3,-7 8,-14 14,-19 6,-6 13,-11 22,-14 9,-4 20,-6 32,-7l3 -38c1,-1 1,-2 1,-3 0,0 1,-1 2,-1 1,-1 2,-1 4,-2 1,0 3,0 6,0 3,0 5,0 7,1 2,0 3,0 4,1 1,0 2,1 2,2 0,1 1,2 1,3l-5 38c4,0 8,1 12,2 5,1 8,2 12,3 4,2 7,3 10,4 3,2 5,3 6,4 1,1 2,2 2,3 1,1 1,2 2,3 0,1 0,3 0,4 0,2 0,3 0,5 0,3 0,5 0,7 0,2 0,3 -1,4 0,1 -1,2 -1,2 -1,1 -2,1 -3,1 -1,0 -3,-1 -6,-2 -3,-2 -7,-4 -12,-6 -5,-2 -10,-3 -16,-5 -6,-2 -13,-3 -21,-3 -9,0 -16,1 -22,3 -6,2 -11,4 -15,7 -4,3 -6,7 -8,11 -2,4 -3,9 -3,14 0,7 2,14 6,19 3,5 8,9 13,13 6,4 13,7 20,9 7,3 15,6 23,8 7,3 15,6 22,9 7,4 14,8 20,13 5,5 10,12 13,19 4,7 6,16 6,27z"/>
  </g>
  <path class="fil0 str0" d="M6563 1296c404,-620 404,-970 0,-1049 -428,99 -428,449 0,1049z"/>
  <ellipse class="fil0 str0" cx="825" cy="3236" rx="219" ry="195"/>
  <g id="_1847628215616">
   <path class="fil0 str0" d="M6281 517c7,-84 13,-168 30,-224 17,-56 45,-85 72,-103 27,-18 55,-24 72,-15 18,9 26,33 45,54 18,21 47,38 74,27 28,-11 54,-51 72,-72 19,-21 30,-23 49,-17 19,5 47,18 68,44 21,26 35,64 43,115 8,51 10,114 12,176"/>
   <ellipse class="fil0 str0" cx="6555" cy="18" rx="152" ry="145"/>
  </g>
  <g id="_1847628212064">
   <polygon class="fil10" points="-1442,3100 -1196,3100 -1237,2945 -1396,2945 "/>
   <polygon class="fil10" points="-1000,3273 -992,3519 -839,3473 -844,3314 "/>
   <polygon class="fil10" points="-1655,3268 -1654,3515 -1809,3474 -1810,3315 "/>
   <polygon class="fil10" points="-1200,3685 -1446,3685 -1405,3840 -1246,3840 "/>
   <polygon class="fil10" points="-1460,3693 -1634,3519 -1715,3658 -1602,3770 "/>
   <path class="fil10" d="M-1319 3073c-203,0 -367,147 -367,327 0,181 164,328 367,328 203,0 368,-147 368,-328 0,-180 -165,-327 -368,-327z"/>
   <polygon class="fil10" points="-1171,3699 -997,3525 -917,3664 -1029,3776 "/>
   <polygon class="fil10" points="-1176,3098 -1002,3272 -922,3133 -1034,3021 "/>
   <polygon class="fil10" points="-1469,3099 -1643,3273 -1723,3134 -1611,3022 "/>
  </g>
  <ellipse class="fil0 str0" cx="-167" cy="3318" rx="250" ry="223"/>
  <polyline class="fil0 str0" points="-40,3012 112,2938 225,3050 156,3170 169,3196 303,3231 308,3390 173,3430 159,3459 230,3581 118,3693 -24,3617 -61,3630 -99,3757 -258,3757 -293,3627 -324,3616 -456,3687 -568,3575 -502,3461 -518,3429 -662,3391 -663,3232 -508,3186 -504,3177 -576,3051 -464,2939 -322,3016 -293,3008 -250,2863 -91,2863 -52,3008 -35,3010 "/>
  <path class="fil10" d="M2662 3365c0,124 -113,223 -251,223 -138,0 -250,-99 -250,-223 0,-123 112,-223 250,-223 138,0 251,100 251,223zm29 -379l-147 71 -17 -1 -39 -146 -159 0 -44 146 -29 8 -142 -77 -112 112 72 125 -4 9 -155 47 1 159 145 38 15 32 -66 113 113 113 132 -72 30 11 35 130 159 0 38 -127 37 -13 142 77 112 -112 -70 -123 13 -28 135 -41 -5 -158 -134 -36 -13 -26 69 -119 -112 -112z"/>
  <g id="_1847628212000">
   <ellipse class="fil0 str0" cx="6556" cy="574" rx="125" ry="112"/>
   <polyline class="fil0 str0" points="6620,421 6696,384 6752,440 6718,500 6724,513 6791,531 6794,610 6726,630 6719,645 6755,706 6699,762 6628,723 6609,730 6590,793 6511,793 6493,728 6478,723 6412,759 6356,702 6389,646 6381,630 6309,611 6308,531 6386,508 6388,503 6352,441 6408,385 6479,423 6493,419 6515,346 6594,346 6614,419 6622,420 "/>
  </g>
  <path class="fil0 str0" d="M1219 4213c34,-173 186,-298 362,-298 176,0 328,125 362,298"/>
  <line class="fil0 str0" x1="1219" y1="4213" x2="1943" y2= "4213" />
  <polygon class="fil0 str0" points="1769,3857 1816,3868 1755,4044 1704,4027 "/>
  <path class="fil0 str0" d="M2469 4407c275,0 551,0 826,0"/>
  <path class="fil0 str0" d="M2468 4520c275,0 550,0 825,0"/>
  <path class="fil0 str0" d="M3295 4407c29,3 52,28 52,57 -1,30 -24,54 -54,56"/>
  <path class="fil0 str0" d="M2469 4407c-29,3 -52,27 -52,57 0,29 23,54 52,56"/>
  <path class="fil0 str0" d="M1676 3812l3 -148c0,-55 -44,-99 -99,-99 -55,0 -99,44 -100,99l0 148 196 0z"/>
  <polygon class="fil0 str0" points="1387,3865 1339,3876 1400,4052 1451,4035 "/>
  <g id="_1847628207488">
   <path class="fil11" d="M-661 612l-51 -28 -14 5 -14 46 -58 0 -13 -47 -11 -4 -48 26 -41 -41 24 -42 -6 -12 -53 -13 0 -59 56 -17 2 -3 -26 -46 41 -41 52 28 10 -3 16 -53 58 0 15 53 6 1 54 -26 41 41 -26 43 5 10 49 13 2 58 -49 15 -5 10 26 45 -42 41zm-120 -371c-84,23 -143,60 -178,112 -85,128 -18,345 199,650 210,-322 271,-544 183,-667 -34,-47 -90,-80 -168,-98 -2,2 -4,3 -6,4 -10,4 -21,3 -30,-1z"/>
   <path class="fil11" d="M-772 547c44,0 81,-32 81,-72 0,-40 -37,-72 -81,-72 -45,0 -81,32 -81,72 0,40 36,72 81,72z"/>
   <path class="fil11" d="M-957 364c35,-52 94,-89 178,-112 -10,-4 -18,-12 -25,-19 -13,-15 -19,-33 -32,-40 -13,-6 -33,-1 -53,12 -20,13 -40,34 -53,75 -7,23 -11,52 -15,84z"/>
   <path class="fil11" d="M-757 249c78,18 134,51 168,98 -1,-15 -3,-30 -5,-43 -6,-37 -17,-65 -32,-84 -15,-19 -35,-28 -49,-32 -14,-5 -23,-3 -36,12 -12,13 -28,38 -46,49z"/>
   <path class="fil11" d="M-770 192c61,0 111,-47 111,-106 0,-59 -50,-106 -111,-106 -62,0 -112,47 -112,106 0,59 50,106 112,106z"/>
   <g>
    <path class="fil11" d="M-769 -53c-18,0 -35,4 -50,11l10 25 -16 6 -8 -23c-24,16 -42,42 -48,72l224 0c-7,-31 -25,-57 -51,-73l-8 21 -15 -5 9 -24c-15,-7 -31,-10 -47,-10z"/>
    <path class="fil11" d="M-803 3l66 0 1 -50c0,-18 -15,-33 -34,-33 -18,0 -33,15 -33,33l0 50z"/>
    <path class="fil11" d="M-906 51c0,8 7,16 16,16l239 0c9,0 16,-7 16,-16 0,-9 -7,-16 -15,-17l-240 0c-9,1 -16,8 -16,17z"/>
   </g>
  </g>
  <g id="_1847628206944">
   <ellipse class="fil0 str0" cx="7563" cy="-219" rx="218" ry="223"/>
   <path class="fil1" d="M7636 -172c0,9 -2,18 -6,25 -3,8 -8,14 -15,20 -6,5 -14,10 -23,13 -10,3 -20,5 -32,6l-4 37c0,1 0,2 0,2 -1,1 -1,1 -2,2 -1,0 -2,1 -3,1 -2,0 -4,0 -6,0 -3,0 -5,0 -6,0 -2,-1 -3,-1 -4,-1 -1,-1 -2,-1 -2,-2 0,-1 0,-2 0,-3l4 -37c-5,-1 -11,-2 -15,-3 -5,-1 -9,-2 -13,-3 -4,-2 -7,-3 -9,-4 -3,-2 -5,-3 -6,-4 -1,-2 -2,-3 -3,-5 0,-2 0,-5 0,-8 0,-3 0,-5 0,-7 0,-1 1,-3 1,-4 0,-1 1,-2 2,-2 1,0 1,-1 3,-1 1,0 3,1 6,3 3,2 6,3 11,5 5,2 10,4 17,6 6,2 14,3 23,3 17,0 29,-4 38,-10 8,-6 13,-15 13,-26 0,-7 -2,-13 -5,-17 -3,-5 -7,-9 -13,-12 -5,-3 -11,-6 -17,-9 -7,-2 -13,-4 -20,-7 -7,-2 -13,-5 -20,-8 -6,-3 -12,-7 -17,-12 -5,-4 -10,-10 -13,-17 -3,-6 -4,-14 -4,-24 0,-8 1,-15 4,-22 2,-6 6,-12 12,-17 5,-5 12,-9 20,-13 8,-3 17,-5 28,-5l3 -35c1,-1 1,-2 1,-2 0,-1 1,-2 2,-2 0,0 2,-1 3,-1 1,0 3,0 6,0 2,0 4,0 6,0 2,0 3,1 4,1 1,1 1,1 1,2 1,1 1,2 1,2l-4 35c3,0 7,1 11,2 4,1 7,2 10,3 4,1 7,2 9,3 3,2 5,3 6,4 1,1 2,2 2,2 0,1 1,2 1,3 0,1 0,2 0,4 1,1 1,3 1,5 0,2 0,4 -1,5 0,2 0,3 0,4 -1,1 -1,2 -2,2 0,1 -1,1 -2,1 -1,0 -3,-1 -6,-2 -3,-2 -6,-4 -10,-5 -5,-2 -9,-4 -15,-5 -6,-2 -12,-2 -19,-2 -7,0 -14,0 -19,2 -6,1 -10,4 -14,6 -3,3 -6,6 -7,10 -2,4 -3,8 -3,12 0,7 2,13 5,18 3,4 8,8 13,12 5,3 11,6 17,8 7,2 14,5 21,7 6,3 13,5 20,8 6,3 12,7 17,12 5,4 10,10 13,17 3,6 5,14 5,24z"/>
  </g>
  <g id="_1847628201024">
   <path class="fil0 str1" d="M8077 315c-13,6 -22,17 -22,29 0,12 9,23 22,29l110 0c14,-6 22,-17 22,-29 0,-12 -8,-23 -22,-29l-110 0z"/>
   <path class="fil0 str1" d="M8066 -77c-13,6 -22,17 -22,29 0,12 9,23 22,29l110 0c14,-6 22,-17 22,-29 0,-12 -8,-23 -22,-29l-110 0z"/>
   <path class="fil0 str1" d="M8290 186c7,11 21,17 36,17 15,0 29,-6 36,-17l0 -88c-7,-11 -21,-18 -36,-18 -15,0 -29,7 -36,18l0 88z"/>
   <path class="fil0 str1" d="M7886 193c7,10 21,17 36,17 15,0 29,-7 36,-17l0 -88c-7,-11 -21,-18 -36,-18 -15,0 -29,7 -36,18l0 88z"/>
   <path class="fil0 str1" d="M8172 315c-5,11 -1,24 9,33 10,9 25,12 40,9l81 -59c6,-11 2,-24 -8,-33 -10,-9 -26,-13 -40,-9l-82 59z"/>
   <path class="fil0 str1" d="M8253 262c1,12 10,23 24,28 13,5 29,4 41,-4l47 -79c0,-13 -9,-23 -23,-29 -14,-5 -30,-3 -42,4l-47 80z"/>
   <path class="fil0 str1" d="M8165 -29c-5,-11 -2,-24 9,-32 10,-9 25,-13 40,-10l81 59c5,12 2,24 -8,33 -10,9 -26,13 -40,10l-82 -60z"/>
   <path class="fil0 str1" d="M8246 24c1,-12 10,-22 23,-27 14,-6 30,-4 42,3l47 80c-1,12 -10,23 -23,28 -14,5 -30,4 -42,-4l-47 -80z"/>
   <path class="fil0 str1" d="M8092 323c5,11 2,24 -8,32 -10,9 -26,13 -40,10l-82 -59c-5,-12 -2,-24 8,-33 10,-9 26,-13 40,-10l82 60z"/>
   <path class="fil0 str1" d="M8011 270c-1,12 -10,22 -23,27 -14,5 -30,4 -42,-3l-47 -80c1,-12 10,-23 23,-28 14,-5 30,-4 42,4l47 80z"/>
   <path class="fil0 str1" d="M8073 -25c5,-12 2,-24 -8,-33 -10,-9 -25,-13 -40,-10l-82 60c-5,11 -2,24 8,33 11,9 26,12 41,9l81 -59z"/>
   <path class="fil0 str1" d="M7992 28c0,-12 -9,-23 -23,-28 -14,-5 -30,-4 -42,3l-46 80c0,12 9,23 23,28 14,5 30,4 42,-4l46 -79z"/>
  </g>
  <g id="_1847628201632">
   <path class="fil12" d="M-242 1351c0,7 -2,14 -5,21 -3,6 -7,11 -12,16 -6,4 -12,8 -20,11 -8,2 -17,4 -26,5l-3 31 -1 2c0,0 -1,1 -1,1l-3 1 -5 0 -5 0 -3 -1c-1,-1 -1,-1 -2,-2 0,0 0,-1 0,-2l4 -31c-5,-1 -9,-1 -13,-2l-11 -3c-3,-1 -6,-2 -8,-4 -2,-1 -4,-2 -5,-3 -1,-1 -1,-2 -2,-4 0,-2 0,-4 0,-7l0 -5 1 -3c0,-1 1,-2 1,-2l3 -1c1,0 3,1 5,2 2,2 5,3 9,5 4,2 9,3 14,5 6,1 12,2 20,2 14,0 24,-3 31,-8 7,-6 11,-13 11,-22 0,-6 -2,-11 -4,-14 -3,-4 -6,-8 -10,-10 -5,-3 -10,-5 -15,-7l-17 -6c-5,-2 -11,-5 -16,-7 -6,-3 -11,-6 -15,-10 -4,-4 -8,-9 -10,-14 -3,-6 -4,-12 -4,-21 0,-6 1,-12 3,-18 2,-5 6,-10 10,-14 5,-4 10,-8 17,-11 7,-2 15,-4 24,-4l2 -29 1 -2 1 -2 3 0 5 -1 5 1c2,0 3,0 3,1 1,0 2,1 2,1l0 2 -3 29 9 2 9 2 7 3c2,1 4,2 5,3l1 2 1 2 1 3 0 4 0 5 -1 3 -1 2c-1,0 -1,1 -2,1 -1,0 -3,-1 -5,-2l-9 -4c-3,-2 -7,-3 -12,-4 -4,-2 -10,-2 -15,-2 -7,0 -12,0 -17,2 -4,1 -8,3 -11,5 -3,2 -5,5 -6,8 -2,3 -2,7 -2,10 0,6 1,11 4,15 2,4 6,7 10,10 5,2 9,5 15,7l17 6c5,2 11,4 17,7 5,2 10,5 14,9 5,4 8,9 11,14 2,6 4,13 4,21zm121 -40c0,-102 -81,-186 -182,-186 -100,0 -182,84 -182,186 0,103 82,186 182,186 101,0 182,-83 182,-186z"/>
   <path class="fil12" d="M-145 1460c0,78 -71,141 -159,141 -87,0 -158,-63 -158,-141 0,-24 7,-47 19,-67 -21,-25 -35,-55 -40,-89 -106,124 -45,344 181,662 209,-321 268,-542 178,-662 -5,33 -19,64 -40,89 12,20 19,43 19,67z"/>
  </g>
  <path class="fil0 str0" d="M2985 1803c-314,190 -615,190 -903,0 273,-285 574,-285 903,0z"/>
  <g id="_1847628198336">
   <path class="fil13" d="M-1686 1401c288,190 589,190 903,0 -329,-286 -630,-286 -903,0z"/>
   <path class="fil14" d="M-1141 1521c66,-128 66,-232 2,-312 -101,-28 -199,-25 -293,11 -77,98 -76,195 2,290 95,24 191,28 289,11z"/>
   <path class="fil15" d="M-1148 1215c19,24 33,50 40,78 90,20 185,53 285,98 -9,-15 -38,-38 -79,-65 -40,-27 -91,-57 -146,-80 -55,-24 -113,-41 -162,-49 -7,-1 -14,-2 -21,-3 -41,-3 -82,0 -123,8 -5,1 -9,2 -14,3 72,-14 145,-11 220,10z"/>
   <path class="fil0 str2" d="M-1622 1443c-25,-13 -50,-27 -62,-33 -13,-7 -13,-7 10,-26 22,-19 66,-58 103,-83 37,-26 65,-38 105,-54 39,-16 88,-35 132,-45 44,-9 84,-10 132,-1 49,8 107,24 162,48 55,23 107,54 147,80 40,27 70,51 79,66 9,15 -3,22 -47,41 -45,20 -122,52 -192,72 -69,20 -131,29 -192,30 -61,1 -120,-6 -160,-12 -40,-7 -60,-13 -81,-18"/>
   <g>
    <path class="fil0 str3" d="M-1433 1517c-77,-94 -78,-190 -2,-287"/>
    <path class="fil0 str3" d="M-1145 1219c63,80 63,183 -2,309"/>
   </g>
   <ellipse class="fil16" cx="-1290" cy="1361" rx="146" ry="134"/>
   <ellipse class="fil17" cx="-1284" cy="1366" rx="106" ry="98"/>
   <ellipse class="fil18" cx="-1329" cy="1314" rx="55" ry="51"/>
   <path class="fil0 str3" d="M-1571 1301c-92,34 -139,15 -141,-58"/>
   <path class="fil0 str3" d="M-1466 1247c-109,20 -155,-3 -139,-69"/>
  </g>
  <path class="fil0 str0" d="M1625 1622c-10,13 -26,27 -48,40 -40,12 -76,-7 -110,-58 -30,-55 -72,-62 -126,-23 -9,185 70,212 236,81 140,123 205,93 194,-89 -53,-46 -102,-30 -146,49z"/>
  <polyline class="fil0 str0" points="1541,1689 1512,1922 1553,1987 1607,1928 1577,1662 "/>
  <line class="fil0 str0" x1="1217" y1="1983" x2="1553" y2= "1987" />
  <line class="fil0 str0" x1="1553" y1="1987" x2="1876" y2= "1965" />
  <g id="_1847628196576">
   <g>
    <path class="fil2" d="M-321 -444l175 -12c-1,-42 -2,-84 -8,-118 -5,-34 -15,-60 -29,-77 -6,-8 -13,-14 -20,-18 6,99 -29,115 -106,48l17 144 -29 33z"/>
    <path class="fil2" d="M-345 -481l15 -126c-76,54 -113,34 -108,-59 -18,12 -37,31 -48,69 -11,37 -16,93 -20,149l183 3 -22 -36z"/>
    <path class="fil2" d="M-433 -674c-5,93 31,113 108,59 6,-5 13,-10 20,-15 -10,4 -19,3 -28,-1 -4,-2 -9,-5 -13,-8 0,0 0,0 0,0 -7,-6 -13,-13 -19,-23 -3,-4 -5,-8 -8,-11 -6,-8 -13,-12 -21,-14 -11,-1 -25,4 -39,13z"/>
    <path class="fil2" d="M-312 -628c77,67 112,51 106,-48 -9,-6 -18,-10 -25,-12 -5,-1 -9,-2 -13,-2 -3,1 -6,2 -8,3 -4,3 -7,6 -12,11 -6,7 -13,17 -21,26 -3,3 -6,7 -9,10 -6,5 -12,10 -18,12z"/>
    <path class="fil2" d="M-423 -779c0,54 46,97 102,97 56,0 102,-43 102,-97 0,-53 -46,-97 -102,-97 -56,0 -102,44 -102,97z"/>
   </g>
   <path class="fil11" d="M-216 -204l-51 -28 -13 5 -14 46 -56 0 -13 -47 -11 -4 -47 26 -40 -41 23 -40 -5 -12 -52 -14 0 -56 55 -17 1 -3 -25 -45 40 -41 51 28 10 -3 16 -52 57 0 14 52 6 1 52 -26 41 40 -25 43 5 9 48 13 1 57 -48 15 -5 10 25 44 -40 40zm-118 -364c-82,23 -140,59 -174,110 -83,126 -18,338 195,637 205,-316 265,-533 179,-654 -33,-46 -88,-78 -164,-95 -2,1 -5,2 -7,3 -10,4 -20,3 -29,-1z"/>
   <path class="fil11" d="M-325 -268c44,0 79,-31 79,-70 0,-39 -35,-71 -79,-71 -44,0 -80,32 -80,71 0,39 36,70 80,70z"/>
   <path class="fil19" d="M-441 -384l-57 17 1 59 53 14 6 12 -25 42 42 41 49 -26 11 4 13 48 59 0 14 -47 14 -5 52 29 42 -42 -26 -45 5 -11 50 -15 -2 -59 -50 -13 -5 -9 26 -44 -42 -42 -54 26 -6 0 -15 -54 -59 0 -16 54 -11 3 -52 -29 -42 42 27 46 -2 4zm127 131c-51,0 -93,-37 -93,-82 0,-46 42,-83 93,-83 51,0 93,37 93,83 0,45 -42,82 -93,82z"/>
   <path class="fil19" d="M-335 -606l-21 173 31 49 39 -44 -22 -198c-9,7 -18,14 -27,20z"/>
   <path class="fil11" d="M-325 -268c44,0 79,-31 79,-70 0,-39 -35,-71 -79,-71 -44,0 -80,32 -80,71 0,39 36,70 80,70z"/>
  </g>
  <rect class="fil0 str0" x="4331" y="-256" width="653" height="328" rx="9000" ry="8428"/>
  <rect class="fil0 str0" x="4281" y="-402" width="763" height="650" rx="10505" ry="16692"/>
  <rect class="fil0 str0" transform="matrix(-0.00265446 0.31853 -0.317357 -0.00266427 4575.27 -191.244)" width="653" height="350" rx="9000" ry="9000"/>
  <rect class="fil0 str0" transform="matrix(-0.00265446 0.31853 -0.317357 -0.00266427 4843.38 -191.304)" width="653" height="350" rx="9000" ry="9000"/>
  <path class="fil0 str0" d="M5104 -199c38,86 37,177 -5,270 70,-5 125,-62 127,-133 1,-70 -52,-130 -122,-137z"/>
  <path class="fil0 str0" d="M5211 -547l0 0 0 377 53 0 0 -324c0,-29 -24,-53 -53,-53z"/>
  <rect class="fil0 str0" x="4503" y="2528" width="327" height="137" rx="3000" ry="3000"/>
  <g id="_1847628188960">
   <path class="fil12" d="M4721 941l0 275c24,15 43,38 54,65l0 -286c0,-30 -24,-54 -54,-54z"/>
   <path class="fil12" d="M4779 1348c2,-70 -51,-130 -121,-137 2,3 3,7 5,10 15,39 23,79 22,119 0,0 0,0 0,0 0,50 -11,98 -32,141 0,0 0,0 0,0 70,-5 125,-63 126,-133z"/>
   <path class="fil12" d="M4342 1666c179,0 325,-146 325,-325 0,-178 -146,-325 -325,-325l-112 0c-179,0 -325,147 -325,325 0,179 146,325 325,325l112 0zm102 -175l-325 0c-90,0 -164,-74 -164,-164 0,-91 74,-164 164,-164l325 0c90,0 164,73 164,164 0,90 -74,164 -164,164z"/>
   <path class="fil12" d="M4210 1381l1 -97c1,-31 -24,-56 -55,-56 -30,0 -56,24 -56,55l-1 97c0,31 25,56 55,56 31,0 56,-24 56,-55z"/>
   <path class="fil12" d="M4459 1386l1 -97c0,-31 -25,-56 -55,-56 -31,0 -56,24 -56,55l-1 97c0,30 25,56 55,56 31,0 56,-25 56,-55z"/>
   <path class="fil12" d="M3849 949l0 274c-25,16 -43,39 -54,65l0 -286c0,-29 24,-53 54,-53z"/>
   <path class="fil12" d="M3790 1356c-1,-71 51,-130 121,-138 -1,3 -3,7 -4,11 -16,39 -23,78 -23,118 0,0 0,1 0,1 0,50 12,98 32,140 1,0 1,0 1,0 -71,-5 -125,-62 -127,-132z"/>
   <path class="fil12" d="M4453 1706l-99 0c-20,0 -36,20 -36,45 0,24 16,45 36,45l99 0c19,0 35,-21 35,-45 0,-25 -16,-45 -35,-45z"/>
   <path class="fil0 str4" d="M4478 1741c72,-5 139,-40 184,-96 46,-57 65,-130 53,-201"/>
  </g>
  <line class="fil0 str0" x1="6217" y1="3737" x2="6217" y2= "4105" />
  <polyline class="fil0 str0" points="6217,4105 6526,3737 7738,3737 7738,2786 "/>
  <polyline class="fil0 str0" points="7738,2786 6027,2786 6027,3725 6217,3737 "/>
  <g id="_1847628186848">
   <path class="fil12" d="M1020 210l0 267c23,15 42,38 52,64l0 -279c0,-28 -24,-52 -52,-52z"/>
   <path class="fil12" d="M1077 606c1,-68 -50,-126 -118,-134 1,4 3,7 4,11 15,37 22,76 22,115 0,0 0,0 0,0 0,49 -11,96 -31,137 0,0 0,0 0,0 68,-5 121,-61 123,-129z"/>
   <path class="fil12" d="M651 915c174,0 317,-142 317,-316 0,-174 -143,-316 -317,-316l-109 0c-174,0 -316,142 -316,316 0,174 142,316 316,316l109 0zm99 -170l-316 0c-88,0 -160,-72 -160,-160 0,-88 72,-159 160,-159l316 0c88,0 160,71 160,159 0,88 -72,160 -160,160z"/>
   <path class="fil12" d="M523 638l1 -94c0,-30 -24,-55 -54,-55 -29,0 -54,24 -54,54l-1 94c0,30 24,54 54,54 29,1 54,-23 54,-53z"/>
   <path class="fil12" d="M765 643l1 -95c0,-29 -24,-54 -54,-54 -30,0 -54,24 -54,53l-1 95c0,29 24,54 53,54 30,0 55,-24 55,-53z"/>
   <path class="fil12" d="M171 217l0 267c-23,15 -42,38 -52,64l0 -279c0,-28 24,-52 52,-52z"/>
   <path class="fil12" d="M114 613c-1,-68 50,-126 118,-134 -1,4 -3,7 -4,11 -15,38 -22,76 -22,115 0,0 0,0 0,0 0,49 11,96 31,137 0,0 0,0 0,0 -68,-4 -121,-60 -123,-129z"/>
   <path class="fil12" d="M759 954l-96 0c-20,0 -35,19 -35,43 0,24 15,44 35,44l96 0c19,0 34,-20 34,-44 0,-24 -15,-43 -34,-43z"/>
   <path class="fil0 str4" d="M784 988c70,-5 135,-39 179,-93 44,-55 62,-126 51,-196"/>
  </g>
 </g>
</svg>
