<?xml version="1.0" encoding="UTF-8"?>
<!DOCTYPE svg PUBLIC "-//W3C//DTD SVG 1.1//EN" "http://www.w3.org/Graphics/SVG/1.1/DTD/svg11.dtd">
<!-- Creator: CorelDRAW X7 -->
<svg xmlns="http://www.w3.org/2000/svg" xml:space="preserve" width="12mm" height="12mm" version="1.1" style="shape-rendering:geometricPrecision; text-rendering:geometricPrecision; image-rendering:optimizeQuality; fill-rule:evenodd; clip-rule:evenodd"
viewBox="0 0 1200 1200"
 xmlns:xlink="http://www.w3.org/1999/xlink">
 <defs>
  <style type="text/css">
   <![CDATA[
    .fil1 {fill:#38A0C4}
    .fil0 {fill:#C0D4DB}
   ]]>
  </style>
 </defs>
 <g id="Layer_x0020_1">
  <metadata id="CorelCorpID_0Corel-Layer"/>
  <g id="_2330486584064">
   <path class="fil0" d="M335 1030c-112,-82 -145,-273 -36,-380 110,-107 361,-129 498,-99 137,30 159,113 145,206 -13,93 -63,197 -183,262 -120,66 -312,93 -424,11z"/>
   <g>
    <path class="fil1" d="M828 440c-4,7 -9,12 -16,15 -6,4 -12,6 -19,6 -7,1 -15,0 -23,-2 -7,-3 -16,-6 -24,-12l-20 24 -2 1c0,1 -1,1 -2,1l-2 -1 -4 -3 -5 -3 -2 -3c0,0 0,-1 0,-2 0,0 1,-1 1,-1l21 -24c-4,-3 -7,-6 -9,-9l-7 -9c-2,-2 -4,-5 -5,-7 -1,-2 -2,-4 -2,-5 0,-2 0,-3 1,-5 0,-1 2,-3 3,-6l4 -4 2 -2c1,-1 2,-1 3,-1l2 1c1,1 2,2 3,5 1,2 3,5 5,9 2,3 5,7 8,12 4,4 9,8 15,13 12,8 22,11 30,11 9,0 16,-4 22,-12 3,-4 5,-9 5,-14 0,-4 -1,-9 -3,-14 -2,-4 -5,-9 -8,-14l-10 -14c-4,-5 -7,-10 -10,-16 -3,-5 -5,-10 -6,-16 -1,-5 -1,-11 0,-17 1,-6 4,-13 8,-19 4,-5 8,-10 13,-13 5,-3 11,-5 17,-6 6,-1 13,-1 20,1 7,2 14,5 22,10l19 -23 1 -1 2 0 3 1 4 3 4 3c1,1 2,2 2,2 0,1 0,2 0,2l-1 2 -19 22 7 6 5 7 5 7c1,2 2,4 2,5l0 3 -1 2 -1 3 -2 3 -3 4 -2 2 -2 1c-1,0 -1,0 -2,0 -1,-1 -2,-2 -3,-5l-5 -8c-2,-3 -4,-7 -8,-10 -3,-4 -6,-8 -11,-11 -5,-4 -10,-6 -15,-8 -4,-2 -8,-2 -12,-2 -3,0 -7,1 -10,3 -3,2 -5,4 -7,7 -4,5 -5,10 -5,15 0,4 1,9 3,14 2,4 4,9 8,14l10 14c3,5 7,10 10,16 3,5 5,10 6,16 2,6 2,11 1,17 -1,6 -4,13 -9,19zm122 38c59,-84 41,-199 -42,-257 -82,-57 -197,-36 -256,48 -59,84 -40,199 42,256 83,58 197,37 256,-47z"/>
    <path class="fil1" d="M845 586c-45,63 -139,74 -211,24 -71,-50 -93,-143 -48,-207 14,-20 32,-34 53,-44 -2,-32 4,-65 19,-95 -157,40 -235,255 -232,645 355,-142 531,-288 526,-439 -24,25 -53,42 -84,50 -1,23 -9,46 -23,66z"/>
   </g>
  </g>
 </g>
</svg>
