<?xml version="1.0" encoding="UTF-8"?>
<!DOCTYPE svg PUBLIC "-//W3C//DTD SVG 1.1//EN" "http://www.w3.org/Graphics/SVG/1.1/DTD/svg11.dtd">
<!-- Creator: CorelDRAW X7 -->
<svg xmlns="http://www.w3.org/2000/svg" xml:space="preserve" width="12mm" height="12mm" version="1.1" style="shape-rendering:geometricPrecision; text-rendering:geometricPrecision; image-rendering:optimizeQuality; fill-rule:evenodd; clip-rule:evenodd"
viewBox="0 0 1200 1200"
 xmlns:xlink="http://www.w3.org/1999/xlink">
 <defs>
  <style type="text/css">
   <![CDATA[
    .str0 {stroke:white;stroke-width:20}
    .fil0 {fill:#244A6A}
    .fil2 {fill:#324554}
    .fil1 {fill:url(#id0)}
   ]]>
  </style>
  <linearGradient id="id0" gradientUnits="userSpaceOnUse" x1="159.68" y1="810.23" x2="910.66" y2="810.23">
   <stop offset="0" style="stop-opacity:1; stop-color:#244A6A"/>
   <stop offset="1" style="stop-opacity:1; stop-color:#324554"/>
  </linearGradient>
 </defs>
 <g id="Layer_x0020_1">
  <metadata id="CorelCorpID_0Corel-Layer"/>
  <g id="_1289083292752">
   <path class="fil0" d="M671 149c-49,-9 -108,-18 -146,-20 -39,-2 -55,4 -68,14 -13,9 -23,23 -28,54 -4,30 -5,76 -5,122 12,2 24,4 37,6 13,2 26,5 40,7 1,-32 1,-64 5,-83 3,-19 8,-26 38,-24 30,1 84,10 123,16 38,6 62,9 73,22 12,12 12,35 10,55 -1,19 -4,37 -7,54 32,5 62,10 89,14 0,-32 0,-64 2,-93 1,-29 3,-54 -3,-73 -6,-20 -20,-34 -47,-45 -26,-10 -64,-18 -113,-26z"/>
   <path class="fil0" d="M206 347c-12,16 -16,31 -19,69 -3,31 -5,78 -9,139 52,29 104,58 153,78 48,21 93,34 115,40l22 6 10 -73 130 16 -9 74c52,5 105,10 150,10 45,1 82,-4 108,-9 25,-4 40,-9 55,-13 1,-48 1,-88 3,-124 2,-38 7,-70 19,-91 12,-20 30,-29 49,-37 -12,-10 -30,-15 -132,-32 -9,-2 -19,-4 -29,-5 -26,-5 -56,-10 -88,-15 -80,-13 -170,-28 -243,-40 -14,-2 -27,-4 -39,-6 -14,-3 -26,-5 -37,-7 -85,-14 -120,-20 -146,-17 -31,4 -51,21 -63,37z"/>
   <path class="fil1" d="M175 606c-6,82 -13,184 -15,241 -2,56 2,66 8,75 6,9 15,16 126,40 111,23 325,62 448,80 55,8 91,11 117,12 10,-11 20,-22 26,-35 5,-13 6,-28 9,-52 2,-25 6,-59 9,-106 3,-47 6,-107 7,-158 1,-3 1,-6 1,-8 -15,4 -30,9 -55,13 -26,5 -63,10 -108,9 -45,0 -98,-5 -150,-10l-10 73 -130 -16 9 -74 -22 -6c-22,-6 -67,-19 -115,-40 -49,-20 -101,-49 -153,-78 -1,13 -2,26 -2,40z"/>
   <path class="fil2" d="M923 703c-2,51 -4,111 -8,158 -3,47 -7,81 -9,106 -2,25 -3,40 -9,52 -5,13 -16,24 -26,35 32,1 48,-2 62,-6 25,-9 44,-22 54,-34 10,-11 10,-21 14,-109 4,-88 13,-254 13,-345 1,-91 -7,-107 -19,-117 -19,8 -38,17 -50,37 -11,21 -16,53 -18,91 -3,36 -3,76 -4,124 0,3 0,5 0,8z"/>
   <path class="fil0 str0" d="M633 783c-7,1 -10,4 -14,14 -4,9 -7,25 -9,39 -2,13 -1,24 7,32 9,8 24,14 34,28 9,14 13,37 9,53 -3,15 -12,23 -17,30 -5,7 -5,13 2,24 6,10 19,24 29,34 10,10 18,15 26,15 8,-1 17,-7 27,-10 9,-3 19,-3 25,0 6,3 8,9 10,19 2,10 4,23 9,33 5,10 13,16 25,20 12,3 29,3 39,-2 10,-4 13,-13 16,-23 2,-10 5,-22 11,-29 6,-8 15,-11 24,-10 9,1 18,7 27,12 9,6 18,11 30,8 12,-3 26,-15 34,-24 8,-10 10,-17 5,-26 -4,-10 -14,-21 -19,-29 -5,-7 -4,-9 0,-16 3,-8 9,-21 16,-27 8,-6 15,-6 25,-8 9,-1 20,-4 26,-15 6,-12 7,-30 7,-45 0,-14 -1,-23 -8,-28 -8,-5 -22,-5 -30,-8 -9,-4 -11,-11 -14,-18 -4,-6 -9,-13 -6,-22 3,-10 13,-24 17,-36 4,-12 2,-23 -6,-33 -7,-11 -18,-20 -27,-23 -8,-3 -13,0 -22,5 -9,5 -22,12 -33,13 -10,2 -18,-3 -22,-12 -3,-9 -1,-23 -3,-34 -1,-11 -6,-19 -18,-25 -12,-5 -32,-6 -44,-3 -12,4 -16,13 -19,22 -3,9 -5,18 -10,25 -4,7 -10,12 -15,13 -5,1 -8,-1 -12,-6 -4,-5 -8,-13 -16,-19 -8,-6 -19,-10 -29,-9 -9,1 -17,8 -25,14 -8,7 -16,14 -16,25 0,11 7,26 7,37 1,11 -4,17 -9,20 -6,4 -10,5 -18,5 -8,0 -19,-1 -26,0zm105 102c0,-50 38,-90 85,-90 47,0 86,40 86,90 0,50 -39,90 -86,90 -47,0 -85,-40 -85,-90z"/>
  </g>
 </g>
</svg>
