<?xml version="1.0" encoding="UTF-8"?>
<!DOCTYPE svg PUBLIC "-//W3C//DTD SVG 1.1//EN" "http://www.w3.org/Graphics/SVG/1.1/DTD/svg11.dtd">
<!-- Creator: CorelDRAW X7 -->
<svg xmlns="http://www.w3.org/2000/svg" xml:space="preserve" width="12mm" height="12mm" version="1.1" style="shape-rendering:geometricPrecision; text-rendering:geometricPrecision; image-rendering:optimizeQuality; fill-rule:evenodd; clip-rule:evenodd"
viewBox="0 0 1200 1200"
 xmlns:xlink="http://www.w3.org/1999/xlink">
 <defs>
  <style type="text/css">
   <![CDATA[
    .fil1 {fill:#38A0C4}
    .fil0 {fill:#C0D4DB}
   ]]>
  </style>
 </defs>
 <g id="Layer_x0020_1">
  <metadata id="CorelCorpID_0Corel-Layer"/>
  <g id="_3096497215632">
   <path class="fil0" d="M216 1076c-112,-82 -145,-273 -35,-380 109,-107 361,-129 498,-99 137,31 159,113 145,206 -14,93 -63,197 -184,262 -120,66 -311,93 -424,11z"/>
   <path class="fil1" d="M689 569c36,26 84,22 108,-10 24,-32 14,-80 -22,-106 -36,-27 -85,-23 -108,9 -24,33 -14,80 22,107z"/>
   <path class="fil1" d="M630 349c59,-21 128,-16 210,15 -5,-8 -8,-19 -9,-29 -2,-21 4,-38 -3,-51 -6,-13 -25,-21 -49,-23 -24,-1 -52,4 -87,30 -19,14 -40,35 -62,58z"/>
   <path class="fil1" d="M869 366c52,60 77,120 76,178 9,-13 16,-25 22,-37 17,-34 26,-63 25,-87 -1,-24 -12,-44 -21,-55 -9,-12 -16,-16 -36,-12 -18,4 -46,14 -66,13z"/>
   <path class="fil1" d="M872 302c50,37 118,28 153,-19 35,-47 23,-115 -27,-152 -49,-36 -118,-28 -153,19 -34,47 -23,115 27,152z"/>
   <path class="fil1" d="M563 629l-307 307 -8 87 111 3 0 -76 83 11 -12 -78 72 13 9 -78 91 23 107 -126c13,2 27,4 41,4 124,0 225,-90 225,-201 0,-111 -101,-201 -225,-201 -124,0 -225,90 -225,201 0,41 14,80 38,111zm58 -4l18 -45 -6 -10 -55 -8 -8 -58 44 -19 2 -12 -34 -43 34 -47 56 20 3 -2 6 -52 58 -9 25 54 10 4 44 -34 47 35 -20 51 5 4 58 11 9 58 -46 20 -2 10 32 40 -33 48 -49 -18 -10 6 -6 51 -57 9 -25 -54 -14 -4 -39 29 -47 -35z"/>
  </g>
 </g>
</svg>
