<?xml version="1.0" encoding="UTF-8"?>
<!DOCTYPE svg PUBLIC "-//W3C//DTD SVG 1.1//EN" "http://www.w3.org/Graphics/SVG/1.1/DTD/svg11.dtd">
<!-- Creator: CorelDRAW X7 -->
<svg xmlns="http://www.w3.org/2000/svg" xml:space="preserve" width="12mm" height="12mm" version="1.1" style="shape-rendering:geometricPrecision; text-rendering:geometricPrecision; image-rendering:optimizeQuality; fill-rule:evenodd; clip-rule:evenodd"
viewBox="0 0 1200 1200"
 xmlns:xlink="http://www.w3.org/1999/xlink">
 <defs>
  <style type="text/css">
   <![CDATA[
    .fil4 {fill:#781110}
    .fil3 {fill:#A11210}
    .fil1 {fill:#AD3E3C}
    .fil2 {fill:#B91410}
    .fil0 {fill:#C72E2C}
    .fil5 {fill:white}
   ]]>
  </style>
 </defs>
 <g id="Layer_x0020_1">
  <metadata id="CorelCorpID_0Corel-Layer"/>
  <g id="_1992001218048">
   <path class="fil0" d="M805 973l10 -542c-48,26 -139,44 -243,44 -100,0 -188,-16 -237,-41l18 539c0,45 101,81 226,81 125,0 226,-36 226,-81z"/>
   <path class="fil1" d="M338 431c126,94 275,112 449,53l0 521c14,-11 22,-23 22,-35l9 -542c-47,26 -138,44 -243,44 -100,0 -187,-16 -237,-41z"/>
   <g>
    <path class="fil2" d="M298 395c0,-8 5,-17 14,-24 -9,-8 -14,-16 -14,-25l0 49z"/>
    <path class="fil2" d="M577 480c154,0 279,-39 279,-87 0,-8 -4,-16 -11,-24 -33,36 -140,63 -268,63 -127,0 -235,-27 -268,-63 -7,8 -11,16 -11,24 0,48 125,87 279,87z"/>
    <path class="fil2" d="M856 397l0 -52c0,9 -4,18 -12,26 8,8 12,17 12,26z"/>
   </g>
   <path class="fil3" d="M576 437c154,0 279,-39 279,-87 0,-48 -125,-87 -279,-87 -154,0 -279,39 -279,87 0,48 125,87 279,87zm-3 -36c-134,0 -243,-26 -243,-58 0,-32 109,-58 243,-58 135,0 244,26 244,58 0,32 -109,58 -244,58z"/>
   <path class="fil4" d="M576 408c138,0 250,-29 250,-65 0,-35 -112,-64 -250,-64 -138,0 -249,29 -249,64 0,36 111,65 249,65z"/>
   <g>
    <path class="fil0" d="M543 325c-131,47 -249,56 -262,19 -13,-36 83,-104 215,-152 131,-47 249,-56 262,-19 13,37 -83,104 -215,152z"/>
    <path class="fil2" d="M549 343c-145,52 -276,57 -292,12 -16,-45 88,-124 233,-176 145,-52 275,-57 292,-12 16,45 -88,124 -233,176zm-258 -7c10,30 122,18 248,-28 126,-45 220,-106 209,-136 -11,-31 -122,-18 -248,27 -127,46 -220,107 -209,137z"/>
    <path class="fil2" d="M304 329c-11,-29 76,-87 195,-132 -168,104 -150,139 53,104 -126,45 -238,58 -248,28z"/>
    <path class="fil3" d="M558 375c-145,52 -276,58 -292,13l-14 -40c16,45 146,39 291,-13 145,-52 250,-131 233,-176l15 40c16,46 -88,124 -233,176z"/>
   </g>
   <path class="fil5" d="M565 841c94,0 169,-61 169,-137 0,-76 -75,-138 -169,-138 -93,0 -168,62 -168,138 0,76 75,137 168,137zm-80 -62c56,-21 106,-21 150,0 -50,-11 -100,-11 -150,0zm143 -52c-25,0 -44,-17 -44,-39 0,-21 19,-39 44,-39 24,0 44,18 44,39 0,22 -20,39 -44,39zm-141 5c-25,0 -45,-17 -45,-39 0,-21 20,-38 45,-38 24,0 44,17 44,38 0,22 -20,39 -44,39z"/>
  </g>
 </g>
</svg>
