<?xml version="1.0" encoding="UTF-8"?>
<!DOCTYPE svg PUBLIC "-//W3C//DTD SVG 1.1//EN" "http://www.w3.org/Graphics/SVG/1.1/DTD/svg11.dtd">
<!-- Creator: CorelDRAW X7 -->
<svg xmlns="http://www.w3.org/2000/svg" xml:space="preserve" width="12mm" height="12mm" version="1.1" style="shape-rendering:geometricPrecision; text-rendering:geometricPrecision; image-rendering:optimizeQuality; fill-rule:evenodd; clip-rule:evenodd"
viewBox="0 0 1200 1200"
 xmlns:xlink="http://www.w3.org/1999/xlink">
 <defs>
  <style type="text/css">
   <![CDATA[
    .str0 {stroke:#A69080;stroke-width:20}
    .str1 {stroke:#A69080;stroke-width:20;stroke-linecap:round}
    .fil1 {fill:none}
    .fil2 {fill:#DEC0AB}
    .fil3 {fill:#EBCAB3}
    .fil0 {fill:#F8D3B9}
   ]]>
  </style>
 </defs>
 <g id="Layer_x0020_1">
  <metadata id="CorelCorpID_0Corel-Layer"/>
  <g id="_2643362119936">
   <path class="fil0 str0" d="M354 773c28,57 45,96 60,120 14,24 26,33 43,45 1,1 3,2 4,3 17,11 39,23 67,35 31,12 69,23 102,26 33,3 61,-2 86,-10 25,-9 46,-21 68,-38 22,-16 45,-37 67,-70 22,-32 44,-76 52,-113 8,-36 2,-65 -11,-101 -13,-36 -33,-79 -52,-115 -19,-37 -37,-68 -51,-96 -13,-28 -22,-55 -36,-68 -13,-14 -30,-15 -45,-11 -14,4 -26,13 -32,24 -6,9 -7,20 -3,37 -6,-8 -13,-15 -19,-25 -6,-10 -12,-22 -26,-51 -13,-28 -35,-73 -50,-102 -15,-30 -23,-44 -34,-55 -11,-11 -24,-19 -38,-20 -14,-2 -27,2 -34,7 -8,6 -8,11 -10,20 -3,9 -7,20 -12,19 -6,-1 -13,-15 -22,-26 -8,-11 -17,-20 -30,-23 -12,-3 -28,0 -41,6 -13,7 -23,19 -27,29 -3,10 0,19 4,29 3,11 7,22 4,25 -2,3 -11,-2 -19,-3 -8,-1 -14,1 -24,4 -10,3 -24,8 -31,17 -8,9 -9,23 -6,38 2,15 6,30 14,46 8,16 18,32 15,36 -3,5 -20,-2 -34,-3 -14,0 -25,5 -33,13 -5,5 -8,11 -11,17 -2,5 -4,10 -4,16 -2,11 0,21 9,39 8,18 22,43 49,94 26,51 64,128 91,185z"/>
   <path class="fil1 str1" d="M292 422c51,95 102,190 128,237 25,48 25,48 24,48"/>
   <path class="fil1 str1" d="M343 284c58,115 116,230 174,345"/>
   <path class="fil1 str1" d="M456 247c55,110 111,220 166,330"/>
   <path class="fil2" d="M637 819c4,51 38,110 71,168 25,-8 47,-20 69,-37 22,-16 45,-37 67,-70 22,-32 44,-76 52,-113 8,-36 2,-65 -11,-101 -13,-36 -33,-79 -52,-116 -9,-17 -18,-33 -26,-47 -18,2 -36,5 -52,16 -16,10 -30,28 -33,51 -3,23 6,52 1,70 -5,19 -24,28 -45,55 -21,27 -46,72 -41,124z"/>
   <path class="fil1 str1" d="M677 456c25,48 49,96 55,122 6,26 -8,30 -25,44 -17,13 -38,36 -49,66 -11,30 -11,68 -5,94 6,26 18,42 31,57"/>
   <path class="fil3" d="M301 657c13,26 27,50 38,66 27,40 38,35 45,22 7,-12 10,-32 -1,-67 -11,-34 -37,-84 -58,-122 -20,-38 -34,-64 -53,-75 -18,-11 -40,-5 -48,2 -6,5 -5,11 3,29 4,9 10,21 18,36 14,29 35,71 56,109z"/>
   <path class="fil3" d="M355 531c15,29 30,57 42,75 31,47 42,41 48,28 7,-14 9,-36 -5,-75 -13,-39 -43,-96 -66,-139 -23,-44 -39,-74 -59,-87 -19,-13 -41,-9 -50,-1 -5,6 -4,12 5,33 5,10 12,23 21,41 16,33 40,81 64,125z"/>
   <path class="fil3" d="M434 454c16,30 31,57 43,76 30,47 41,41 48,28 6,-14 9,-36 -5,-75 -14,-40 -44,-97 -67,-140 -23,-44 -39,-74 -59,-87 -19,-13 -42,-9 -50,-1 -5,5 -4,12 5,33 5,10 12,23 21,41 16,33 40,82 64,125z"/>
   <path class="fil3" d="M553 431c15,29 30,55 42,74 30,46 41,40 48,27 6,-14 9,-35 -5,-74 -13,-39 -43,-95 -65,-138 -23,-43 -39,-73 -58,-85 -20,-13 -42,-8 -50,-1 -6,6 -5,12 5,33 4,10 11,23 19,40 17,33 41,81 64,124z"/>
  </g>
 </g>
</svg>
