<?xml version="1.0" encoding="UTF-8"?>
<!DOCTYPE svg PUBLIC "-//W3C//DTD SVG 1.1//EN" "http://www.w3.org/Graphics/SVG/1.1/DTD/svg11.dtd">
<!-- Creator: CorelDRAW X7 -->
<svg xmlns="http://www.w3.org/2000/svg" xml:space="preserve" width="12mm" height="12mm" version="1.1" style="shape-rendering:geometricPrecision; text-rendering:geometricPrecision; image-rendering:optimizeQuality; fill-rule:evenodd; clip-rule:evenodd"
viewBox="0 0 1200 1200"
 xmlns:xlink="http://www.w3.org/1999/xlink">
 <defs>
  <style type="text/css">
   <![CDATA[
    .str2 {stroke:#38A0C4;stroke-width:7}
    .str1 {stroke:#206F8A;stroke-width:25}
    .str0 {stroke:#189DC9;stroke-width:25;stroke-linejoin:round}
    .fil0 {fill:none}
    .fil1 {fill:#38A0C4}
   ]]>
  </style>
 </defs>
 <g id="Layer_x0020_1">
  <metadata id="CorelCorpID_0Corel-Layer"/>
  <rect class="fil0 str0" x="165" y="224" width="871" height="733" rx="30" ry="30"/>
  <circle class="fil0 str1" cx="596" cy="593" r="217"/>
  <path class="fil1 str2" d="M507 569c3,12 10,27 16,42 -8,-9 -16,-18 -26,-24 -9,-6 -20,-8 -28,-16 -9,-8 -15,-22 -20,-33 -5,-12 -10,-21 -13,-34 -4,-13 -6,-30 -8,-47 -30,37 -49,84 -49,136 0,11 1,23 3,34 12,2 25,4 32,16 8,12 12,35 21,50 9,16 23,24 30,35 7,12 7,27 7,43 35,25 78,39 125,39 36,0 70,-9 100,-24 -3,-19 -6,-38 2,-51 7,-12 27,-17 37,-24 10,-7 12,-15 8,-21 -4,-7 -13,-10 -13,-14 -1,-4 8,-8 9,-17 1,-9 -5,-24 -2,-32 4,-7 17,-8 19,-15 3,-7 -5,-20 -10,-32 -5,-13 -8,-25 -6,-39 3,-13 11,-28 15,-44 3,-16 1,-34 -1,-52 -37,-40 -88,-66 -146,-69 -6,13 -12,25 -8,32 4,6 17,7 21,9 4,2 -2,5 -9,10 -6,4 -13,10 -13,15 0,5 7,9 5,12 -1,3 -11,6 -21,7 -10,2 -20,4 -30,10 -9,6 -18,17 -25,25 -6,9 -9,15 -17,15 -8,-1 -21,-8 -29,-4 -7,3 -9,17 -10,24 -2,7 -2,7 5,7 6,1 18,1 23,6 5,5 4,13 6,25zm78 41c19,1 27,8 30,18 3,9 -1,22 9,27 10,5 32,4 40,13 8,9 2,28 -12,42 -13,14 -34,23 -44,34 -11,11 -12,25 -18,35 -5,11 -16,20 -25,23 -9,4 -16,3 -18,-7 -2,-9 1,-26 -2,-37 -3,-12 -13,-17 -14,-27 0,-10 9,-25 8,-34 -1,-10 -13,-14 -20,-27 -6,-13 -9,-33 5,-46 13,-12 42,-16 61,-14z"/>
 </g>
</svg>
