<?xml version="1.0" encoding="UTF-8"?>
<!DOCTYPE svg PUBLIC "-//W3C//DTD SVG 1.1//EN" "http://www.w3.org/Graphics/SVG/1.1/DTD/svg11.dtd">
<!-- Creator: CorelDRAW X7 -->
<svg xmlns="http://www.w3.org/2000/svg" xml:space="preserve" width="12mm" height="12mm" version="1.1" style="shape-rendering:geometricPrecision; text-rendering:geometricPrecision; image-rendering:optimizeQuality; fill-rule:evenodd; clip-rule:evenodd"
viewBox="0 0 1200 1200"
 xmlns:xlink="http://www.w3.org/1999/xlink">
 <defs>
  <style type="text/css">
   <![CDATA[
    .str1 {stroke:#256D85;stroke-width:20;stroke-linejoin:round}
    .str2 {stroke:#33CC66;stroke-width:20;stroke-linejoin:round}
    .str0 {stroke:#A32F2F;stroke-width:20;stroke-linejoin:round}
    .fil1 {fill:none}
    .fil0 {fill:#85C68D}
    .fil3 {fill:#0D93BF}
    .fil2 {fill:#189DC9}
   ]]>
  </style>
 </defs>
 <g id="Layer_x0020_1">
  <metadata id="CorelCorpID_0Corel-Layer"/>
  <g id="_2643479854992">
   <path class="fil0" d="M634 889c32,-37 50,-70 55,-99 0,-2 0,-3 1,-4 8,-62 -49,-104 -168,-126l-265 115 120 53 145 63 63 28 54 -24 148 -65 125 -54 -2 -1 -120 52 -5 2 -143 63 -5 3 -13 5 7 -8 3 -3z"/>
   <polygon class="fil1 str0" points="911,530 573,391 256,530 584,673 "/>
   <polygon class="fil1 str1" points="911,656 573,517 256,656 584,799 "/>
   <polygon class="fil1 str2" points="918,780 580,641 263,780 591,923 "/>
   <polygon class="fil2" points="911,424 573,285 256,424 584,568 "/>
   <path class="fil3" d="M790 476l124 -55 -338 -139 -58 26c122,22 179,64 171,126 -4,30 -22,65 -56,104 -3,3 -6,7 -9,11l17 -8 149 -65z"/>
  </g>
 </g>
</svg>
