<?xml version="1.0" encoding="UTF-8"?>
<!DOCTYPE svg PUBLIC "-//W3C//DTD SVG 1.1//EN" "http://www.w3.org/Graphics/SVG/1.1/DTD/svg11.dtd">
<!-- Creator: CorelDRAW X7 -->
<svg xmlns="http://www.w3.org/2000/svg" xml:space="preserve" width="12mm" height="12mm" version="1.1" style="shape-rendering:geometricPrecision; text-rendering:geometricPrecision; image-rendering:optimizeQuality; fill-rule:evenodd; clip-rule:evenodd"
viewBox="0 0 1200 1200"
 xmlns:xlink="http://www.w3.org/1999/xlink">
 <defs>
  <style type="text/css">
   <![CDATA[
    .fil1 {fill:#313131}
    .fil4 {fill:#37261E}
    .fil5 {fill:#3E4852}
    .fil23 {fill:#5C1726}
    .fil0 {fill:#616469}
    .fil14 {fill:#666362}
    .fil6 {fill:#666A70}
    .fil10 {fill:#6E665E}
    .fil2 {fill:#6F4C36}
    .fil13 {fill:#78706D}
    .fil15 {fill:#796F66}
    .fil12 {fill:#948E8C}
    .fil3 {fill:#A16F50}
    .fil11 {fill:#A69B97}
    .fil16 {fill:#A89E9D}
    .fil22 {fill:#B0A9A2}
    .fil8 {fill:#B5B2AF}
    .fil20 {fill:#BF9576}
    .fil7 {fill:#C9C0B7}
    .fil9 {fill:#CA9563}
    .fil19 {fill:#CF9870}
    .fil17 {fill:#DBA16B}
    .fil18 {fill:#DBAA88}
    .fil21 {fill:#EDB791}
   ]]>
  </style>
 </defs>
 <g id="Layer_x0020_1">
  <metadata id="CorelCorpID_0Corel-Layer"/>
  <g id="_1683281762576">
   <g>
    <path class="fil0" d="M493 995c-5,-3 -10,-6 -16,-8 -7,-2 -13,-2 -19,-2 -5,0 -8,0 -15,5 -6,4 -15,13 -19,19 -3,6 -1,11 2,17 2,7 5,16 15,19 10,2 27,-2 40,-5 14,-3 23,-5 27,-12 4,-6 2,-16 -1,-22 -3,-6 -8,-8 -14,-11z"/>
    <path class="fil1" d="M446 1019c-4,4 -5,15 -5,26 10,2 27,-2 40,-5 14,-3 23,-5 27,-12 2,-3 2,-7 2,-11l-21 -1c-7,0 -15,0 -23,-1 -8,-1 -16,-1 -20,4z"/>
   </g>
   <path class="fil2" d="M325 1040c-3,2 -7,5 -12,7 -5,1 -12,1 -18,2 -6,2 -12,4 -13,5 -1,2 2,2 4,3 3,2 5,3 7,3 3,1 7,0 9,0 3,1 4,4 7,5 3,1 8,0 12,1 4,0 7,2 11,2 3,0 7,-2 12,-1 5,1 12,4 18,5 5,1 9,1 12,1 4,0 8,2 12,2 4,0 8,-2 12,-1 4,0 8,4 13,4 5,1 11,-2 16,-3 5,-1 9,0 16,0 8,-1 19,-1 30,-1 11,0 21,1 25,1 5,0 4,-2 5,-3 1,-1 5,-1 10,-1 5,1 11,1 15,0 3,0 3,-2 7,-3 3,-2 9,-3 18,-4 8,-1 19,-1 25,-2 6,-1 7,-3 5,-5 -3,-1 -8,-3 -14,-5 -6,-1 -12,-1 -15,-3 -3,-1 -4,-3 -9,-6 -4,-2 -13,-6 -19,-7 -7,-1 -11,0 -15,1 -4,2 -8,3 -12,1 -4,-1 -8,-6 -12,-7 -4,0 -7,3 -14,4 -6,1 -14,0 -20,-2 -6,-2 -10,-6 -15,-7 -5,-2 -11,-1 -18,1 -7,2 -15,4 -21,4 -3,0 -5,0 -8,-1 -2,0 -5,-1 -7,-1 -5,-1 -10,0 -14,1 -4,1 -7,3 -11,3 -3,1 -7,0 -10,2 -2,1 -2,4 -4,4 -3,0 -8,-2 -12,-2 -3,0 -5,1 -8,3z"/>
   <path class="fil3" d="M396 1055c-4,1 -7,2 -11,2 -4,1 -7,1 -11,3 -7,2 -14,7 -21,13 2,0 4,0 6,0 3,0 7,-1 12,0 5,0 12,3 18,5 5,1 9,0 12,1 4,0 8,2 12,2 4,-1 8,-3 12,-2 4,1 9,4 14,5 5,0 10,-2 15,-3 5,-1 9,-1 16,-1 8,0 19,-1 30,0 11,0 21,1 25,1 5,-1 4,-3 5,-3 1,-1 5,-1 10,-1 1,-2 3,-4 2,-6 -2,-1 -6,-3 -9,-5 -2,-1 -2,-2 -5,-3 -4,-1 -11,-2 -15,-1 -4,0 -5,2 -8,1 -3,-1 -8,-4 -13,-6 -4,-2 -9,-2 -14,-5 -4,-2 -8,-8 -13,-9 -4,-1 -8,1 -12,1 -3,0 -7,-2 -11,-3 -5,-1 -10,0 -15,1 -5,1 -10,3 -15,5 -5,3 -10,6 -16,8z"/>
   <path class="fil4" d="M360 1035c-3,4 -6,8 -7,11 0,4 3,6 5,8 4,-1 8,-1 11,-2 6,-2 11,-6 16,-8 5,-3 10,-4 15,-5l-8 -7c-3,0 -6,-1 -8,-1 -5,-1 -10,0 -14,1 -4,1 -7,3 -10,3z"/>
   <path class="fil0" d="M725 984c-4,0 -6,0 -10,0 -4,1 -8,2 -12,3 -4,1 -8,3 -13,3 -5,0 -12,0 -17,1 -5,2 -8,6 -10,12 -1,6 0,14 6,19 7,4 20,6 29,8 8,1 12,3 18,5 7,2 15,4 28,4 12,0 28,-2 36,-5 8,-2 8,-5 7,-9 -1,-4 -4,-9 -10,-13 -6,-3 -16,-5 -23,-10 -7,-4 -12,-11 -16,-14 -5,-4 -9,-4 -13,-4z"/>
   <path class="fil1" d="M731 1014c-1,7 5,16 11,25 13,0 28,-2 36,-5 8,-3 8,-6 7,-10 -1,-3 -3,-8 -9,-12 -7,-3 -16,-5 -24,-10 -9,3 -19,6 -21,12z"/>
   <g>
    <path class="fil5" d="M492 595c-2,11 -7,31 -11,59 -4,27 -6,62 -9,83 -3,22 -7,29 -9,39 -1,9 -1,19 -2,31 -1,13 -5,26 -7,44 -2,17 -2,38 -2,56 1,19 2,35 2,46 -1,10 -4,15 -5,19 -1,3 -1,6 0,11 0,4 1,11 5,12 4,2 12,-2 19,-2 6,0 12,3 17,7 4,3 9,7 14,9 4,1 10,1 12,-2 2,-3 1,-9 1,-13 0,-4 2,-6 4,-10 2,-4 6,-10 5,-15 0,-6 -5,-10 -2,-29 2,-18 11,-51 15,-76 4,-24 3,-41 4,-55 1,-15 4,-27 9,-43 6,-15 14,-34 21,-54 7,-20 13,-43 20,-57 7,-15 14,-21 22,-15 8,6 16,24 24,43 7,19 13,39 18,54 4,15 6,23 6,32 0,9 -3,18 -2,25 0,7 5,13 6,21 0,8 -4,20 -5,32 -1,13 0,28 2,42 1,15 4,30 3,42 -2,12 -7,21 -9,27 -2,6 -1,9 1,12 1,3 2,7 3,12 1,5 2,12 7,16 4,3 11,4 19,2 8,-2 17,-7 24,-8 8,-1 14,2 18,2 4,1 6,-1 6,-5 1,-4 0,-10 1,-13 1,-4 4,-5 5,-8 1,-3 0,-8 -2,-11 -2,-4 -5,-6 -3,-21 2,-15 9,-42 12,-64 2,-22 1,-39 1,-56 -1,-16 0,-32 0,-46 -1,-14 -2,-27 -6,-54 -3,-28 -9,-71 -12,-93 -3,-22 -3,-23 -6,-36 -4,-13 -12,-38 -16,-54 -5,-16 -6,-23 -12,-23 -6,0 -17,7 -32,14 -16,8 -36,17 -59,21 -22,5 -48,6 -65,4 -17,-2 -27,-7 -33,-8 -6,-1 -8,2 -11,9 -3,7 -6,18 -6,25 -1,6 2,8 0,20z"/>
    <path class="fil6" d="M506 848c1,15 0,27 -4,38 -4,10 -9,19 -11,31 -2,11 0,24 1,34 0,10 0,16 -5,19 -5,2 -14,0 -20,2 -6,2 -8,8 -11,14 3,-1 7,-2 10,-2 6,0 12,3 17,7 4,3 9,7 14,9 4,1 10,1 12,-2 2,-3 1,-9 1,-13 0,-4 2,-6 4,-10 2,-4 6,-10 5,-15 0,-6 -5,-10 -2,-29 2,-18 11,-51 15,-76 4,-24 3,-41 4,-55 0,-8 2,-15 3,-22 -4,-4 -9,-8 -14,-9 -5,-1 -10,1 -15,6 -4,5 -8,12 -8,25 0,14 4,32 4,48z"/>
    <path class="fil6" d="M672 883c1,6 1,12 2,18 2,12 4,25 3,35 -1,10 -6,18 -8,23 -1,5 0,8 1,10 1,3 2,6 3,11 1,4 2,10 5,13 4,3 10,3 16,2 7,-2 15,-6 21,-7 6,-1 12,2 15,2 3,0 5,-1 6,-5 0,-3 0,-8 0,-11 1,-3 3,-4 4,-6 1,-3 0,-7 -2,-10 -1,-3 -3,-5 -2,-17 2,-13 8,-36 10,-54 2,-19 1,-34 1,-47 0,-9 0,-17 0,-24 -8,3 -15,6 -21,6 -5,1 -8,-2 -11,2 -3,3 -6,11 -13,22 -7,11 -18,24 -30,37zm26 83c0,-3 9,-9 15,-13 7,-3 10,-4 12,-2 3,2 4,6 2,8 -1,3 -6,4 -12,6 -7,2 -17,3 -17,1z"/>
   </g>
   <path class="fil7" d="M468 441c2,13 3,34 4,44 0,10 0,10 6,11 5,2 16,4 20,8 4,4 2,10 -1,14 -2,5 -4,10 -3,14 1,4 5,7 13,11 7,4 18,9 33,11 14,3 33,3 53,-1 21,-3 44,-10 60,-15 16,-5 25,-9 32,-12 7,-2 12,-5 14,-8 2,-3 1,-7 1,-11 1,-4 2,-7 1,-14 -1,-6 -6,-14 -8,-30 -1,-15 -1,-37 2,-56 2,-19 6,-34 9,-42 4,-8 7,-8 13,-6 7,3 17,7 23,9 7,1 10,-2 16,-8 6,-5 15,-15 21,-26 6,-12 8,-25 9,-33 1,-8 1,-11 -5,-15 -6,-4 -17,-8 -25,-12 -9,-3 -14,-6 -20,-10 -6,-4 -13,-10 -20,-15 -7,-5 -15,-9 -27,-10 -12,-1 -28,2 -40,4 -12,2 -20,3 -37,8 -18,4 -44,13 -64,23 -20,10 -32,21 -44,34 -12,13 -23,29 -31,41 -7,11 -12,19 -14,29 -1,10 1,22 3,32 2,10 5,17 6,31z"/>
   <path class="fil8" d="M533 494c-2,2 -5,5 -10,7l14 60c9,0 18,-1 27,-3 10,-2 20,-4 30,-7 -2,-6 -5,-13 -3,-26 2,-13 9,-32 5,-38 -4,-6 -18,1 -17,-2 1,-3 17,-16 26,-28 8,-12 9,-23 0,-20 -9,2 -27,18 -38,27 -10,8 -13,9 -18,4 -6,-5 -14,-17 -23,-29 0,3 -1,6 -1,10 1,8 4,20 7,28 3,8 4,12 1,17z"/>
   <g>
    <path class="fil9" d="M504 827c-21,28 -47,62 -61,81 -14,19 -16,22 -13,25 0,0 0,0 0,0 1,0 1,0 1,0 4,2 10,6 13,8 1,1 2,1 2,1 3,2 3,2 3,1 0,0 0,0 26,-37 27,-37 79,-110 140,-193 61,-83 129,-176 165,-225 35,-49 39,-54 37,-58 -2,-3 -9,-5 -13,-6 -4,0 -5,0 -46,54 -40,55 -120,165 -168,231 -48,66 -64,89 -86,118z"/>
    <g>
     <path class="fil10" d="M446 937l-41 45c2,2 0,5 -2,7 1,1 2,1 1,3l7 12c1,-1 3,-2 3,-4 0,-2 -1,-4 3,-11 4,-7 12,-18 18,-26 6,-7 9,-11 11,-15 2,-3 2,-6 3,-7 0,-1 0,-2 0,-2 -1,0 -1,-1 -2,-1 0,0 -1,0 -1,-1z"/>
     <path class="fil11" d="M421 937c-6,8 -15,22 -20,30 -6,8 -6,9 -9,10 6,2 12,3 13,5l41 -44c-4,-2 -11,-5 -13,-8 -4,-2 -7,0 -12,7z"/>
     <path class="fil12" d="M392 977c-3,1 -7,2 -10,5 8,3 15,5 19,7 2,0 3,1 4,1 2,-3 4,-6 2,-8 -2,-2 -8,-3 -15,-5z"/>
     <path class="fil13" d="M382 982c-3,3 -4,8 -6,10 0,4 0,9 1,12 1,3 3,5 6,7 4,1 9,3 12,3 3,0 4,-1 4,-4 1,-2 1,-5 2,-9 1,-4 3,-8 3,-10 1,-1 0,-1 -1,-2 -1,0 -2,-1 -3,-1 -4,-1 -11,-4 -18,-6z"/>
     <path class="fil14" d="M338 992c3,7 9,18 17,30 8,12 18,23 23,29 5,6 5,6 19,9 14,4 42,11 60,14 17,3 25,3 27,1 3,-1 0,-4 -7,-10 -7,-6 -19,-16 -31,-26 -11,-11 -23,-22 -29,-28 -6,-6 -6,-8 -6,-9l-7 -12c0,2 -2,6 -3,9 -1,4 -1,7 -2,9 0,3 -1,4 -4,4 -3,0 -8,-2 -11,-3 -3,-2 -6,-4 -7,-7 -1,-3 0,-7 0,-12 -2,2 -5,1 -12,0 -6,-1 -17,-4 -23,-4 -6,-1 -7,0 -4,6z"/>
     <path class="fil15" d="M414 1030c-7,2 -14,6 -17,12 -3,5 -2,11 -1,17 14,4 42,11 59,14 18,3 25,2 28,1 2,-1 -1,-4 -8,-10 -7,-6 -18,-16 -30,-26 -3,-3 -5,-5 -8,-8 -8,-1 -16,-2 -23,0z"/>
     <path class="fil16" d="M407 998c-1,1 -2,4 -1,7 0,3 2,6 14,17 12,12 34,32 47,42 12,11 15,10 16,10 1,0 1,0 1,-1 0,0 0,-1 -11,-11 -10,-10 -31,-29 -43,-40 -12,-12 -16,-16 -18,-20 -2,-3 -3,-5 -5,-4z"/>
    </g>
    <path class="fil17" d="M502 831c-22,29 -48,63 -62,82 -14,18 -15,21 -12,25 0,0 0,0 0,0 0,0 0,0 0,0 2,1 5,2 7,3 125,-170 249,-340 312,-424 63,-85 65,-84 66,-83l1 1c-2,-4 -9,-5 -13,-6 -4,-1 -5,-1 -45,54 -41,55 -121,164 -169,230 -48,67 -64,89 -85,118z"/>
   </g>
   <path class="fil18" d="M545 612c8,12 17,26 23,37 6,11 9,17 10,22 2,5 2,8 0,15 -1,6 -4,17 -5,22 -2,5 -2,5 -1,6 1,1 3,3 4,5 2,1 3,4 6,2 2,-2 6,-9 8,-12 2,-3 2,-3 4,0l10 14c3,4 5,6 7,6 1,1 4,0 5,-2 2,-1 3,-2 3,-6 0,-3 -1,-8 -3,-13 -2,-4 -6,-9 -7,-12 -1,-2 1,-4 3,-8 2,-3 5,-8 7,-13 3,-4 6,-7 5,-10 0,-3 -3,-5 -6,-7 -2,-2 -5,-2 -10,-14 -5,-12 -13,-34 -18,-51 -6,-17 -8,-28 -12,-37 -4,-9 -8,-16 -11,-22 -2,-6 -2,-10 -3,-18 -2,-8 -4,-18 -6,-23 -1,-6 -3,-5 -6,-3 -4,2 -11,6 -18,9 -7,2 -14,2 -21,2 -6,0 -12,0 -14,1 -3,0 -2,2 1,7 2,6 7,15 11,24 3,9 5,16 8,24 3,8 6,16 10,25 4,8 9,18 16,30z"/>
   <path class="fil19" d="M500 501c-2,0 -2,2 1,7 1,2 3,5 4,8l38 -21c-2,1 -5,2 -7,3 -7,2 -14,2 -21,2 -7,0 -12,0 -15,1z"/>
   <path class="fil20" d="M563 555c0,9 2,21 5,31 3,10 6,18 10,28 4,9 9,21 12,29 4,9 6,14 9,17 2,3 4,3 6,5 2,1 4,3 6,6 1,4 2,8 2,12 2,-2 3,-5 4,-7 3,-4 6,-7 5,-10 0,-3 -3,-5 -6,-7 -2,-2 -5,-3 -10,-14 -5,-12 -13,-35 -18,-51 -6,-17 -8,-28 -12,-37 -4,-9 -8,-16 -11,-22 -1,5 -3,11 -2,20z"/>
   <path class="fil21" d="M604 726c-3,2 -6,7 -6,9 -1,2 2,3 5,3 2,-1 5,-3 8,-4 2,-2 4,-3 6,-5 2,-1 4,-3 6,-5 2,-1 4,-3 4,-4 0,-2 0,-3 0,-5 1,-1 3,-3 5,-5 1,-1 2,-3 3,-5 2,-1 4,-3 4,-6 1,-3 1,-6 0,-10 -2,-3 -3,-5 -5,-7 -2,-1 -4,0 -5,1 -1,1 -1,2 -1,2 -1,0 -2,0 -4,0 -1,-1 -2,0 -4,1 -1,1 -3,1 -4,2 0,1 0,2 0,2 -1,1 -1,1 -3,3 -1,2 -2,4 -2,7 0,2 1,4 2,6 1,2 2,4 2,6 1,2 1,5 0,7 0,2 -1,4 -3,5 -2,1 -5,0 -8,2z"/>
   <path class="fil22" d="M465 406c2,10 5,17 6,31 2,13 3,33 4,44 0,10 0,10 6,11 5,1 15,4 20,8 15,0 30,-1 41,-3 12,-3 20,-8 23,-12 3,-5 2,-9 -1,-17 -3,-8 -6,-20 -7,-28 0,-7 3,-11 2,-20 -2,-9 -7,-23 -11,-31 -4,-7 -6,-7 -10,-7 -4,1 -10,2 -13,-1 -3,-2 -4,-9 -7,-13 -4,-3 -11,-5 -16,-5 -5,-1 -8,-1 -6,-6 1,-4 7,-14 8,-21 1,-8 -3,-14 -4,-18 -1,-4 1,-7 2,-9 -10,12 -19,26 -26,36 -7,11 -12,19 -14,29 -1,10 1,22 3,32z"/>
   <path class="fil8" d="M734 361c-8,0 -17,-3 -22,-3 -5,0 -7,2 -8,5 -2,2 -3,5 -2,1 0,-5 1,-17 0,-38 -1,-20 -4,-48 -5,-62 -1,-13 0,-12 4,1 4,12 10,36 14,45 4,10 7,4 8,-1 2,-4 3,-7 5,-6 3,1 6,6 7,14 1,8 0,19 0,23 0,5 3,4 6,6 4,2 9,7 8,10 -1,4 -8,5 -15,5z"/>
   <path class="fil18" d="M555 312c3,10 8,18 17,24 8,6 21,10 30,12 9,2 15,1 20,-2 5,-3 10,-8 14,-16 4,-9 7,-20 7,-31 0,-10 -3,-19 -8,-27 -5,-8 -11,-15 -17,-23 -18,5 -44,14 -64,24 -2,1 -5,2 -7,4 2,12 4,25 8,35z"/>
   <path class="fil19" d="M617 252c-13,4 -33,11 -49,18 7,13 14,27 24,37 10,10 23,18 32,18 8,1 11,-6 14,-14 2,-4 3,-9 3,-14 0,-9 -4,-17 -8,-24 -5,-7 -10,-14 -16,-21z"/>
   <path class="fil18" d="M780 319c-1,4 -2,8 -5,13 -2,6 -6,12 -9,17 -3,4 -5,6 -4,8 1,2 5,3 6,10 1,7 -1,20 -2,31 -2,12 -2,22 -3,31 -1,10 -2,17 -6,23 -3,6 -9,10 -12,12 -4,3 -6,4 -7,9 -1,4 0,13 1,18 1,5 3,7 4,7 1,1 2,1 4,-2 3,-4 6,-10 8,-13 2,-3 4,-1 5,1 1,3 2,6 2,10 0,4 0,10 0,13 -1,3 -2,4 1,5 2,1 7,2 14,-2 7,-3 15,-12 20,-18 4,-7 6,-11 5,-19 -2,-7 -6,-18 -7,-27 0,-10 3,-19 7,-31 4,-12 9,-27 11,-39 3,-12 4,-20 5,-26 1,-7 2,-11 1,-15 0,-3 -2,-5 -9,-9 -6,-5 -17,-11 -23,-13 -6,-2 -6,2 -7,6z"/>
   <path class="fil20" d="M768 346c-3,4 -4,6 -3,8 1,3 4,4 5,12 1,8 -1,21 -2,34 0,3 -1,7 -1,11 6,-8 12,-16 16,-26 5,-11 9,-23 8,-32 -1,-10 -7,-17 -12,-25 -3,6 -7,13 -11,18z"/>
   <path class="fil18" d="M527 210c3,11 7,23 11,35 5,12 9,23 14,31 6,7 12,11 18,16 5,5 10,10 16,12 5,2 11,0 17,-5 6,-4 13,-11 17,-18 5,-7 8,-14 10,-21 2,-6 2,-13 3,-16 1,-3 3,-2 5,-2 2,0 5,0 7,-5 3,-4 4,-13 4,-20 0,-7 -3,-12 -5,-15 -2,-2 -4,-2 -6,-1 -1,2 -3,4 -7,2 -5,-2 -13,-10 -20,-18 -7,-8 -13,-17 -23,-19 -9,-2 -21,2 -32,7 -12,4 -23,8 -28,14 -5,6 -4,13 -1,23z"/>
   <path class="fil23" d="M506 187c4,-11 10,-27 18,-38 7,-11 16,-18 24,-21 7,-4 14,-4 18,-3 4,1 5,3 9,2 3,-2 9,-6 16,-5 8,1 19,7 28,13 10,6 19,13 24,18 6,5 8,7 8,8 0,2 -2,2 -2,6 0,4 2,12 3,16 1,3 0,3 0,6 0,2 0,7 -2,9 -3,3 -7,4 -10,5 -3,1 -5,3 -6,6 -1,3 -1,6 -2,9 -1,3 -3,6 -6,3 -3,-3 -7,-11 -10,-16 -4,-4 -7,-4 -8,-2 -1,2 -1,6 -3,7 -2,1 -7,0 -11,-2 -4,-2 -7,-4 -8,-3 0,1 2,5 1,6 -1,2 -5,1 -7,-4 -2,-5 -2,-14 -3,-18 -2,-5 -4,-5 -11,-3 -6,1 -17,4 -22,7 -6,3 -6,5 -5,11 1,6 3,16 4,20 0,5 -1,5 -4,3 -2,-1 -5,-4 -6,-3 -1,2 0,8 1,13 1,5 1,9 -2,7 -4,-2 -12,-10 -17,-15 -5,-5 -8,-7 -9,-6 -1,0 -1,3 -2,2 -1,-1 -2,-6 -2,-12 -1,-6 1,-14 4,-26z"/>
  </g>
 </g>
</svg>
