<?xml version="1.0" encoding="UTF-8"?>
<!DOCTYPE svg PUBLIC "-//W3C//DTD SVG 1.1//EN" "http://www.w3.org/Graphics/SVG/1.1/DTD/svg11.dtd">
<!-- Creator: CorelDRAW X7 -->
<svg xmlns="http://www.w3.org/2000/svg" xml:space="preserve" width="12mm" height="12mm" version="1.1" style="shape-rendering:geometricPrecision; text-rendering:geometricPrecision; image-rendering:optimizeQuality; fill-rule:evenodd; clip-rule:evenodd"
viewBox="0 0 1200 1200"
 xmlns:xlink="http://www.w3.org/1999/xlink">
 <defs>
  <style type="text/css">
   <![CDATA[
    .str0 {stroke:#CCCCCC;stroke-width:5}
    .fil7 {fill:#040300}
    .fil4 {fill:#050400}
    .fil1 {fill:#09070C}
    .fil46 {fill:#148334}
    .fil15 {fill:#317A1E}
    .fil31 {fill:#368728}
    .fil8 {fill:#4DAB21}
    .fil2 {fill:#5A5A5A}
    .fil11 {fill:#69A132}
    .fil16 {fill:#6DAB30}
    .fil13 {fill:#73A528}
    .fil5 {fill:#82B431}
    .fil12 {fill:#A3C936}
    .fil14 {fill:#A6C82C}
    .fil9 {fill:#A6CA36}
    .fil18 {fill:#ABA8A8}
    .fil20 {fill:#B91410}
    .fil10 {fill:#BDDD72}
    .fil3 {fill:#BE893B}
    .fil32 {fill:#C62C22}
    .fil17 {fill:#CAC9C7}
    .fil34 {fill:#CE8A37}
    .fil35 {fill:#D17824}
    .fil21 {fill:#D38449}
    .fil33 {fill:#D3A16C}
    .fil37 {fill:#D4BC8C}
    .fil42 {fill:#D7705D}
    .fil44 {fill:#D81415}
    .fil40 {fill:#DEDDD9}
    .fil29 {fill:#DEDEDE}
    .fil39 {fill:#DFDEDA}
    .fil19 {fill:#E0592C}
    .fil38 {fill:#E4A04B}
    .fil24 {fill:#E6944A}
    .fil27 {fill:#E7D2B7}
    .fil26 {fill:#E8561D}
    .fil36 {fill:#E9BD7C}
    .fil6 {fill:#E9DFBB}
    .fil22 {fill:#F0782A}
    .fil30 {fill:#F0D154}
    .fil25 {fill:#F17535}
    .fil45 {fill:#F2C812}
    .fil41 {fill:#F2EFEF}
    .fil23 {fill:#F6DEC4}
    .fil0 {fill:#FBF9FA}
    .fil28 {fill:url(#id0)}
    .fil43 {fill:url(#id1)}
   ]]>
  </style>
  <linearGradient id="id0" gradientUnits="userSpaceOnUse" x1="965.22" y1="703.32" x2="993.16" y2="703.32">
   <stop offset="0" style="stop-opacity:1; stop-color:#E85D24"/>
   <stop offset="0.25098" style="stop-opacity:1; stop-color:#E77837"/>
   <stop offset="1" style="stop-opacity:1; stop-color:#E6944A"/>
  </linearGradient>
  <linearGradient id="id1" gradientUnits="userSpaceOnUse" x1="446.62" y1="602.65" x2="245.2" y2="844.36">
   <stop offset="0" style="stop-opacity:1; stop-color:#AD2B2B"/>
   <stop offset="1" style="stop-opacity:1; stop-color:#C62C22"/>
  </linearGradient>
 </defs>
 <g id="Layer_x0020_1">
  <metadata id="CorelCorpID_0Corel-Layer"/>
  <g id="_1683393181200">
   <path class="fil0 str0" d="M133 492c1,33 3,58 1,77 -1,19 -6,31 -6,45 0,13 6,27 9,44 2,16 2,35 1,50 0,16 0,29 -1,43 -1,13 -3,27 -4,38 0,11 1,19 0,29 -2,10 -5,22 -8,35 -3,14 -5,28 -5,41 -1,12 1,21 0,32 -1,12 -4,25 6,30 11,5 34,3 58,0 -2,-12 -3,-40 -5,-106 -1,-55 -2,-136 -3,-220 -1,-26 -1,-53 -1,-79 0,-13 0,-26 0,-39 0,-52 0,-100 1,-137 1,-26 1,-46 2,-63 4,-57 10,-59 13,-59 -25,1 -51,2 -63,3 -12,2 -11,5 -10,13 1,9 3,24 4,39 0,15 0,30 2,42 2,11 5,18 6,43 2,24 2,66 3,99z"/>
   <path class="fil0 str0" d="M177 374c-3,119 0,354 3,470 3,117 5,114 14,114 8,-1 24,0 41,-6 18,-6 36,-20 53,-23 16,-4 29,2 97,3 68,1 190,-3 284,-5 93,-2 158,-2 196,-2 38,0 50,0 70,6 20,7 50,19 68,25 18,7 25,7 28,-17 2,-23 -1,-70 -4,-137 -3,-66 -7,-152 -7,-235 0,-84 3,-165 6,-217 2,-53 4,-75 -7,-82 -11,-7 -37,2 -69,11 -33,8 -74,15 -160,17 -85,3 -216,-1 -305,-2 -88,-1 -135,0 -166,0 -30,-1 -43,-3 -58,-9 -15,-6 -30,-17 -41,-23 -11,-6 -18,-8 -21,-9 -3,-1 -3,-1 -7,0 -4,1 -13,3 -15,121z"/>
   <path class="fil1" d="M497 783c19,19 44,38 80,53 36,16 83,28 125,37 43,9 81,14 124,14 42,-1 90,-8 123,-14 33,-7 52,-12 62,-16 9,-3 10,-6 10,-65 0,-60 -1,-178 -4,-238 -2,-60 -7,-62 -10,-64 -4,-1 -5,-1 -14,-4 -8,-4 -23,-10 -42,-15 -19,-5 -41,-9 -64,-11 -22,-3 -45,-4 -68,-4 -24,0 -47,1 -75,3 -27,2 -58,6 -90,14 -33,7 -67,20 -97,35 -29,15 -53,34 -70,49 -16,16 -25,29 -31,44 -6,15 -10,32 -10,54 0,21 4,47 12,69 8,22 20,41 39,59z"/>
   <path class="fil2" d="M506 781c19,18 44,36 79,51 36,15 82,27 124,36 41,8 79,14 121,13 43,-1 90,-8 122,-14 33,-6 51,-11 61,-15 9,-3 11,-5 11,-63 0,-58 -2,-172 -4,-230 -3,-59 -8,-61 -11,-62 -3,-2 -5,-2 -13,-5 -9,-3 -24,-9 -42,-14 -19,-5 -41,-9 -63,-11 -22,-3 -44,-4 -67,-4 -23,0 -47,1 -74,3 -27,3 -57,6 -89,13 -32,8 -66,20 -95,35 -29,15 -53,32 -69,48 -16,15 -25,27 -31,42 -6,14 -9,31 -9,52 0,21 3,46 11,67 8,22 20,40 38,58z"/>
   <g>
    <path class="fil1" d="M458 656c8,17 16,33 23,45 10,19 18,29 29,39 12,11 27,22 47,31 20,9 44,16 65,21 21,4 40,7 56,8 15,2 27,4 30,7 3,2 -3,7 -11,10 -7,3 -16,5 -19,12 33,4 67,8 101,10 34,1 68,0 99,-4 14,-2 27,-4 40,-7 15,-3 29,-7 42,-11 4,-1 8,-2 11,-3 19,-6 35,-12 51,-18 0,-3 0,-6 0,-9 0,-58 -1,-171 -4,-229 -3,-58 -7,-61 -11,-62 -3,-2 -4,-2 -13,-5 -5,-2 -12,-5 -21,-8 -43,2 -85,4 -112,2 -28,-1 -41,-6 -49,-9 -9,-4 -13,-6 -17,-6 -4,-1 -6,0 -10,2 -3,1 -8,2 -11,5 -3,2 -6,6 -9,7 -2,0 -6,-1 -9,0 -2,0 -4,4 -6,5 -2,1 -5,-1 -9,-3 -3,-2 -7,-4 -11,-5 -4,0 -8,0 -10,2 -3,3 -5,7 -7,8 -2,1 -4,-1 -6,-1 -3,0 -7,1 -10,3 -3,2 -6,4 -9,4 -2,-1 -4,-3 -7,-4 -3,-1 -6,-1 -8,1 -2,2 -3,5 -7,5 -3,1 -9,-2 -14,-1 -5,0 -9,3 -13,4 -4,0 -8,-1 -12,-2 -3,0 -5,0 -8,3 -3,3 -7,9 -11,11 -3,2 -7,2 -10,2 -3,1 -6,2 -8,5 -3,2 -5,6 -8,6 -2,1 -5,-2 -8,-1 -2,0 -4,3 -6,4 -2,2 -3,2 -6,3 -3,1 -8,3 -11,6 -3,3 -5,7 -7,10 -3,2 -7,3 -12,4 -5,0 -10,0 -13,2 -3,1 -3,4 -2,6 2,3 5,4 5,5 0,2 -3,2 -5,5 -2,2 -4,6 -8,9 -3,2 -9,3 -13,4 -4,2 -6,5 -8,9 -1,4 -1,9 -4,14 -4,5 -10,9 -15,17 -5,8 -8,20 -11,32zm220 82c-6,-7 -8,-15 -8,-22 -1,-6 1,-12 4,-18 4,-6 10,-12 18,-16 7,-5 17,-8 28,-10 10,-2 20,-2 31,1 10,2 20,7 27,13 7,6 10,14 11,23 1,8 -1,16 -7,24 -6,8 -17,16 -30,20 -14,4 -30,5 -44,2 -13,-3 -24,-10 -30,-17zm173 46c-2,-7 -3,-13 -3,-19 0,-6 0,-11 2,-14 2,-3 5,-3 8,-5 2,-2 4,-6 8,-9 5,-3 11,-5 16,-5 4,-6 8,-12 12,-16 4,-3 8,-4 12,-6 3,-2 5,-4 8,-5 3,-1 7,-2 9,-3 3,0 4,-2 7,-2 3,0 6,1 10,4 3,2 5,6 7,10 1,5 1,10 2,15 1,4 4,7 7,9 3,2 6,2 10,2 0,-3 0,-5 -1,-9 -1,-4 -2,-10 -4,-15 -1,-5 -3,-11 -3,-16 -2,-10 -2,-20 0,-25 1,-6 3,-7 5,-7 2,-1 5,0 8,5 3,4 7,12 11,20 1,3 2,5 3,8 2,6 4,12 5,17 2,7 2,10 6,14 4,3 12,7 15,11 4,4 4,8 3,15 -1,7 -4,16 -10,25 -3,5 -6,10 -10,14 -5,-8 -10,-15 -17,-21 -7,-5 -16,-8 -24,-11 -3,3 -5,5 -8,7 -3,2 -6,4 -9,5 -5,3 -11,5 -14,5 -2,0 -4,0 -5,-1 -2,0 -3,-1 -5,-2 -2,-1 -6,-3 -7,-6 -2,0 -4,1 -6,1 -6,3 -13,6 -20,9 -7,4 -15,9 -22,13 -1,-1 -2,-3 -3,-4 -1,-3 -2,-5 -3,-8zm163 -232c-9,-4 -18,-7 -22,-11 -4,-5 -3,-10 -2,-15 0,0 3,-4 6,-7 2,-3 4,-4 7,-4 2,-1 4,-1 6,2 1,4 2,11 4,22 0,4 0,8 1,13zm-235 82c-4,-2 -2,-5 3,-8 5,-4 13,-7 18,-10 2,-1 3,-2 5,-4 1,-1 2,-2 3,-4 1,-4 2,-8 5,-12 3,-3 7,-5 11,-8 4,-3 8,-6 10,-10 3,-4 5,-8 8,-11 3,-3 7,-5 10,-7 2,-2 3,-5 4,-11 1,-3 2,-7 3,-11 2,7 5,13 8,17 3,4 6,7 10,7 5,1 11,0 15,1 3,1 4,3 8,5 3,2 8,3 13,6 3,-4 7,-9 10,-12 4,-3 8,-4 13,-1 6,3 13,10 18,16 5,7 7,12 9,17 -8,3 -20,7 -30,13 -3,1 -6,3 -8,5 -3,2 -6,4 -9,6 -7,6 -13,14 -17,21 -6,9 -9,19 -12,25 -2,6 -5,10 -13,10 -5,0 -11,0 -17,-1 -5,-1 -11,-3 -16,-4 -12,-3 -21,-8 -27,-12 -3,-3 -6,-5 -8,-8 -3,-2 -5,-5 -8,-7 -7,-4 -16,-6 -19,-8z"/>
    <path class="fil3" d="M458 660c8,17 16,33 23,46 10,18 18,28 29,39 12,10 27,21 47,30 20,9 44,16 65,21 21,5 40,7 56,9 15,2 27,3 30,6 3,3 -3,7 -11,10 -7,3 -16,5 -19,13 33,4 67,8 101,9 34,2 68,1 99,-3 14,-2 27,-5 40,-7 15,-4 29,-8 42,-12 4,-1 8,-2 11,-3 19,-6 35,-12 51,-18 0,-2 0,-6 0,-9 0,-57 -1,-171 -4,-229 -3,-58 -7,-61 -11,-62 -3,-1 -4,-1 -13,-4 -5,-2 -12,-5 -21,-8 -43,2 -85,3 -112,2 -28,-2 -41,-6 -49,-10 -9,-3 -13,-5 -17,-6 -4,0 -6,1 -10,2 -3,1 -8,2 -11,5 -3,2 -6,6 -9,7 -2,1 -6,-1 -9,0 -2,1 -4,5 -6,5 -2,1 -5,-1 -9,-3 -3,-2 -7,-4 -11,-4 -4,-1 -8,-1 -10,2 -3,2 -5,6 -7,7 -2,2 -4,0 -6,0 -3,-1 -7,1 -10,2 -3,2 -6,4 -9,4 -2,0 -4,-3 -7,-4 -3,-1 -6,0 -8,1 -2,2 -3,5 -7,6 -3,0 -9,-2 -14,-2 -5,0 -9,4 -13,4 -4,1 -8,-1 -12,-2 -3,0 -5,1 -8,4 -3,3 -7,8 -11,10 -3,3 -7,2 -10,3 -3,0 -6,2 -8,4 -3,3 -5,6 -8,7 -2,0 -5,-2 -8,-2 -2,0 -4,3 -6,5 -2,1 -3,1 -6,2 -3,1 -8,3 -11,6 -3,3 -5,8 -7,10 -3,3 -7,4 -12,4 -5,1 -10,1 -13,2 -3,2 -3,5 -2,7 2,2 5,4 5,5 0,1 -3,2 -5,4 -2,3 -4,7 -8,9 -3,2 -9,3 -13,5 -4,1 -6,4 -8,8 -1,4 -1,10 -4,14 -4,5 -10,9 -15,17 -5,8 -8,20 -11,32zm220 83c-6,-7 -8,-15 -8,-22 -1,-7 1,-13 4,-19 4,-6 10,-12 18,-16 7,-5 17,-8 28,-10 10,-1 20,-1 31,1 10,2 20,7 27,13 7,7 10,15 11,23 1,8 -1,17 -7,24 -6,8 -17,16 -30,20 -14,4 -30,5 -44,2 -13,-3 -24,-9 -30,-16zm173 45c-2,-7 -3,-13 -3,-19 0,-5 0,-11 2,-14 2,-3 5,-3 8,-5 2,-2 4,-6 8,-9 5,-3 11,-5 16,-5 4,-6 8,-12 12,-15 4,-4 8,-5 12,-6 3,-2 5,-4 8,-6 3,-1 7,-1 9,-2 3,-1 4,-2 7,-2 3,0 6,1 10,3 3,2 5,6 7,10 1,5 1,10 2,15 1,4 4,8 7,9 3,2 6,2 10,2 0,-2 0,-5 -1,-9 -1,-4 -2,-9 -4,-15 -1,-5 -3,-10 -3,-15 -2,-11 -2,-20 0,-26 1,-5 3,-7 5,-7 2,0 5,1 8,5 3,4 7,12 11,21 1,2 2,4 3,7 2,6 4,13 5,17 2,7 2,11 6,14 4,4 12,7 15,11 4,4 4,9 3,16 -1,7 -4,16 -10,25 -3,4 -6,9 -10,13 -5,-7 -10,-15 -17,-20 -7,-5 -16,-8 -24,-11 -3,2 -5,5 -8,6 -3,2 -6,4 -9,5 -5,3 -11,5 -14,5 -2,0 -4,0 -5,0 -2,-1 -3,-1 -5,-2 -2,-2 -6,-3 -7,-6 -2,0 -4,0 -6,0 -6,3 -13,6 -20,10 -7,4 -15,8 -22,13 -1,-2 -2,-3 -3,-5 -1,-2 -2,-5 -3,-8zm163 -232c-9,-3 -18,-7 -22,-11 -4,-4 -3,-10 -2,-15 0,0 3,-4 6,-7 2,-2 4,-3 7,-4 2,0 4,-1 6,3 1,3 2,11 4,22 0,4 0,8 1,12zm-235 83c-4,-3 -2,-6 3,-9 5,-3 13,-7 18,-10 2,-1 3,-2 5,-3 1,-2 2,-3 3,-5 1,-3 2,-8 5,-11 3,-4 7,-6 11,-9 4,-2 8,-6 10,-10 3,-4 5,-8 8,-11 3,-3 7,-5 10,-7 2,-2 3,-5 4,-11 1,-3 2,-7 3,-10 2,6 5,12 8,17 3,4 6,6 10,7 5,0 11,-1 15,0 3,1 4,4 8,6 3,1 8,2 13,6 3,-5 7,-10 10,-13 4,-3 8,-4 13,-1 6,3 13,11 18,17 5,6 7,11 9,17 -8,2 -20,7 -30,12 -3,2 -6,3 -8,5 -3,2 -6,4 -9,7 -7,6 -13,13 -17,20 -6,10 -9,19 -12,25 -2,7 -5,10 -13,10 -5,1 -11,0 -17,-1 -5,-1 -11,-2 -16,-4 -12,-3 -21,-7 -27,-12 -3,-2 -6,-5 -8,-7 -3,-3 -5,-6 -8,-8 -7,-3 -16,-5 -19,-7z"/>
   </g>
   <g>
    <path class="fil4" d="M753 671c7,4 12,11 19,18 2,1 5,3 7,4 0,0 0,-1 0,-1 2,-1 5,-2 7,-3 2,-1 2,-3 4,-4 2,-1 5,-1 6,-1 2,0 2,1 3,0 1,-1 3,-2 4,-4 1,-2 2,-3 3,-5 2,-1 5,-1 7,1 3,1 6,4 8,5 3,2 5,1 7,1 2,0 4,0 5,2 1,2 1,6 1,12 -1,5 -3,11 -3,14 0,0 1,0 1,0 1,-1 2,-3 3,-4 3,-4 6,-6 9,-8 3,-2 6,-2 8,-1 2,0 3,2 3,6 -1,2 -1,4 -2,6 2,-1 3,-1 4,-2 1,-2 2,-3 3,-4 1,-1 2,-3 3,-5 3,-8 7,-20 14,-32 7,-12 17,-24 31,-34 15,-10 34,-17 47,-21 13,-5 20,-6 26,-6 6,0 11,1 17,1 6,0 14,0 18,-2 3,-2 3,-6 3,-18 -1,-11 -2,-30 -4,-44 -1,-14 -2,-23 -4,-28 -2,-4 -5,-4 -8,-3 -2,1 -5,2 -8,5 -3,4 -7,9 -7,9 -1,0 1,-6 1,-11 1,-5 0,-10 -3,-12 -2,-2 -7,-1 -10,-2 -3,-1 -5,-5 -8,-8 -3,-3 -5,-6 -10,-6 -5,0 -11,2 -15,5 -5,2 -8,5 -11,4 -2,0 -5,-4 -8,-5 -4,0 -7,2 -11,2 -3,0 -5,-3 -8,-5 -3,-2 -6,-2 -14,1 -8,4 -21,11 -32,18 -11,7 -21,13 -26,22 -6,8 -7,19 -8,26 -2,7 -3,11 -6,14 -4,2 -9,4 -13,8 -3,4 -6,9 -9,14 -3,5 -7,9 -12,13 -4,3 -10,6 -14,10 -3,4 -4,10 -6,14 -1,5 -4,7 -10,11 -5,3 -15,8 -21,12 -6,4 -9,8 -4,11 4,3 15,5 23,10z"/>
    <path class="fil5" d="M757 671c7,5 11,12 19,18 2,1 4,3 6,4 0,0 1,-1 1,-1 1,-2 4,-2 6,-3 2,-1 2,-3 4,-4 2,-1 4,-1 6,-1 2,0 2,1 3,0 1,-1 2,-2 3,-4 1,-1 2,-3 4,-4 2,-1 4,-2 7,0 2,1 5,4 8,6 2,1 4,0 6,0 2,0 4,0 5,2 1,2 1,6 0,11 0,5 -2,11 -2,14 0,0 1,0 1,0 1,-1 2,-3 3,-4 3,-3 6,-6 9,-7 3,-2 5,-2 7,-2 2,1 3,3 3,6 -1,2 -1,4 -2,6 2,0 3,-1 4,-2 1,-2 2,-3 3,-3 1,-2 2,-3 3,-5 3,-8 7,-20 13,-31 7,-12 17,-24 31,-33 14,-10 33,-17 46,-21 12,-5 19,-6 25,-6 5,0 10,1 16,1 6,0 14,0 17,-2 4,-2 4,-6 3,-17 0,-11 -2,-29 -3,-43 -1,-14 -3,-23 -4,-27 -2,-4 -5,-4 -8,-3 -2,1 -5,2 -8,5 -3,3 -6,8 -7,8 -1,0 1,-5 2,-10 0,-5 -1,-10 -3,-12 -3,-2 -7,0 -10,-2 -3,-1 -5,-5 -8,-8 -2,-3 -5,-5 -10,-5 -4,0 -10,2 -15,4 -4,2 -7,5 -10,5 -2,-1 -5,-4 -8,-5 -3,-1 -7,2 -10,2 -3,-1 -5,-3 -8,-5 -3,-2 -6,-2 -14,1 -8,3 -20,10 -31,17 -11,7 -20,13 -25,21 -6,8 -7,19 -8,26 -2,7 -3,10 -6,13 -3,3 -8,4 -12,8 -4,4 -6,9 -9,14 -3,5 -7,9 -11,12 -5,3 -11,6 -14,10 -4,4 -4,10 -6,14 -2,4 -4,7 -10,10 -5,4 -14,8 -20,12 -6,4 -9,7 -5,10 5,3 15,5 23,10z"/>
    <path class="fil6" d="M767 634l15 16 3 3c1,-2 2,-3 3,-4 7,-7 15,-11 22,-12 6,0 12,3 17,7 5,4 8,9 8,13 3,-1 6,-2 9,-2 1,-7 2,-14 6,-19 4,-6 10,-10 16,-14 -2,-3 -4,-6 -6,-8 -4,-4 -8,-8 -12,-10 -4,-2 -8,-3 -13,-2 -4,1 -10,3 -18,4 -8,0 -18,0 -28,0 -5,3 -10,6 -13,9 -3,4 -4,10 -6,14 -1,2 -2,4 -3,5z"/>
    <path class="fil4" d="M766 682c2,3 5,6 9,9 2,1 4,3 6,4 7,4 16,8 26,11 6,2 13,3 19,4 -1,-8 -2,-17 -2,-24 0,-1 0,-1 0,-2 1,-6 2,-10 5,-14 3,-3 7,-5 8,-9 0,-4 -4,-9 -9,-14 -5,-4 -11,-7 -18,-6 -7,0 -15,5 -23,12 -7,8 -14,18 -21,29z"/>
    <path class="fil7" d="M732 662c4,3 16,5 24,10 5,3 8,6 11,10 7,-10 13,-20 20,-28l-3 -4 -18 -17c-2,1 -4,3 -7,4 -6,4 -16,9 -23,13 -6,5 -9,9 -4,12z"/>
    <path class="fil4" d="M855 658c7,2 14,6 20,10 5,-8 12,-17 21,-24 -8,-5 -16,-9 -21,-13 -3,-3 -5,-5 -7,-8 -6,5 -13,9 -17,15 -3,6 -5,13 -6,20 4,0 7,-1 10,0z"/>
    <path class="fil8" d="M734 661c4,3 15,5 22,10 4,2 7,5 10,9 6,-9 12,-19 19,-26l-4 -3 -16 -16c-2,1 -3,3 -6,4 -6,4 -15,8 -21,12 -5,4 -8,8 -4,10z"/>
    <path class="fil9" d="M769 681c2,3 5,6 8,8 2,2 4,3 6,4 6,4 14,7 23,10 6,1 12,3 17,4 -1,-8 -2,-16 -2,-22 0,-1 0,-1 0,-2 1,-5 2,-9 5,-12 2,-3 6,-5 6,-9 1,-3 -3,-8 -8,-12 -4,-4 -10,-6 -16,-6 -6,1 -13,5 -20,11 -7,7 -13,17 -19,26z"/>
    <path class="fil4" d="M823 685c0,7 1,16 3,25 7,1 14,2 19,1 10,0 13,-4 17,-12 3,-7 7,-19 14,-31 -7,-4 -14,-9 -21,-10 -6,-1 -13,0 -19,2 0,4 -5,6 -8,10 -3,3 -4,8 -5,15z"/>
    <path class="fil10" d="M825 684c0,6 1,14 2,22 7,1 13,1 18,1 8,0 11,-4 14,-10 3,-7 6,-17 12,-27 -6,-4 -12,-8 -18,-9 -5,-1 -11,0 -17,2 0,3 -4,5 -6,8 -3,3 -4,7 -5,13z"/>
    <path class="fil11" d="M856 658c6,1 12,5 18,9 5,-8 11,-16 19,-23 -7,-3 -14,-7 -19,-12 -3,-2 -5,-4 -6,-6 -6,4 -12,8 -16,14 -3,5 -4,11 -5,18 3,-1 6,-1 9,0z"/>
    <path class="fil12" d="M882 580c4,2 10,3 16,7 5,5 10,13 12,19 2,6 2,9 3,13 2,3 5,5 8,8 13,-7 26,-12 37,-16 -2,-3 -3,-6 -5,-10 -1,-6 -2,-13 0,-19 2,-5 6,-10 7,-14 1,-4 -1,-6 -4,-8 -3,-2 -7,-3 -9,-6 -1,-3 0,-8 -1,-11 0,-4 -3,-6 -6,-8 -3,-1 -7,-3 -10,-3 -3,-1 -4,0 -6,2 -2,2 -4,4 -6,7 -3,3 -5,6 -9,7 -3,1 -8,0 -11,2 -4,3 -7,8 -10,13 -3,4 -7,9 -11,13 1,1 3,3 5,4z"/>
    <path class="fil4" d="M915 603c2,6 2,9 3,12 2,3 5,6 8,9 13,-7 27,-13 37,-16 -3,-6 -6,-13 -12,-20 -5,-8 -14,-17 -20,-21 -7,-3 -12,-2 -16,1 -4,4 -8,10 -12,16 5,5 10,13 12,19z"/>
    <path class="fil13" d="M916 602c2,6 2,9 3,12 2,3 5,5 8,8 11,-7 24,-12 34,-15 -3,-6 -6,-12 -11,-19 -5,-7 -13,-15 -19,-19 -6,-3 -11,-2 -15,1 -4,4 -7,9 -11,15 5,4 9,12 11,17z"/>
    <path class="fil4" d="M850 578c6,1 14,0 18,1 2,0 4,1 5,3 4,-5 8,-10 12,-15 3,-5 6,-10 10,-12 4,-3 9,-2 12,-3 4,-1 7,-4 9,-7 2,-3 4,-6 6,-8 2,-1 4,-2 7,-2 3,0 7,2 11,4 1,1 3,2 4,3 2,-3 3,-6 4,-12 1,-5 1,-12 -2,-17 -2,-5 -6,-8 -10,-11 -7,5 -13,10 -17,15 -4,6 -6,12 -9,16 -2,4 -6,6 -11,9 -4,2 -10,5 -13,4 -2,-1 -2,-6 -4,-8 -2,-2 -7,-2 -12,0 -5,2 -10,7 -15,5 -4,-3 -7,-12 -10,-22 -5,4 -9,8 -13,13 -2,4 -4,8 -5,13 3,8 7,16 10,22 4,5 8,8 13,9z"/>
    <path class="fil14" d="M882 537c2,2 2,6 4,7 3,1 8,-1 13,-4 4,-2 7,-4 10,-8 3,-4 4,-9 9,-15 3,-5 9,-10 15,-14 0,-1 -1,-1 -1,-1 -3,-1 -5,-5 -8,-5 -4,-1 -7,2 -10,1 -3,0 -6,-3 -9,-4 -2,-2 -6,-3 -14,1 -7,3 -19,10 -30,17 -5,3 -10,6 -14,9 3,9 6,18 10,20 4,2 9,-2 14,-4 4,-3 9,-3 11,0z"/>
    <path class="fil15" d="M958 596c2,3 4,7 5,10 13,-4 20,-5 25,-5 3,0 6,0 9,0 0,-3 1,-7 -1,-11 -2,-5 -7,-12 -11,-15 -5,-3 -8,-3 -8,-5 0,-2 2,-6 3,-12 0,-6 -1,-14 -6,-20 -5,-7 -12,-11 -20,-16 -1,5 -2,8 -4,11 1,1 2,3 2,4 1,4 0,9 1,12 1,3 6,4 9,6 3,1 5,4 4,8 -1,4 -6,9 -7,14 -2,6 -1,12 -1,19z"/>
    <path class="fil10" d="M985 529c-1,7 -2,13 3,18 4,6 15,10 25,14 0,-5 0,-11 -1,-15 -1,-14 -2,-23 -4,-27 -2,-4 -5,-4 -7,-3 -3,1 -6,2 -9,5 -3,3 -6,8 -7,8z"/>
    <path class="fil16" d="M851 572c6,1 13,0 17,1 2,1 4,2 5,3 4,-5 8,-9 11,-14 3,-5 6,-10 10,-12 4,-2 8,-2 12,-3 3,-1 6,-4 8,-6 2,-3 4,-6 6,-7 2,-2 4,-3 6,-3 3,1 7,2 10,4 2,1 3,2 4,3 2,-3 4,-6 4,-11 1,-5 1,-12 -2,-17 -2,-4 -5,-7 -9,-10 -6,5 -12,10 -16,15 -4,5 -6,11 -9,14 -2,4 -6,6 -10,9 -4,2 -10,5 -12,4 -3,-1 -3,-6 -5,-8 -2,-2 -6,-2 -11,0 -5,2 -10,7 -14,5 -4,-3 -7,-11 -10,-20 -5,3 -9,7 -11,11 -3,4 -5,9 -6,13 4,8 7,15 10,21 3,5 7,7 12,8z"/>
   </g>
   <g>
    <path class="fil17" d="M840 501c6,8 12,18 15,23 1,2 2,3 2,5 4,-3 9,-6 13,-9 10,-6 21,-13 28,-16 6,-2 10,-2 12,-1 13,-9 22,-17 29,-25 6,-9 9,-19 11,-28 3,-10 6,-19 10,-27 4,-9 9,-16 17,-23 8,-7 17,-15 24,-20 7,-6 11,-8 14,-15 3,-7 4,-18 4,-25 1,-8 1,-12 -1,-12 -2,0 -6,4 -13,11 -8,7 -20,17 -32,28 -12,10 -23,21 -33,30 -9,9 -17,17 -25,21 -8,4 -16,5 -23,6 -8,1 -15,3 -21,6 -5,2 -9,5 -18,12 -10,7 -25,19 -41,30 4,2 6,6 11,10 4,5 11,11 17,19z"/>
    <path class="fil18" d="M822 481c3,2 5,5 8,8l7 -5c6,-5 20,-14 26,-20 6,-5 6,-7 5,-8 0,-1 -2,-1 -9,3 -8,4 -22,13 -37,22z"/>
    <path class="fil18" d="M835 496c2,2 5,5 8,8l6 -5c7,-5 20,-14 27,-20 6,-5 6,-6 5,-8 -1,-1 -2,-1 -10,3 -8,4 -22,13 -36,22z"/>
    <path class="fil18" d="M845 514c3,2 5,5 8,8l7 -5c6,-5 20,-14 26,-20 6,-5 6,-6 5,-7 0,-1 -2,-2 -9,2 -8,4 -22,13 -37,22z"/>
   </g>
   <g>
    <path class="fil1" d="M898 706c8,14 21,30 34,38 12,9 24,9 36,9 12,-1 24,-2 33,-9 9,-6 16,-16 19,-41 3,-24 2,-63 -1,-84 -3,-22 -8,-25 -12,-27 -4,-2 -8,-3 -17,-4 -8,0 -20,-2 -29,-1 -10,1 -17,3 -27,9 -11,6 -25,16 -34,28 -9,13 -14,28 -14,42 -1,13 4,25 12,40z"/>
    <path class="fil19" d="M902 706c8,14 21,30 33,38 12,9 24,9 35,9 12,-1 23,-3 32,-9 9,-6 16,-16 19,-40 3,-24 2,-62 -1,-82 -3,-21 -7,-24 -12,-26 -4,-2 -8,-3 -16,-4 -8,-1 -20,-2 -29,-1 -9,0 -16,3 -26,9 -10,5 -24,15 -33,27 -9,12 -14,27 -14,40 0,14 4,26 12,39z"/>
    <path class="fil20" d="M980 644c4,3 6,4 8,3 2,0 3,-1 5,-1 2,0 4,2 6,6 3,3 6,8 10,13 4,4 9,9 13,14 0,-14 0,-28 -1,-40 -5,-4 -9,-7 -13,-10 -3,-3 -7,-5 -11,-6 -4,-1 -9,-1 -14,0 -6,1 -13,3 -16,4 -3,1 -3,1 0,4 3,3 9,10 13,13z"/>
    <path class="fil20" d="M925 654c-2,5 -5,12 -5,19 0,7 4,13 8,20 4,8 9,16 17,22 8,6 18,9 21,8 4,-1 1,-7 -3,-14 -5,-6 -11,-14 -10,-19 0,-6 6,-11 8,-15 3,-5 1,-10 -2,-13 -2,-3 -7,-3 -12,-5 -5,-3 -11,-7 -14,-8 -4,-1 -6,1 -8,5z"/>
    <path class="fil21" d="M938 680c1,3 4,5 4,7 1,3 -1,6 1,8 3,3 8,4 14,5 -2,-3 -4,-7 -4,-10 0,-6 6,-10 9,-15 -4,-2 -8,-4 -11,-6 -3,-1 -5,-3 -7,-3 -2,0 -3,2 -5,3 -1,4 -2,8 -1,11z"/>
    <path class="fil21" d="M980 641c2,2 4,4 6,5 2,1 4,1 5,1 2,0 3,0 5,0 1,0 2,1 4,2 2,2 4,4 5,6 1,2 2,3 2,2 1,-1 1,-4 0,-8 0,-3 -3,-7 -6,-9 -4,-3 -9,-4 -13,-4 -4,0 -8,1 -9,2 -2,1 -1,2 1,3z"/>
   </g>
   <g>
    <path class="fil1" d="M911 769c2,5 4,7 6,11 1,4 0,9 2,12 1,4 4,6 7,7 2,1 3,2 5,2 1,1 3,1 5,1 4,0 10,-2 16,-5 3,-2 6,-4 9,-6 3,-2 6,-4 8,-7 5,-6 9,-13 12,-19 1,-3 2,-6 2,-9 -4,0 -7,0 -11,-2 -3,-2 -5,-5 -7,-10 -1,-5 -1,-11 -2,-16 -2,-5 -4,-9 -8,-11 -3,-3 -7,-4 -10,-4 -3,0 -5,2 -7,2 -3,1 -7,2 -10,3 -3,1 -5,4 -9,6 -3,2 -7,3 -12,7 -4,3 -8,10 -13,16 5,0 8,3 11,7 2,5 3,11 6,15z"/>
    <path class="fil22" d="M914 768c2,5 4,7 5,10 1,4 1,9 2,12 1,3 5,4 7,6 2,1 3,1 5,2 1,0 2,0 4,0 4,0 9,-2 15,-4 2,-2 5,-4 8,-6 3,-1 5,-4 8,-6 4,-5 8,-12 10,-17 1,-3 2,-6 2,-9 -3,0 -6,0 -9,-2 -3,-1 -6,-5 -7,-9 -1,-5 -1,-10 -2,-15 -2,-4 -4,-8 -7,-10 -3,-3 -7,-4 -10,-3 -2,0 -4,1 -6,2 -3,1 -6,1 -9,2 -3,1 -5,4 -8,5 -4,2 -7,3 -11,7 -4,3 -8,9 -12,15 4,0 7,3 9,7 2,4 4,9 6,13z"/>
    <path class="fil23" d="M924 740c3,2 5,5 8,7 4,2 8,4 12,4 5,1 10,0 14,-1 3,-1 5,-4 7,-6 -1,-4 -1,-10 -2,-14 -2,-5 -4,-8 -7,-11 -4,-2 -7,-3 -10,-3 -2,0 -4,1 -7,2 -2,1 -5,1 -8,3 -3,1 -5,3 -9,5 -3,2 -7,3 -11,6 -2,2 -4,5 -6,8 4,-1 9,-2 12,-2 3,0 5,0 7,2z"/>
   </g>
   <g>
    <path class="fil1" d="M871 821c6,7 14,12 22,16 8,3 16,6 27,7 10,0 23,-2 35,-6 12,-3 23,-9 33,-16 10,-7 19,-17 25,-26 5,-10 8,-20 9,-27 2,-8 2,-13 -2,-17 -4,-4 -12,-8 -16,-12 -4,-4 -4,-8 -5,-15 -2,-7 -5,-17 -9,-26 -4,-10 -8,-18 -11,-22 -4,-5 -6,-6 -8,-6 -2,1 -4,2 -6,8 -1,6 -2,16 0,27 2,12 6,25 8,33 1,9 0,13 -2,19 -2,6 -6,13 -11,18 -5,6 -11,10 -16,13 -6,3 -11,5 -15,5 -4,0 -7,-1 -10,-3 -2,-1 -6,-3 -7,-6 -1,-4 -1,-9 -2,-12 -1,-4 -4,-7 -6,-11 -2,-4 -3,-11 -5,-15 -2,-4 -5,-7 -10,-7 -5,0 -12,2 -16,5 -4,4 -6,8 -9,10 -3,2 -6,3 -8,6 -2,3 -2,9 -2,15 0,6 1,12 4,20 2,8 6,18 13,25z"/>
    <path class="fil24" d="M875 817c6,6 13,11 21,14 8,4 16,6 26,7 10,0 22,-2 34,-5 12,-3 23,-8 32,-15 10,-7 18,-16 24,-25 5,-9 8,-18 9,-25 1,-7 1,-12 -2,-16 -4,-4 -12,-7 -16,-11 -3,-3 -3,-7 -5,-14 -1,-6 -5,-16 -8,-25 -4,-8 -8,-16 -11,-20 -3,-4 -5,-5 -8,-5 -2,0 -4,2 -5,7 -1,6 -2,15 0,26 2,10 5,22 7,30 2,8 1,12 -1,18 -3,5 -6,12 -11,17 -5,5 -10,9 -16,12 -5,2 -11,4 -14,4 -4,1 -6,-1 -9,-2 -3,-1 -6,-3 -7,-6 -2,-3 -1,-8 -2,-11 -1,-4 -4,-6 -6,-10 -2,-4 -3,-10 -5,-14 -2,-4 -5,-7 -10,-7 -5,0 -11,2 -15,5 -4,3 -6,7 -9,9 -2,2 -5,3 -7,5 -2,3 -3,9 -2,15 0,5 1,11 3,19 2,7 7,16 13,23z"/>
    <path class="fil25" d="M897 831c8,4 15,6 26,7 10,0 22,-2 33,-5 12,-4 23,-9 33,-16 4,-3 9,-7 13,-11 -4,-1 -7,-1 -11,1 -4,2 -8,7 -13,10 -5,3 -10,5 -15,7 -5,1 -10,4 -17,5 -7,1 -17,1 -23,0 -5,0 -7,-1 -11,-3 -4,-1 -11,-3 -16,-5 -5,-2 -8,-3 -11,-6 -2,-3 -5,-8 -8,-10 -2,-2 -6,-1 -9,1 2,3 4,7 7,10 6,7 14,12 22,15z"/>
    <path class="fil26" d="M867 801c0,2 1,3 2,5 7,-5 15,-9 22,-13 7,-4 14,-7 20,-10 -2,0 -3,0 -6,1 -5,1 -11,3 -17,6 -7,3 -14,7 -21,11z"/>
    <path class="fil27" d="M860 775c3,0 6,0 9,2 2,2 4,6 7,9 3,3 7,4 11,6 6,-3 12,-6 17,-7 2,0 4,-1 6,-1 2,0 4,0 6,0 -2,-4 -1,-8 -2,-12 -1,-3 -4,-6 -6,-10 -2,-4 -3,-9 -5,-14 -2,-4 -5,-6 -10,-6 -4,0 -11,2 -15,5 -4,3 -6,7 -9,9 -2,2 -5,2 -7,5 -2,3 -2,9 -2,14z"/>
    <path class="fil26" d="M918 812c-2,6 -3,10 -3,13 -1,4 -1,8 -1,11 2,1 4,1 7,2 0,-4 1,-7 2,-11 1,-5 3,-10 4,-16 2,-5 2,-12 3,-18 -1,0 -3,-1 -4,-2 -3,8 -6,16 -8,21z"/>
    <path class="fil28" d="M966 687c-1,5 -1,14 0,25 1,5 2,10 4,15 3,0 6,0 9,-1 3,0 7,-1 9,-3 2,-3 4,-7 5,-11 -1,-2 -2,-5 -3,-7 -3,-9 -8,-16 -11,-21 -3,-4 -5,-5 -7,-5 -2,0 -4,2 -6,8z"/>
    <path class="fil26" d="M956 780c7,1 13,3 19,6 5,2 10,7 13,12 4,4 7,8 10,12 1,-2 3,-3 5,-5 -5,-8 -10,-15 -16,-20 -7,-6 -15,-8 -24,-11 -2,2 -4,4 -7,6z"/>
   </g>
   <g>
    <path class="fil1" d="M619 789c5,8 12,15 25,22 13,6 31,11 44,15 13,4 21,7 30,9 9,2 18,2 28,1 10,-1 21,-5 31,-9 10,-4 20,-8 27,-11 7,-3 13,-5 17,-7 4,-2 7,-5 12,-9 5,-4 13,-9 18,-15 1,-1 3,-3 3,-4 1,-4 1,-8 3,-10 0,-1 0,-1 1,-1 0,-2 0,-4 0,-6 0,-10 -3,-24 -6,-36 -3,-13 -7,-24 -11,-34 -5,-10 -9,-19 -15,-27 -6,-7 -13,-13 -18,-15 -5,-3 -9,-3 -13,-4 -3,-1 -6,-3 -10,-4 -4,0 -9,1 -14,1 -5,0 -10,-1 -19,-1 -9,1 -22,2 -30,3 -8,0 -10,-1 -14,-3 -4,-1 -10,-2 -18,-1 -8,2 -17,6 -25,10 -9,4 -17,7 -25,13 -8,6 -17,14 -22,20 -5,6 -7,10 -10,15 -3,6 -6,14 -7,22 -1,8 0,15 1,23 2,7 4,14 6,22 3,7 6,14 11,21z"/>
    <path class="fil29" d="M623 788c5,7 12,14 24,20 12,6 30,11 43,15 12,3 20,7 28,8 9,2 18,3 27,2 10,-1 21,-5 30,-9 10,-4 19,-8 26,-11 8,-3 13,-4 17,-6 4,-2 6,-5 11,-9 5,-4 13,-9 18,-14 1,-2 2,-3 3,-4 0,-4 1,-8 2,-10 0,0 1,-1 1,-1 0,-2 0,-4 0,-6 0,-9 -2,-23 -5,-35 -3,-12 -7,-23 -11,-32 -4,-10 -9,-19 -14,-26 -6,-7 -12,-12 -18,-15 -5,-3 -9,-2 -12,-3 -3,-1 -6,-4 -10,-4 -4,-1 -9,1 -13,1 -5,0 -10,-1 -18,-1 -9,0 -22,2 -29,2 -8,0 -10,-1 -14,-2 -4,-1 -10,-3 -17,-1 -8,1 -17,6 -25,10 -8,3 -16,6 -24,12 -8,5 -16,14 -21,20 -5,5 -7,8 -9,14 -3,6 -6,14 -7,21 -1,8 0,15 1,22 1,7 3,14 6,21 2,7 5,13 10,21z"/>
    <path class="fil1" d="M669 742c0,8 2,16 8,23 7,7 17,14 31,17 14,3 30,2 43,-2 14,-4 25,-12 31,-20 6,-9 8,-17 7,-26 -1,-8 -4,-16 -11,-23 -7,-6 -17,-11 -27,-14 -11,-2 -21,-2 -32,0 -10,1 -20,5 -28,10 -8,4 -14,10 -17,16 -4,6 -5,12 -5,19z"/>
    <path class="fil30" d="M672 743c0,6 2,14 8,21 6,7 16,13 28,16 13,3 28,2 41,-2 13,-4 23,-11 29,-19 6,-8 7,-16 7,-24 -1,-8 -5,-15 -11,-22 -7,-6 -16,-10 -26,-13 -9,-2 -19,-2 -29,0 -10,1 -19,5 -26,9 -8,5 -13,10 -17,16 -3,5 -4,11 -4,18z"/>
   </g>
   <g>
    <path class="fil1" d="M819 757c0,1 -2,5 -3,8 -1,2 1,5 3,6 2,1 5,2 7,1 3,-2 6,-5 7,-7 2,-3 4,-5 4,-4 1,0 1,3 1,6 1,3 2,6 5,7 2,1 5,0 7,-1 3,-2 4,-4 4,-8 -1,-4 -2,-9 -3,-10 0,-1 2,2 3,5 2,2 4,4 7,4 1,0 1,-1 1,-1 1,0 2,-1 3,-2 1,-1 3,-2 5,-3 0,0 1,0 1,-1 3,-3 5,-6 5,-9 -1,-3 -2,-5 -5,-7 -3,-2 -7,-4 -10,-5 -3,-2 -4,-3 -3,-5 1,-2 3,-5 6,-6 3,-1 7,-1 12,0 5,1 10,3 14,5 4,2 7,4 9,3 2,-1 3,-4 3,-6 0,-2 -2,-3 -1,-3 0,0 4,1 6,0 2,-2 2,-4 1,-6 -1,-2 -4,-3 -4,-4 0,-1 1,-1 3,-2 1,-2 1,-3 0,-5 -1,-2 -4,-3 -5,-4 -1,-2 0,-2 1,-3 0,-1 1,-3 0,-4 -1,-1 -3,-2 -4,-4 0,-1 0,-3 1,-4 0,-1 -1,-1 -3,-2 -3,0 -8,0 -10,1 -3,1 -4,2 -5,4 -2,3 -4,7 -4,6 0,-1 1,-6 2,-9 0,-4 -1,-5 -2,-6 -2,0 -4,0 -7,1 -2,2 -5,4 -7,7 -3,3 -4,6 -4,4 0,-1 1,-8 2,-13 1,-4 1,-8 0,-9 -1,-2 -3,-3 -5,-2 -1,0 -3,0 -5,-1 -2,-1 -5,-4 -7,-5 -3,-1 -5,-1 -6,0 -2,1 -2,3 -3,4 -1,2 -3,3 -3,3 -1,1 -1,0 -3,0 -1,0 -4,1 -5,2 -2,0 -2,2 -4,3 -1,1 -4,1 -5,2 -1,2 0,4 -1,5 0,2 -2,2 -2,3 -1,2 -1,3 1,4 1,2 3,3 3,4 0,1 -2,1 -1,3 0,1 2,3 5,5 3,1 6,3 9,5 3,1 5,3 7,7 2,4 4,10 4,12 -1,2 -4,0 -8,-2 -4,-3 -11,-6 -14,-7 -4,0 -6,3 -5,5 0,2 2,4 2,4 0,1 -2,1 -4,1 -2,0 -3,0 -4,0 -2,1 -2,3 -2,6 0,2 2,5 4,6 3,2 6,3 7,4 1,1 -1,1 -4,2 -2,1 -5,3 -6,5 -2,2 -1,3 0,5 2,1 4,1 6,1 3,0 6,-1 6,1z"/>
    <path class="fil31" d="M822 754c0,1 -2,5 -3,7 -1,3 1,5 3,6 2,2 4,2 7,1 2,-1 5,-4 6,-6 2,-3 3,-5 4,-4 0,0 0,3 1,6 1,3 2,6 4,7 2,1 5,0 7,-2 2,-2 4,-4 3,-7 0,-4 -2,-9 -2,-10 0,0 1,3 3,5 2,2 4,4 6,3 1,0 1,0 2,0 0,0 1,-1 2,-2 1,-1 3,-2 5,-2 0,-1 1,-1 1,-2 3,-3 4,-6 4,-8 0,-3 -2,-5 -5,-7 -2,-2 -6,-3 -9,-5 -2,-1 -3,-3 -3,-5 1,-1 3,-3 6,-5 3,-1 7,-1 11,0 5,1 9,3 13,5 4,2 7,4 9,3 2,-1 3,-4 3,-6 -1,-2 -2,-2 -2,-2 1,-1 5,0 6,-1 2,-1 3,-3 2,-5 -2,-2 -4,-3 -4,-4 -1,-1 1,-1 2,-2 1,-1 2,-3 1,-5 -1,-1 -4,-3 -5,-4 -1,-1 0,-1 0,-2 1,-1 2,-3 1,-4 -1,-1 -3,-2 -4,-3 0,-2 0,-3 0,-4 1,-1 0,-2 -2,-2 -3,0 -7,0 -10,1 -2,0 -3,1 -4,4 -2,2 -4,6 -4,5 0,-1 2,-6 2,-9 0,-3 -1,-4 -2,-5 -2,0 -4,0 -6,1 -2,1 -5,4 -7,6 -3,3 -4,6 -4,4 0,-1 1,-7 2,-12 1,-4 1,-7 0,-9 -1,-1 -2,-2 -4,-2 -2,0 -3,1 -5,0 -3,-1 -5,-4 -7,-5 -2,-1 -4,-1 -6,0 -1,1 -2,3 -3,4 0,1 -2,3 -2,3 -1,0 -1,0 -3,0 -1,0 -3,0 -5,1 -1,1 -2,2 -3,3 -2,1 -4,1 -5,2 -1,2 0,4 -1,5 0,1 -1,2 -2,3 -1,1 0,2 1,4 1,1 3,2 3,3 0,1 -2,2 -1,3 0,1 2,3 5,4 3,2 6,3 8,5 3,2 5,3 7,7 2,4 4,9 3,11 0,2 -3,0 -7,-2 -4,-2 -10,-6 -13,-6 -4,0 -5,2 -5,4 0,2 2,4 2,5 0,0 -2,0 -4,0 -1,0 -3,0 -4,1 -1,0 -2,2 -1,5 0,2 1,4 4,6 2,1 6,2 6,3 1,1 -1,1 -3,2 -3,1 -6,3 -7,5 -1,1 0,3 1,4 1,1 3,2 6,1 2,0 5,0 5,1z"/>
   </g>
   <path class="fil32" d="M504 780c18,18 44,36 79,51 36,15 82,27 123,36 -8,-2 -16,-4 -20,-11 -5,-7 -6,-19 -2,-26 4,-7 12,-9 19,-12 8,-4 14,-8 11,-11 -3,-2 -15,-4 -30,-6 -15,-2 -34,-4 -54,-8 -21,-5 -45,-12 -64,-22 -20,-9 -35,-20 -46,-30 -11,-11 -18,-21 -28,-39 -10,-19 -23,-46 -36,-74 -1,8 -2,17 -2,27 0,21 4,46 11,67 8,22 20,40 39,58z"/>
   <path class="fil1" d="M708 870c41,8 79,13 121,13 43,-1 90,-8 122,-14 33,-6 51,-11 61,-15 9,-3 10,-5 10,-55 -15,6 -31,12 -49,18 -8,4 -16,7 -24,10 -10,3 -20,4 -29,5 -12,2 -25,5 -39,7 -30,4 -64,5 -97,3 -33,-1 -66,-5 -99,-9 -3,7 -2,19 2,26 5,7 13,9 21,11z"/>
   <path class="fil2" d="M704 870c42,8 79,12 122,12 42,-1 89,-7 122,-12 32,-6 51,-10 60,-14 9,-3 11,-5 11,-48 -16,5 -32,10 -50,16 -7,3 -15,6 -23,8 -10,3 -20,4 -29,4 -13,3 -26,5 -39,7 -31,3 -64,4 -97,3 -34,-1 -67,-5 -99,-9 -4,7 -3,18 1,24 5,6 13,8 21,9z"/>
   <path class="fil33" d="M704 634c-2,3 0,6 5,8 5,2 13,3 23,3 10,1 22,0 34,-2 1,0 1,0 1,0 1,-1 2,-2 4,-3 5,-3 13,-7 19,-10 2,-2 4,-3 5,-4 1,-2 2,-4 3,-6 2,-3 3,-9 6,-12 3,-4 8,-7 12,-10 5,-3 8,-6 11,-11 3,-4 5,-9 8,-12 3,-4 8,-5 11,-8 3,-2 4,-5 5,-12 1,-3 1,-8 2,-12 1,-4 3,-8 5,-11 3,-4 6,-7 10,-10 0,-2 -1,-4 -2,-6 -3,-5 -8,-15 -15,-22 -6,-8 -13,-14 -17,-19 -4,-5 -7,-8 -10,-10 -4,-2 -9,-1 -13,1 -4,1 -8,4 -11,5 -4,0 -7,-2 -11,-3 -4,-2 -8,-3 -14,-1 -7,1 -14,6 -18,10 -3,4 -2,8 -2,11 1,4 2,6 0,11 -2,5 -6,12 -9,17 -2,6 -2,10 -1,18 1,8 3,21 3,30 0,9 -2,15 -6,18 -5,3 -12,4 -19,5 -6,2 -13,5 -14,9 -1,3 3,8 5,12 2,5 2,11 -1,15 -2,5 -7,8 -9,11z"/>
   <path class="fil34" d="M475 628c-3,4 -5,9 -6,14 7,16 14,32 21,45 5,-6 9,-12 12,-20 2,-10 2,-22 1,-28 0,-6 0,-6 3,-8 3,-3 10,-9 19,-9 9,-1 22,5 34,9 12,5 23,9 34,14 5,-1 11,-2 17,-2 3,-3 7,-6 8,-8 -8,-10 -17,-20 -21,-29 -3,-9 -2,-17 -6,-19 -5,-1 -16,5 -23,-1 -8,-5 -11,-22 -15,-38 -1,2 -2,3 -4,5 -3,2 -7,3 -12,4 -4,0 -10,0 -13,2 0,0 -1,1 -1,2 -1,1 -1,3 0,4 1,1 2,2 2,3 2,1 3,2 3,2 0,2 -3,2 -5,5 -3,2 -4,6 -8,9 -4,2 -9,3 -13,4 -4,2 -7,5 -8,9 -1,4 -1,9 -5,14 -3,5 -10,9 -14,17z"/>
   <path class="fil35" d="M506 723c5,7 10,13 16,19 11,10 26,21 46,30 16,8 36,14 54,19 0,0 -1,-1 -1,-1 -5,-7 -8,-14 -11,-22 -2,-7 -4,-14 -6,-21 -14,-17 -29,-34 -27,-43 1,-9 19,-9 32,-19 -6,-12 -11,-23 -9,-32 1,-3 3,-6 6,-9 -6,0 -11,1 -17,2 -6,1 -11,3 -14,7 -7,6 -7,18 -12,24 -5,5 -16,4 -23,3 -7,0 -11,-1 -10,7 1,8 7,24 4,31 -3,8 -16,7 -28,5z"/>
   <path class="fil36" d="M521 645c2,6 8,8 11,12 4,5 5,13 6,21 8,0 18,1 23,-4 5,-6 5,-18 12,-24 3,-4 8,-6 15,-7 -12,-4 -23,-8 -35,-13 -12,-5 -24,-10 -34,-10 0,10 -1,19 2,25z"/>
   <path class="fil37" d="M675 584c-6,10 -1,27 -5,37 -5,9 -19,12 -30,23 -10,11 -18,30 -31,41 -13,10 -31,10 -32,19 -2,9 13,26 27,43 -1,-8 -2,-15 -1,-23 1,-8 4,-16 7,-22 3,-6 5,-9 10,-15 5,-6 13,-15 22,-20 8,-6 16,-9 25,-13 8,-4 17,-8 25,-10 8,-2 14,0 18,1 4,2 6,3 14,2 4,0 11,0 17,-1 -3,0 -5,0 -8,0 -9,0 -17,-1 -22,-3 -5,-2 -7,-5 -5,-8 2,-3 7,-7 9,-11 3,-4 3,-10 1,-15 -2,-5 -6,-9 -5,-13 1,-3 8,-6 14,-8 7,-2 14,-2 18,-5 5,-4 7,-9 7,-18 0,-10 -2,-22 -3,-30 -12,3 -24,6 -30,11 -5,6 -4,13 -12,19 -8,5 -24,9 -30,19z"/>
   <path class="fil33" d="M605 597c-5,9 -3,22 -1,30 3,8 7,9 3,13 -1,1 -5,4 -8,7 -3,3 -6,6 -7,10 -2,8 4,19 10,31 13,-10 20,-30 31,-41 11,-11 25,-13 29,-23 5,-10 0,-27 5,-37 6,-10 23,-13 31,-19 8,-5 6,-13 12,-19 -6,-2 -13,-3 -16,-7 -3,-4 -3,-11 -8,-12 -6,-1 -16,2 -28,5 -11,4 -25,6 -32,2 2,13 5,26 0,36 -5,9 -16,14 -21,24z"/>
   <path class="fil38" d="M663 532c12,-3 22,-6 27,-5 5,1 5,7 9,11 3,5 9,6 16,8 5,-5 17,-8 29,-11 -1,-8 -1,-13 2,-18 2,-6 7,-12 8,-17 2,-5 1,-8 1,-11 -2,2 -4,4 -6,5 -2,1 -5,-1 -8,-3 -4,-2 -8,-4 -12,-5 -4,0 -7,0 -10,3 -3,2 -5,6 -7,7 -2,2 -3,0 -6,-1 -3,0 -7,2 -10,3 -3,2 -6,4 -8,4 -3,0 -5,-3 -8,-4 -3,-1 -6,0 -8,1 -2,2 -3,5 -7,5 -3,1 -9,-2 -14,-1 -5,0 -9,3 -13,4 -4,1 -8,-1 -11,-2 -4,0 -6,1 -9,4 2,10 5,21 12,25 8,4 21,1 33,-2z"/>
   <path class="fil35" d="M597 562c-5,13 -8,24 -9,30l-1 6c1,3 1,6 3,10 3,9 12,19 21,29 3,-3 -1,-5 -4,-12 -2,-8 -4,-22 1,-31 5,-9 17,-15 21,-24 5,-9 2,-22 0,-35 -4,-3 -7,-7 -9,-12 -9,14 -17,27 -23,39z"/>
   <path class="fil38" d="M707 629c-1,2 0,4 3,6 4,1 11,2 19,2 2,0 4,0 6,0 1,0 2,0 2,0 1,0 2,0 3,0 1,0 2,0 3,0 0,0 0,0 0,0 2,0 4,0 6,0 3,-1 6,-1 8,-1l2 -1c0,0 1,-1 2,-2 0,0 0,0 0,0 1,0 1,0 1,0 0,0 1,-1 1,-1 -1,0 -1,0 -1,0 -2,-1 -3,-2 -5,-2 0,0 0,-1 -1,-1 0,0 0,0 0,0 0,0 -1,0 -1,0 0,-1 -1,-1 -2,-1 0,-1 -1,-1 -1,-1 -6,3 -12,7 -15,3 -2,-4 -1,-15 -1,-23 -1,-8 -3,-13 -5,-19 -2,1 -5,1 -7,2 -6,1 -12,4 -13,7 -1,3 3,6 5,10 1,5 1,9 -1,13 -2,3 -6,6 -8,9z"/>
   <path class="fil36" d="M732 587c3,7 5,13 5,23 1,10 -1,23 2,28 3,4 11,0 18,-5 -6,-3 -10,-7 -10,-10 1,-5 15,-10 20,-17 6,-6 3,-15 5,-24 1,-9 6,-18 8,-27 2,-10 1,-22 4,-31 2,-9 9,-16 8,-24 0,-7 -8,-14 -15,-17 -2,0 -4,-1 -5,-1 -2,0 -3,0 -5,0 -5,0 -10,1 -15,2 0,0 0,1 0,2 0,1 1,2 1,3 0,1 0,1 0,1 1,3 2,5 0,10 -2,5 -7,12 -9,17 -2,6 -2,10 -1,18 0,0 0,1 0,1 0,0 1,0 2,0 0,8 2,21 2,30 0,9 -2,15 -6,18 -2,2 -5,2 -9,3z"/>
   <path class="fil37" d="M804 498c3,12 -1,27 -3,37 -2,9 0,13 5,14 4,1 12,-1 16,-4 1,0 2,-1 3,-2 2,-2 3,-5 2,-8 0,0 0,-1 0,-1 -2,-5 -6,-12 -5,-21 1,-6 5,-13 9,-21 1,-2 3,-4 4,-6 1,-1 1,-2 2,-4 1,0 1,-1 1,-1 -2,-3 -4,-5 -6,-7 0,0 -1,-1 -1,-1 -4,-4 -6,-7 -9,-9 -1,0 -1,0 -1,0 -4,-1 -8,-1 -12,1 -4,2 -8,5 -11,5 0,0 -1,0 -1,0 -2,0 -3,0 -5,-1 -2,-1 -3,-2 -5,-2 -2,-1 -4,-2 -7,-2 2,2 4,3 5,5 2,1 3,2 4,3 7,8 13,16 15,25z"/>
   <path class="fil3" d="M709 642c4,2 12,3 21,3 3,0 5,0 8,0 1,0 2,0 3,0 1,0 2,0 3,0 1,0 3,0 4,0 0,0 0,0 0,0 2,0 4,0 7,-1 3,0 7,0 10,-1l1 0c1,-1 2,-2 3,-3 0,0 0,0 1,0 0,0 0,0 1,0 0,-1 0,-1 0,-1 2,-1 3,-2 5,-3 1,0 2,-1 3,-1 3,-2 7,-4 9,-5 3,-2 4,-3 6,-4 1,-2 2,-3 3,-4 0,-1 0,-1 0,-2 1,-1 1,-2 2,-4 0,-3 2,-6 4,-8 0,-1 0,-1 1,-2 1,-1 3,-2 4,-3 1,-1 2,-2 4,-2 1,-1 2,-2 3,-3 2,-1 3,-2 5,-4 2,-2 4,-4 6,-7 0,0 1,-1 1,-2 2,-4 4,-8 7,-10 0,-1 1,-2 2,-2 1,-1 1,-1 2,-2 2,-1 3,-1 4,-2 1,-1 2,-1 3,-2 1,-1 3,-3 3,-6 1,-1 1,-3 2,-6 0,-3 1,-7 2,-12 -6,3 -13,5 -20,10 -1,0 -2,1 -3,2 -1,0 -2,1 -3,2 -1,1 -2,2 -3,2 0,1 -1,1 -1,1 -4,4 -8,8 -11,12 -5,5 -9,11 -14,16 -1,2 -3,4 -4,6 -2,2 -3,4 -4,5 -7,9 -13,15 -19,17 -1,0 -1,0 -2,0 -7,1 -14,-2 -22,-3 -9,-1 -20,2 -30,4 0,2 -1,5 -2,7 -3,4 -8,8 -9,11 -2,2 0,5 4,7z"/>
   <path class="fil36" d="M704 634c-1,2 -1,4 0,5 1,1 2,2 3,3 1,0 3,0 4,1 5,1 11,2 18,2 2,0 3,0 5,0 1,0 2,0 2,0l2 0 2 0 1 0 2 0 1 0 3 0 0 0c0,0 0,-1 1,-1 0,0 0,0 0,0 2,0 4,0 5,0 0,0 0,0 0,0 4,0 7,-1 11,-1l1 0c1,-1 2,-2 3,-3l0 0 1 0 1 -1 0 0c0,0 0,0 0,0 0,0 0,0 1,0 1,-1 2,-2 4,-3l1 0 2 -2c0,0 0,0 0,0 3,-2 7,-3 9,-5l-3 -1 -4 -2 -9 -4 -1 0 -4 -2 -11 -5c-4,-1 -7,-2 -11,-2 -2,0 -5,0 -8,0 0,0 -1,0 -2,0 -6,1 -12,2 -18,3 0,0 -1,0 -1,0 0,1 0,1 0,1 0,2 -1,5 -2,7 -2,3 -5,5 -7,7 -1,1 -2,2 -2,3z"/>
   <path class="fil36" d="M687 831c33,4 66,8 99,9 33,2 67,1 97,-3 5,-1 9,-2 13,-2 0,0 -1,0 -1,-1 -2,0 -4,-1 -5,-2 -7,-4 -12,-8 -17,-13 -3,-4 -6,-8 -8,-12 -8,4 -16,8 -26,9 -9,1 -19,-1 -30,-4 -1,1 -2,1 -3,1 -7,3 -17,8 -27,12 -10,4 -21,8 -31,9 -1,0 -2,0 -2,0 -10,1 -18,0 -26,-2 -2,0 -4,0 -5,-1 -7,-2 -14,-4 -25,-8 -1,1 -2,2 -3,3 0,0 0,1 -1,2 0,0 0,0 0,0 -1,1 -1,2 -1,4 0,0 1,0 2,0 0,0 0,-1 0,-1z"/>
   <path class="fil39" d="M853 495c2,3 4,6 6,9 9,-6 17,-10 22,-13 1,-1 2,-1 3,-2 3,-1 4,-1 5,-1 1,0 2,0 2,1 0,0 1,0 1,0 0,1 -1,2 -3,5 -1,0 -2,1 -3,2 0,0 0,0 0,0 -5,5 -15,12 -22,17 1,1 1,1 2,2 1,2 2,4 2,6 1,-1 2,-1 2,-2 10,-6 21,-13 28,-16 6,-2 9,-2 12,-1 2,-2 5,-4 7,-5 1,-1 2,-1 2,-2 3,-1 5,-3 7,-5 0,0 1,-1 2,-1 1,-2 3,-3 4,-5 3,-2 5,-5 6,-7 1,-1 2,-2 3,-3 1,-2 2,-4 3,-6 3,-6 4,-13 6,-19 3,-10 5,-19 9,-27 4,-9 10,-16 18,-23 7,-7 17,-15 24,-20 7,-6 11,-8 14,-15 -30,27 -60,55 -87,77 -9,7 -17,13 -26,20 -2,1 -5,3 -7,5 -9,7 -18,13 -27,19 -2,1 -4,3 -6,4 -3,2 -6,4 -9,6z"/>
   <path class="fil40" d="M384 932c68,1 190,-3 284,-5 93,-2 158,-2 196,-2 38,0 50,0 70,6 21,6 50,19 68,25 18,7 26,7 28,-17 1,-11 1,-28 0,-50l-82 -16c-33,6 -80,13 -123,14 -9,0 -17,0 -25,-1 -68,5 -136,10 -195,14 -59,3 -109,4 -161,3 -52,-1 -105,-5 -147,4 -42,9 -73,30 -104,51 9,-1 24,0 42,-6 17,-6 36,-20 52,-23 16,-4 30,2 97,3z"/>
   <path class="fil41" d="M958 424c-4,9 -7,18 -9,27 -2,7 -4,14 -7,20 3,1 5,1 7,2 19,5 34,11 43,15 8,3 10,3 13,4 1,1 3,2 5,9 3,4 6,18 8,60 0,5 1,12 1,19 0,-4 0,-8 0,-11 0,-84 3,-165 5,-217 3,-53 5,-76 -7,-82 -25,24 -51,48 -69,73 -17,25 -26,51 -34,77 7,-4 15,-12 25,-21 9,-9 21,-20 32,-30 12,-11 24,-22 32,-29 8,-6 12,-10 14,-10 1,0 1,4 1,11 -1,8 -2,19 -5,26 -2,7 -6,9 -13,14 -7,6 -17,13 -25,21 -7,7 -13,14 -17,22z"/>
   <path class="fil42" d="M666 316c79,0 116,0 148,-4 33,-5 61,-15 90,-24 -28,4 -64,8 -118,9 -85,2 -216,-1 -305,-2 -88,-1 -135,0 -166,-1 -12,0 -21,0 -29,-1 18,8 37,16 108,20 70,3 193,3 272,3z"/>
   <path class="fil43" d="M178 665c1,69 2,134 3,180 1,9 1,16 1,23 37,-16 75,-33 131,-45 55,-11 127,-18 200,-25 -5,-4 -10,-9 -15,-13 -18,-19 -31,-37 -38,-59 -8,-23 -12,-48 -12,-70 0,-21 4,-39 10,-54 3,-8 7,-16 13,-23 -69,0 -137,1 -185,15 -49,15 -78,43 -108,71z"/>
   <path class="fil44" d="M281 569c13,-1 28,-2 72,-3 44,0 115,1 156,0 40,0 49,-1 60,-5 11,-4 24,-11 31,-17 8,-6 10,-10 10,-47 1,-37 0,-106 -1,-141 0,-34 0,-34 -1,-34 -1,0 -3,0 -74,-1 -71,-2 -212,-4 -353,-6 -1,16 -2,37 -3,62 -1,63 -1,159 0,253 17,-15 34,-29 46,-39 11,-9 17,-13 25,-16 8,-3 19,-5 32,-6z"/>
   <path class="fil45" d="M354 567c43,-1 114,0 154,0 41,-1 50,-2 61,-6 11,-4 23,-11 31,-17 7,-6 9,-10 9,-47 1,-22 1,-58 0,-89 -6,9 -12,19 -20,27 -8,8 -17,15 -27,21 -11,6 -22,11 -32,14 -10,3 -19,3 -47,3 -28,0 -75,-2 -115,-2 -41,-1 -75,-1 -96,1 -21,1 -29,4 -42,11 -14,7 -32,18 -51,30 0,38 0,78 0,117 17,-14 35,-29 46,-38 11,-10 17,-14 25,-17 8,-3 19,-4 32,-6 13,-1 28,-2 72,-2z"/>
   <path class="fil46" d="M354 568c43,0 114,0 155,0 40,0 49,-1 60,-5 11,-5 23,-12 31,-18 7,-5 9,-9 10,-46 0,-13 0,-31 0,-49 -4,6 -8,11 -16,18 -8,7 -21,16 -33,21 -12,5 -22,7 -56,9 -34,1 -92,3 -135,3 -42,0 -71,0 -91,2 -21,2 -35,6 -50,15 -15,9 -33,22 -50,35 0,26 0,52 0,79 18,-15 35,-30 46,-39 12,-9 17,-14 25,-17 8,-2 19,-4 32,-5 13,-2 28,-3 72,-3z"/>
   <path class="fil0 str0" d="M1018 566c0,84 3,170 7,236 3,66 6,113 3,137 -1,11 -3,17 -7,19 10,0 20,0 32,0 12,-1 26,-2 31,-6 6,-4 4,-10 3,-18 -1,-7 -2,-16 -2,-26 0,-10 1,-22 -1,-34 -1,-13 -4,-25 -6,-44 -1,-19 -1,-44 -2,-69 0,-26 -1,-52 -3,-70 -2,-18 -4,-27 -3,-40 1,-13 5,-30 5,-42 0,-11 -3,-18 -4,-29 -2,-10 -1,-24 0,-51 0,-27 1,-68 3,-97 2,-30 5,-49 6,-62 2,-13 2,-19 3,-29 0,-10 0,-23 1,-35 2,-13 4,-25 5,-34 2,-9 2,-14 -6,-17 -8,-2 -24,-2 -36,1 -12,2 -21,7 -30,11 11,7 9,30 7,82 -1,5 -1,9 -1,14 2,0 2,4 1,10 0,5 -1,11 -2,16 -2,50 -4,113 -4,177z"/>
  </g>
 </g>
</svg>
