<?xml version="1.0" encoding="UTF-8"?>
<!DOCTYPE svg PUBLIC "-//W3C//DTD SVG 1.1//EN" "http://www.w3.org/Graphics/SVG/1.1/DTD/svg11.dtd">
<!-- Creator: CorelDRAW X7 -->
<svg xmlns="http://www.w3.org/2000/svg" xml:space="preserve" width="12mm" height="12mm" version="1.1" style="shape-rendering:geometricPrecision; text-rendering:geometricPrecision; image-rendering:optimizeQuality; fill-rule:evenodd; clip-rule:evenodd"
viewBox="0 0 1200 1200"
 xmlns:xlink="http://www.w3.org/1999/xlink">
 <defs>
  <style type="text/css">
   <![CDATA[
    .str0 {stroke:#138F80;stroke-width:7.62}
    .fil2 {fill:#0FA190}
    .fil1 {fill:#138F80}
    .fil3 {fill:#177133}
    .fil0 {fill:#27B0A0}
    .fil8 {fill:#4C9A5C}
    .fil5 {fill:#616161}
    .fil10 {fill:#616161}
    .fil6 {fill:#69A132}
    .fil13 {fill:#8E8D8B}
    .fil4 {fill:#ABA8A8}
    .fil7 {fill:#CAC7C0}
    .fil12 {fill:#D1CDCA}
    .fil11 {fill:#DDDCDA}
    .fil9 {fill:#DED6CB}
   ]]>
  </style>
 </defs>
 <g id="Layer_x0020_1">
  <metadata id="CorelCorpID_0Corel-Layer"/>
  <g id="_1683395104176">
   <path class="fil0" d="M507 686c149,0 340,-4 435,-17 95,-14 95,-37 94,-77 0,-41 0,-100 1,-130 0,-29 1,-30 -1,-30 -2,-1 -7,-1 -10,0 -3,1 -6,2 -7,-7 -1,-9 -1,-28 -1,-44 0,-16 -1,-30 -1,-37 -1,-8 -1,-10 -3,-9 -2,1 -4,5 -8,10 -4,5 -9,11 -14,15 -4,4 -8,6 -11,8 -2,1 -4,3 -4,-7 0,-9 0,-30 1,-48 0,-18 -1,-32 -2,-42 -2,-10 -4,-15 -5,-18 -1,-3 -2,-5 -3,-4 -2,1 -3,4 -7,10 -4,7 -9,16 -14,24 -6,9 -13,16 -18,21 -6,5 -11,9 -16,14 -6,5 -13,13 -17,16 -3,3 -5,2 -4,-4 0,-5 2,-13 2,-23 1,-11 1,-22 0,-31 -1,-9 -3,-15 -4,-19 -1,-4 -2,-5 -4,-1 -2,5 -6,15 -11,25 -4,9 -9,17 -14,25 -6,7 -13,12 -19,16 -6,4 -11,5 -19,7 -7,1 -16,2 -24,4 -8,1 -14,3 -20,6 -6,3 -12,7 -19,12 -7,5 -14,12 -21,15 -7,4 -14,6 -21,7 -8,1 -17,1 -23,0 -6,-1 -10,-3 -15,-6 -5,-4 -11,-8 -20,-15 -8,-8 -19,-18 -26,-25 -7,-7 -11,-12 -15,-15 -3,-2 -7,-4 -12,-4 -6,0 -13,0 -20,1 -7,1 -14,2 -21,4 -6,3 -13,7 -18,11 -5,5 -10,10 -18,17 -8,7 -20,17 -30,23 -9,6 -17,9 -26,8 -10,0 -22,-4 -34,-9 -11,-5 -21,-11 -28,-16 -7,-5 -11,-8 -16,-10 -4,-2 -9,-3 -15,-4 -6,0 -14,1 -22,-1 -8,-2 -16,-6 -24,-12 -8,-6 -15,-13 -22,-22 -6,-8 -12,-18 -15,-26 -3,-8 -4,-14 -5,-17 -2,-3 -3,-4 -5,-3 -2,0 -4,2 -5,7 -1,6 -2,14 -2,23 1,9 1,19 2,27 1,9 1,15 -3,15 -5,-1 -15,-8 -24,-17 -9,-10 -18,-20 -25,-30 -8,-10 -14,-19 -18,-24 -4,-5 -5,-6 -7,0 -3,6 -7,19 -9,31 -1,12 0,24 1,34 1,10 2,19 3,27 1,9 4,17 0,20 -4,3 -13,1 -20,-4 -7,-6 -11,-14 -14,-19 -2,-4 -3,-6 -4,-7 -1,-1 -2,-1 -2,13 -1,14 -1,42 -1,59 1,16 2,21 -2,24 -3,2 -10,1 -14,1 -3,0 -3,0 -3,36 0,37 0,110 0,150 1,40 2,48 2,53 1,5 1,7 55,10 53,2 160,5 309,5z"/>
   <path class="fil1" d="M227 622c72,1 175,2 304,2 7,0 14,0 22,0 -15,-40 -29,-81 -31,-113 -2,-32 8,-56 11,-66 4,-10 0,-6 -31,-4 -31,1 -90,1 -130,-2 -40,-4 -63,-11 -79,-15 -15,-4 -25,-5 -27,4 -3,10 1,30 -4,38 -4,8 -17,5 -25,3 -7,-1 -8,0 -9,26 -1,26 -1,76 -1,127z"/>
   <path class="fil2" d="M258 512c6,1 17,5 21,-4 4,-8 1,-28 3,-37 2,-10 10,-8 23,-4 13,4 31,11 65,14 33,4 81,4 106,2 26,-2 29,-5 26,5 -2,10 -11,33 -9,65 1,33 13,73 25,114 41,0 84,-1 128,-2l-8 -172c-2,-32 -2,-23 3,-17 5,7 15,11 31,12 16,2 39,-1 58,-5 20,-4 36,-10 59,-16 22,-6 50,-12 73,-17 22,-6 38,-12 44,-12 5,0 0,6 -2,16 -2,10 1,24 11,29 10,5 29,2 37,7 8,4 6,17 5,45 -1,28 0,70 0,113 17,-3 29,-6 39,-10l-5 -123c-1,-34 -2,-58 -5,-71 -3,-12 -8,-14 -17,-11 -10,3 -23,9 -30,4 -6,-5 -6,-22 -3,-36 2,-14 6,-25 -4,-24 -10,0 -35,11 -70,21 -34,10 -79,19 -111,23 -32,5 -53,5 -70,2 -17,-3 -31,-9 -39,-14 -8,-5 -10,-9 -14,-7 -4,2 -9,11 -12,15l-3 4 -5 9c-6,10 -16,28 -23,31 -7,4 -11,-7 -17,-18 -5,-11 -13,-22 -43,-22 -30,-1 -82,9 -128,10 -45,2 -85,-4 -107,-12 -23,-8 -30,-19 -37,-25 -7,-7 -15,-9 -16,1 -2,11 2,35 1,46 -1,12 -7,12 -14,8 -7,-4 -15,-12 -20,22 -5,35 -8,113 -11,191 15,1 34,1 57,2 0,-50 0,-101 1,-126 0,-26 1,-27 7,-26z"/>
   <path class="fil1" d="M642 627c113,-1 227,-6 293,-14 9,-1 17,-2 25,-3 -1,-43 -1,-85 0,-113 1,-28 3,-41 -5,-46 -9,-4 -28,-1 -38,-6 -11,-5 -13,-19 -11,-29 1,-10 7,-16 1,-16 -5,0 -22,6 -45,11 -22,6 -51,12 -74,18 -23,6 -39,12 -59,16 -20,4 -44,6 -60,5 -17,-1 -26,-5 -31,-12 -5,-6 -6,-15 -4,17l8 172z"/>
   <polygon class="fil3" points="669,640 742,501 745,493 428,493 506,640 "/>
   <polygon class="fil4" points="486,591 703,591 752,501 755,493 433,493 451,526 468,557 "/>
   <polygon class="fil5" points="442,523 743,523 748,514 751,506 434,506 "/>
   <polygon class="fil5" points="442,555 743,555 748,546 751,538 434,538 "/>
   <path class="fil1" d="M629 365c5,-12 4,-22 0,-31 -3,-8 -10,-15 -13,-18l-3 -4c-6,0 -13,0 -20,1 -7,1 -14,2 -21,4 -6,2 -13,6 -18,10 -5,3 -10,8 -18,14 -4,3 -9,7 -14,11 16,-5 32,-10 45,-11 13,-2 21,0 26,6 5,6 6,15 6,27 0,12 -1,26 -1,32 1,6 4,4 10,-5 6,-8 16,-23 21,-36z"/>
   <path class="fil1" d="M219 391c7,-2 16,-2 13,-6 -3,-4 -17,-12 -31,-20 -4,3 -13,1 -20,-4 -7,-6 -11,-14 -14,-19 -2,-4 -3,-6 -4,-7 3,16 5,32 12,45 6,12 16,22 21,24 4,3 4,-2 7,-5 3,-4 9,-7 16,-8z"/>
   <path class="fil1" d="M268 343c6,-2 16,-2 21,-3 5,-1 6,-3 4,-6 -2,-3 -8,-6 -13,-10 -5,-1 -15,-8 -24,-17 -9,-10 -18,-20 -25,-30 -8,-10 -14,-19 -18,-24 -2,-2 -3,-4 -4,-4 2,17 4,34 12,50 9,17 23,34 31,41 8,7 11,4 16,3z"/>
   <path class="fil1" d="M363 347c3,-2 0,-9 -4,-15 -8,-2 -16,-6 -24,-12 -8,-6 -15,-13 -22,-22 -6,-8 -12,-18 -15,-26 -3,-8 -4,-14 -5,-17 -1,-2 -1,-2 -2,-3 0,10 -1,19 2,30 3,11 9,24 15,35 7,12 14,24 20,28 6,5 10,2 17,2 7,-1 16,2 18,0z"/>
   <path class="fil1" d="M832 345c6,-1 12,-3 17,-3 5,0 9,3 12,2 3,-1 5,-5 8,-12 3,-7 7,-17 11,-31 3,-13 6,-31 9,-48 -1,0 -2,1 -3,3 -2,5 -6,15 -11,25 -4,9 -9,17 -14,25 -6,7 -13,12 -19,16 -5,3 -9,5 -14,6 -6,7 -12,14 -12,17 1,3 9,2 16,0z"/>
   <path class="fil1" d="M916 354c8,0 15,0 19,-2 5,-2 7,-7 12,-18 4,-11 11,-29 15,-44 4,-15 5,-28 6,-41 -2,1 -3,4 -7,10 -4,7 -9,16 -14,24 -6,9 -13,16 -18,21 -6,5 -11,9 -16,14 -6,5 -13,13 -17,16 -2,7 -4,15 -1,18 4,4 13,2 21,2z"/>
   <path class="fil1" d="M965 387c0,4 8,5 12,8 5,2 5,6 9,5 3,-1 10,-6 15,-18 5,-12 9,-29 13,-47 -2,1 -4,5 -8,10 -4,5 -9,11 -14,15 -4,4 -8,6 -11,8 -2,1 -3,2 -4,-1 -6,8 -13,16 -12,20z"/>
   <path class="fil1" d="M1021 431c-1,17 -3,33 -4,53 -1,19 -2,42 0,52 1,10 5,7 8,0 2,-7 3,-17 5,-35 2,-18 4,-44 6,-69 -2,-1 -7,-1 -10,0 -2,0 -4,1 -5,-1z"/>
   <path class="fil1" d="M165 506c0,-17 -3,-46 -7,-75 -3,2 -10,1 -14,1 -2,0 -3,0 -3,6 4,21 7,43 11,62 3,19 7,35 8,40 2,5 2,-2 3,-7 1,-6 3,-10 2,-27z"/>
   <path class="fil3" d="M114 804c5,25 16,59 27,93 246,1 623,1 864,1 15,-38 29,-76 35,-104 6,-28 4,-46 -4,-65 -8,-20 -21,-41 -35,-57 -5,-5 -9,-9 -14,-13 -10,-7 -21,-16 -32,-25 -36,2 -80,3 -135,4 -107,2 -254,2 -356,-6 -40,-3 -74,-8 -102,-12 -56,17 -112,34 -151,50 -38,16 -59,31 -73,44 -14,13 -22,24 -26,37 -4,13 -4,28 2,53z"/>
   <path class="fil6" d="M974 692c6,22 8,42 3,73 -5,31 -16,73 -28,116 17,0 33,0 48,0 29,0 53,0 75,0 -11,-21 -22,-43 -29,-63 -6,-21 -8,-41 -4,-51 5,-10 15,-10 26,-23 11,-14 22,-42 33,-69 -6,4 -11,8 -15,11 -6,6 -8,9 -12,4 -4,-4 -11,-15 -22,-26 -10,-11 -25,-23 -38,-28 -12,-6 -22,-6 -32,-6 -11,0 -21,0 -33,-7 -3,-2 -7,-5 -11,-9 3,4 7,9 10,15 12,18 22,42 29,63z"/>
   <path class="fil6" d="M121 717c7,16 -2,30 0,39 3,8 19,10 26,26 7,15 5,43 3,72 20,0 42,0 66,0 -8,-34 -16,-69 -20,-94 -4,-24 -4,-40 -1,-53 2,-13 8,-23 19,-36 10,-13 26,-29 54,-45 29,-16 71,-32 112,-49 -33,-6 -56,-12 -75,-10 -31,3 -50,24 -65,31 -8,3 -14,3 -20,1 -9,13 -19,25 -29,34 -10,9 -21,14 -30,19 -8,5 -13,10 -19,16 -6,7 -12,14 -21,13 -9,-1 -21,-11 -35,-15 -7,-1 -14,-1 -21,-1 24,18 49,36 56,52z"/>
   <path class="fil6" d="M985 896c-230,-1 -564,-1 -800,-1 -43,9 -68,19 -68,31 0,32 209,58 467,58 258,0 468,-26 468,-58 0,-11 -25,-22 -67,-30z"/>
   <path class="fil7" d="M586 910c-63,0 -114,10 -114,22 0,12 51,22 114,22 63,0 114,-10 114,-22 0,-12 -51,-22 -114,-22z"/>
   <path class="fil6" d="M586 918c-39,0 -71,6 -71,14 0,8 32,14 71,14 39,0 71,-6 71,-14 0,-8 -32,-14 -71,-14z"/>
   <path class="fil7" d="M588 922c-27,0 -49,4 -49,10 0,5 22,9 49,9 27,0 49,-4 49,-9 0,-6 -22,-10 -49,-10z"/>
   <path class="fil8 str0" d="M268 565c-10,11 -21,23 -32,38 -11,16 -22,35 -25,46 -4,12 0,17 7,17 7,0 17,-4 32,-10 16,-6 38,-14 80,-18 43,-3 105,-1 136,0 31,1 31,1 19,-26 -12,-26 -37,-79 -53,-106 -17,-26 -25,-26 -33,-25 -8,1 -16,4 -23,6 -8,3 -16,7 -29,15 -13,8 -31,20 -45,31 -14,12 -24,22 -34,32z"/>
   <path class="fil8" d="M922 562c10,11 21,23 32,38 11,16 22,34 25,46 4,12 0,17 -7,17 -7,0 -17,-4 -32,-10 -16,-6 -38,-14 -80,-18 -43,-3 -105,-1 -136,0 -31,1 -31,1 -19,-26 12,-26 37,-79 53,-106 17,-26 25,-26 33,-25 8,1 16,3 23,6 8,3 16,7 29,15 13,8 31,20 45,31 14,11 24,21 34,32z"/>
   <polygon class="fil9" points="1023,727 174,727 174,839 1023,839 "/>
   <polygon class="fil4" points="1097,876 107,876 107,898 1097,898 "/>
   <polygon class="fil10" points="1014,876 139,876 135,876 108,876 108,881 137,881 141,881 1012,881 1012,881 1097,881 1097,876 1014,876 "/>
   <g>
    <polygon class="fil4" points="1065,855 139,855 139,876 1065,876 "/>
    <polygon class="fil10" points="987,854 168,854 164,854 139,854 139,860 166,860 169,860 985,860 986,860 1065,860 1065,854 988,854 "/>
   </g>
   <g>
    <polygon class="fil4" points="1045,833 158,833 158,854 1045,854 "/>
    <polygon class="fil10" points="970,832 186,832 183,832 158,832 158,837 185,837 188,837 969,837 969,837 1045,837 1045,832 971,832 "/>
   </g>
   <polygon class="fil8" points="1023,710 174,710 174,727 1023,727 "/>
   <g>
    <polygon class="fil11" points="699,743 699,827 710,827 710,750 710,743 "/>
    <polygon class="fil12" points="709,751 709,827 747,827 747,751 "/>
    <path class="fil13" d="M710 769l0 9 0 15c0,8 8,14 18,14 11,0 19,-6 19,-14l0 -15 0 -9 0 -14 -37 0 0 14z"/>
    <polygon class="fil4" points="699,744 709,802 709,752 710,752 710,751 710,744 "/>
    <polygon class="fil11" points="749,744 749,828 760,828 760,751 760,744 "/>
    <polygon class="fil12" points="759,751 759,828 797,828 797,751 "/>
    <path class="fil13" d="M760 770l0 8 0 15c0,8 8,15 18,15 11,0 19,-7 19,-15l0 -15 0 -8 0 -15 -37 0 0 15z"/>
    <polygon class="fil4" points="749,745 759,802 759,752 760,752 760,752 760,745 "/>
   </g>
   <g>
    <polygon class="fil11" points="399,743 399,827 410,827 410,750 410,743 "/>
    <polygon class="fil12" points="409,750 409,827 447,827 447,750 "/>
    <path class="fil13" d="M410 769l0 9 0 15c0,8 8,14 18,14 11,0 19,-6 19,-14l0 -15 0 -9 0 -15 -37 0 0 15z"/>
    <polygon class="fil4" points="399,744 409,802 409,751 410,751 410,751 410,744 "/>
    <polygon class="fil11" points="449,744 449,827 460,827 460,751 460,744 "/>
    <polygon class="fil12" points="459,751 459,828 497,828 497,751 "/>
    <path class="fil13" d="M460 769l0 9 0 15c0,8 8,15 18,15 11,0 19,-7 19,-15l0 -15 0 -9 0 -14 -37 0 0 14z"/>
    <polygon class="fil4" points="449,745 459,802 459,752 460,752 460,752 460,745 "/>
   </g>
   <g>
    <polygon class="fil11" points="199,741 199,825 210,825 210,749 210,741 "/>
    <polygon class="fil12" points="210,749 210,826 247,826 247,749 "/>
    <path class="fil13" d="M210 767l0 9 0 15c0,8 9,15 19,15 10,0 18,-7 18,-15l0 -15 0 -9 0 -14 -37 0 0 14z"/>
    <polygon class="fil4" points="199,743 210,800 210,750 210,750 210,750 210,743 "/>
    <polygon class="fil11" points="249,742 249,826 260,826 260,749 260,742 "/>
    <polygon class="fil12" points="260,749 260,826 297,826 297,749 "/>
    <path class="fil13" d="M260 768l0 9 0 15c0,8 9,14 19,14 10,0 18,-6 18,-14l0 -15 0 -9 0 -15 -37 0 0 15z"/>
    <polygon class="fil4" points="249,743 260,801 260,750 260,750 260,750 260,743 "/>
    <polygon class="fil11" points="299,741 299,825 309,825 309,749 309,741 "/>
    <polygon class="fil12" points="309,749 309,826 347,826 347,749 "/>
    <path class="fil13" d="M310 767l0 9 0 15c0,8 8,15 18,15 10,0 19,-7 19,-15l0 -15 0 -9 0 -14 -37 0 0 14z"/>
    <polygon class="fil4" points="299,743 309,800 309,750 309,750 309,750 309,743 "/>
    <polygon class="fil11" points="349,742 349,826 359,826 359,749 359,742 "/>
    <polygon class="fil12" points="359,749 359,826 397,826 397,749 "/>
    <path class="fil13" d="M360 768l0 9 0 15c0,8 8,14 18,14 10,0 19,-6 19,-14l0 -15 0 -9 0 -15 -37 0 0 15z"/>
    <polygon class="fil4" points="349,743 359,801 359,750 359,750 359,750 359,743 "/>
   </g>
   <g>
    <polygon class="fil11" points="499,744 499,828 510,828 510,751 510,744 "/>
    <polygon class="fil12" points="510,751 510,828 547,828 547,751 "/>
    <path class="fil13" d="M510 770l0 9 0 15c0,8 9,14 19,14 10,0 18,-6 18,-14l0 -15 0 -9 0 -15 -37 0 0 15z"/>
    <polygon class="fil4" points="499,745 510,802 510,752 510,752 510,752 510,745 "/>
    <polygon class="fil11" points="549,744 549,828 560,828 560,751 560,744 "/>
    <polygon class="fil12" points="560,752 560,828 597,828 597,752 "/>
    <path class="fil13" d="M560 770l0 9 0 15c0,8 9,14 19,14 10,0 18,-6 18,-14l0 -15 0 -9 0 -14 -37 0 0 14z"/>
    <polygon class="fil4" points="549,745 560,803 560,753 560,753 560,752 560,745 "/>
    <polygon class="fil11" points="599,744 599,828 609,828 609,751 609,744 "/>
    <polygon class="fil12" points="609,751 609,828 647,828 647,751 "/>
    <path class="fil13" d="M610 770l0 9 0 15c0,8 8,14 18,14 10,0 19,-6 19,-14l0 -15 0 -9 0 -15 -37 0 0 15z"/>
    <polygon class="fil4" points="599,745 609,802 609,752 609,752 609,752 609,745 "/>
    <polygon class="fil11" points="649,744 649,828 659,828 659,751 659,744 "/>
    <polygon class="fil12" points="659,752 659,828 697,828 697,752 "/>
    <path class="fil13" d="M660 770l0 9 0 15c0,8 8,14 18,14 10,0 19,-6 19,-14l0 -15 0 -9 0 -14 -37 0 0 14z"/>
    <polygon class="fil4" points="649,745 659,803 659,753 659,753 659,752 659,745 "/>
   </g>
   <g>
    <polygon class="fil11" points="800,744 800,828 811,828 811,751 811,744 "/>
    <polygon class="fil12" points="811,751 811,828 848,828 848,751 "/>
    <path class="fil13" d="M811 770l0 9 0 15c0,8 8,14 19,14 10,0 18,-6 18,-14l0 -15 0 -9 0 -15 -37 0 0 15z"/>
    <polygon class="fil4" points="800,745 811,802 811,752 811,752 811,752 811,745 "/>
    <polygon class="fil11" points="850,744 850,828 861,828 861,751 861,744 "/>
    <polygon class="fil12" points="861,752 861,828 898,828 898,752 "/>
    <path class="fil13" d="M861 770l0 9 0 15c0,8 9,14 19,14 10,0 18,-6 18,-14l0 -15 0 -9 0 -14 -37 0 0 14z"/>
    <polygon class="fil4" points="850,745 861,803 861,753 861,753 861,752 861,745 "/>
    <polygon class="fil11" points="900,744 900,828 910,828 910,751 910,744 "/>
    <polygon class="fil12" points="910,751 910,828 948,828 948,751 "/>
    <path class="fil13" d="M911 770l0 9 0 15c0,8 8,14 18,14 10,0 19,-6 19,-14l0 -15 0 -9 0 -15 -37 0 0 15z"/>
    <polygon class="fil4" points="900,745 910,802 910,752 910,752 910,752 910,745 "/>
    <polygon class="fil11" points="950,744 950,828 960,828 960,751 960,744 "/>
    <polygon class="fil12" points="960,752 960,828 998,828 998,752 "/>
    <path class="fil13" d="M961 770l0 9 0 15c0,8 8,14 18,14 10,0 19,-6 19,-14l0 -15 0 -9 0 -14 -37 0 0 14z"/>
    <polygon class="fil4" points="950,745 960,803 960,753 960,753 960,752 960,745 "/>
   </g>
   <path class="fil4" d="M274 639c-24,9 -49,20 -66,30 -16,9 -25,15 -29,22 -4,7 -5,14 -5,22l263 0 0 -22 0 -67c0,-4 1,-8 0,-11 0,-2 -2,-2 -7,-3 -6,0 -16,0 -31,1 -15,1 -35,4 -57,8 -21,5 -44,11 -68,20z"/>
   <g>
    <polygon class="fil9" points="436,633 436,711 762,711 762,633 "/>
    <polygon class="fil4" points="436,643 436,667 762,667 762,643 "/>
   </g>
   <path class="fil4" d="M921 638c24,9 49,21 66,30 17,9 25,15 29,22 5,7 5,14 6,22l-264 0 0 -22 0 -66c0,-5 -1,-9 0,-12 1,-2 2,-2 8,-3 5,0 15,0 30,1 15,1 35,4 57,8 21,5 44,11 68,20z"/>
   <polygon class="fil11" points="358,636 358,709 369,709 369,642 369,636 "/>
   <polygon class="fil13" points="358,637 369,687 369,643 369,643 369,643 369,637 "/>
   <polygon class="fil11" points="399,619 399,709 410,709 410,627 410,619 "/>
   <polygon class="fil13" points="399,620 409,682 409,628 410,628 410,628 410,620 "/>
   <polygon class="fil11" points="318,652 318,709 328,709 328,657 328,652 "/>
   <polygon class="fil13" points="318,652 328,692 328,657 328,657 328,657 328,652 "/>
   <polygon class="fil11" points="277,663 277,709 288,709 288,667 288,663 "/>
   <polygon class="fil13" points="277,663 288,695 288,667 288,667 288,667 288,663 "/>
   <polygon class="fil11" points="837,635 837,708 827,708 827,642 827,635 "/>
   <polygon class="fil13" points="837,636 827,686 827,643 827,643 827,643 827,636 "/>
   <polygon class="fil11" points="797,618 797,708 786,708 786,626 786,618 "/>
   <polygon class="fil13" points="797,620 786,681 786,627 786,627 786,627 786,620 "/>
   <polygon class="fil11" points="878,651 878,708 867,708 867,656 867,651 "/>
   <polygon class="fil13" points="878,652 867,691 867,657 867,657 867,657 867,652 "/>
   <polygon class="fil11" points="918,662 918,708 908,708 908,666 908,662 "/>
   <polygon class="fil13" points="918,663 908,694 908,667 908,667 908,667 908,663 "/>
   <polygon class="fil13" points="391,476 459,634 509,634 425,476 "/>
   <polygon class="fil13" points="780,476 712,633 662,633 745,476 "/>
  </g>
 </g>
</svg>
