<?xml version="1.0" encoding="UTF-8"?>
<!DOCTYPE svg PUBLIC "-//W3C//DTD SVG 1.1//EN" "http://www.w3.org/Graphics/SVG/1.1/DTD/svg11.dtd">
<!-- Creator: CorelDRAW X7 -->
<svg xmlns="http://www.w3.org/2000/svg" xml:space="preserve" width="12mm" height="12mm" version="1.1" style="shape-rendering:geometricPrecision; text-rendering:geometricPrecision; image-rendering:optimizeQuality; fill-rule:evenodd; clip-rule:evenodd"
viewBox="0 0 1200 1200"
 xmlns:xlink="http://www.w3.org/1999/xlink">
 <defs>
  <style type="text/css">
   <![CDATA[
    .fil3 {fill:#256D85}
    .fil4 {fill:#2E7D32}
    .fil2 {fill:#38A0C4}
    .fil7 {fill:#4D4D4D}
    .fil8 {fill:#706C6C}
    .fil5 {fill:#A32F2F}
    .fil12 {fill:#B8B6B6}
    .fil13 {fill:#BDB29F}
    .fil0 {fill:#C0D4DB}
    .fil10 {fill:#C9C7C7}
    .fil11 {fill:#D6D3D3}
    .fil6 {fill:#D9CEBA}
    .fil9 {fill:#DEDEDE}
    .fil14 {fill:#EBD8B5}
    .fil1 {fill:#F0D154}
   ]]>
  </style>
 </defs>
 <g id="Layer_x0020_1">
  <metadata id="CorelCorpID_0Corel-Layer"/>
  <g id="_2643366385072">
   <path class="fil0" d="M628 360c17,6 32,14 49,24 17,11 36,26 52,43 15,18 28,39 35,62 7,22 8,45 7,63 -1,19 -5,33 -12,50 -7,18 -16,38 -20,52 -4,15 -3,22 -1,30 2,7 5,13 10,20 5,6 11,13 19,17 8,4 16,6 24,4 8,-2 15,-6 24,-8 9,-1 20,0 30,2 10,3 19,8 25,14 7,5 11,13 11,25 0,12 -3,29 -10,47 -8,18 -19,37 -31,53 -12,17 -26,31 -41,45 -16,14 -34,29 -53,41 -19,13 -38,24 -59,32 -21,7 -43,12 -68,15 -24,2 -51,2 -83,-2 -33,-4 -70,-13 -101,-25 -31,-12 -56,-28 -79,-48 -23,-19 -43,-42 -59,-65 -16,-23 -27,-45 -35,-66 -7,-22 -12,-43 -15,-64 -3,-21 -4,-41 -3,-62 1,-22 5,-45 12,-70 7,-26 19,-53 30,-75 11,-22 21,-39 35,-57 13,-18 30,-37 46,-51 15,-14 30,-23 46,-32 16,-8 33,-17 53,-22 19,-6 40,-8 58,-9 19,-1 35,0 52,3 17,3 35,8 52,14z"/>
   <ellipse class="fil1" cx="623" cy="884" rx="52" ry="44"/>
   <ellipse class="fil2" cx="433" cy="814" rx="52" ry="44"/>
   <ellipse class="fil3" cx="362" cy="667" rx="52" ry="44"/>
   <ellipse class="fil4" cx="385" cy="501" rx="52" ry="44"/>
   <ellipse class="fil5" cx="531" cy="420" rx="52" ry="44"/>
   <g>
    <path class="fil6" d="M579 620c5,-9 14,-19 25,-26 11,-8 23,-13 33,-15 10,-2 19,-1 27,4 8,5 16,13 24,20 7,8 15,14 18,23 3,8 2,19 0,31 -3,11 -8,23 -13,32 -5,9 -10,16 -18,22 -7,7 -17,13 -30,20 -12,7 -27,15 -46,19 -18,5 -39,6 -55,6 -15,0 -24,-1 -29,-3 -5,-2 -6,-6 -5,-10 1,-4 4,-10 8,-14 4,-5 8,-9 14,-14 6,-6 12,-13 18,-21 6,-8 11,-16 14,-25 3,-8 5,-16 6,-24 2,-8 3,-16 9,-25z"/>
    <polygon class="fil7" points="819,185 640,537 739,587 882,218 "/>
    <polygon class="fil8" points="825,189 647,541 676,556 849,202 "/>
    <polygon class="fil9" points="819,184 806,211 836,226 849,200 "/>
    <polygon class="fil10" points="849,200 836,227 871,244 883,217 "/>
    <polygon class="fil11" points="641,536 740,586 701,618 637,583 "/>
    <polygon class="fil12" points="657,595 683,558 650,541 638,585 "/>
    <path class="fil13" d="M655 629c-1,11 5,24 8,35 2,12 0,22 -5,29 -6,8 -15,12 -29,17 -14,5 -31,10 -51,16 -19,6 -39,14 -60,21 1,2 3,3 5,4 5,2 14,3 28,3 15,0 35,-1 53,-5 17,-5 32,-12 44,-19 12,-7 22,-12 29,-19 7,-6 12,-12 17,-21 5,-9 9,-20 12,-31 2,-11 3,-22 0,-30 -1,-3 -3,-5 -4,-8l-1 1 -30 -17c-8,7 -15,14 -16,24z"/>
    <path class="fil14" d="M641 590c9,1 15,8 13,16 -2,9 -11,19 -15,29 -4,9 -3,17 -3,25 0,7 -1,14 -7,19 -6,5 -18,7 -20,12 -3,5 4,12 -4,17 -8,5 -30,6 -41,5 -10,-1 -10,-5 -8,-13 2,-8 5,-20 10,-31 4,-11 9,-21 17,-33 7,-12 17,-26 27,-35 11,-9 23,-13 31,-11z"/>
    <path class="fil2" d="M514 742c-1,4 0,7 5,9 5,2 13,3 28,3 8,0 19,0 30,-2 -4,-4 -7,-8 -9,-10 -2,-2 -4,-3 -4,-7 -1,-4 -1,-12 -5,-16 -4,-5 -12,-6 -20,-8 -1,2 -3,3 -4,4 -5,5 -10,9 -13,13 -4,4 -7,10 -8,14z"/>
   </g>
  </g>
 </g>
</svg>
