<?xml version="1.0" encoding="UTF-8"?>
<!DOCTYPE svg PUBLIC "-//W3C//DTD SVG 1.1//EN" "http://www.w3.org/Graphics/SVG/1.1/DTD/svg11.dtd">
<!-- Creator: CorelDRAW X7 -->
<svg xmlns="http://www.w3.org/2000/svg" xml:space="preserve" width="12mm" height="12mm" version="1.1" style="shape-rendering:geometricPrecision; text-rendering:geometricPrecision; image-rendering:optimizeQuality; fill-rule:evenodd; clip-rule:evenodd"
viewBox="0 0 1200 1200"
 xmlns:xlink="http://www.w3.org/1999/xlink">
 <defs>
  <style type="text/css">
   <![CDATA[
    .str0 {stroke:#206F8A;stroke-width:25}
    .fil0 {fill:none}
    .fil1 {fill:#33CC66}
    .fil2 {fill:#33CC66}
    .fil3 {fill:#38A0C4}
   ]]>
  </style>
 </defs>
 <g id="Layer_x0020_1">
  <metadata id="CorelCorpID_0Corel-Layer"/>
  <g id="_2643479875792">
   <circle class="fil0 str0" cx="604" cy="607" r="394"/>
   <path class="fil1" d="M502 797c2,18 -15,44 -14,62 1,18 19,28 25,48 6,21 0,52 3,69 4,17 16,19 33,13 16,-7 35,-22 46,-42 10,-20 12,-43 31,-63 20,-21 57,-37 82,-63 24,-26 35,-61 21,-77 -15,-16 -55,-13 -73,-22 -17,-10 -12,-32 -17,-50 -4,-17 -20,-30 -54,-33 -34,-2 -87,5 -111,27 -24,22 -20,60 -8,83 13,23 34,31 36,48z"/>
   <path class="fil2" d="M300 359c4,31 8,62 14,86 6,24 15,41 24,62 10,21 21,46 37,60 15,15 34,19 52,29 17,10 32,27 47,43 -12,-27 -25,-55 -29,-76 -5,-22 -2,-37 -12,-45 -9,-8 -32,-10 -43,-10 -11,-1 -11,-1 -9,-14 2,-12 6,-37 20,-44 14,-6 38,7 52,7 15,1 20,-10 32,-25 11,-16 27,-35 45,-46 17,-11 35,-14 53,-18 18,-3 36,-7 39,-13 3,-5 -10,-12 -10,-21 0,-10 13,-21 25,-29 12,-8 23,-14 16,-17 -7,-4 -32,-5 -39,-17 -7,-12 4,-35 16,-58 -8,0 -16,0 -23,0 -124,0 -235,57 -307,146z"/>
   <path class="fil1" d="M223 669c17,108 78,201 163,261 1,-28 1,-55 -11,-77 -13,-21 -40,-35 -56,-63 -16,-28 -23,-69 -37,-91 -14,-23 -36,-26 -59,-30z"/>
   <path class="fil1" d="M853 667c-7,14 4,40 2,57 -2,16 -17,23 -16,30 0,7 17,14 24,25 7,11 4,27 -15,39 -18,13 -53,23 -68,45 -14,22 -8,56 -2,90 126,-65 212,-197 212,-349 0,-104 -41,-199 -107,-269 4,33 7,65 1,95 -6,30 -21,56 -26,80 -5,25 1,47 11,70 9,23 23,46 18,59 -5,12 -28,14 -34,28z"/>
   <path class="fil3" d="M445 563c4,21 17,49 29,76 -15,-16 -30,-33 -47,-43 -18,-10 -37,-14 -52,-29 -16,-14 -27,-39 -37,-60 -9,-21 -18,-38 -24,-62 -6,-24 -10,-55 -14,-86 -55,68 -87,154 -87,248 0,21 1,41 4,61 23,3 45,7 59,29 14,23 20,64 37,92 16,27 43,42 55,63 13,21 12,49 12,77 64,45 142,72 227,72 65,0 128,-16 182,-45 -6,-34 -12,-69 2,-91 15,-22 50,-32 68,-44 19,-13 22,-28 15,-39 -7,-11 -24,-18 -24,-25 -1,-7 14,-14 16,-31 2,-16 -9,-43 -3,-57 7,-14 30,-15 35,-27 5,-13 -9,-37 -19,-60 -9,-22 -15,-45 -10,-69 5,-24 20,-51 26,-80 6,-30 3,-63 -1,-95 -67,-72 -160,-119 -264,-125 -12,23 -23,46 -16,58 7,12 32,13 39,17 7,3 -4,9 -16,17 -12,8 -25,19 -25,29 0,9 13,16 10,21 -3,6 -21,10 -39,13 -18,4 -36,7 -53,18 -18,11 -34,30 -45,46 -12,15 -17,26 -32,25 -14,0 -38,-13 -52,-7 -14,7 -18,32 -20,44 -2,13 -2,13 9,14 11,0 34,2 43,10 10,8 7,23 12,45zm140 74c34,3 50,16 55,33 4,17 -1,40 16,49 18,10 58,7 73,23 14,16 3,51 -21,77 -25,26 -62,42 -82,62 -19,21 -21,44 -31,64 -10,20 -30,35 -46,42 -16,6 -29,4 -33,-13 -3,-17 3,-48 -3,-69 -6,-20 -24,-30 -25,-48 -1,-18 16,-44 14,-62 -2,-17 -23,-26 -36,-48 -12,-23 -16,-61 8,-83 24,-22 77,-29 111,-27z"/>
  </g>
 </g>
</svg>
