<?xml version="1.0" encoding="UTF-8"?>
<!DOCTYPE svg PUBLIC "-//W3C//DTD SVG 1.1//EN" "http://www.w3.org/Graphics/SVG/1.1/DTD/svg11.dtd">
<!-- Creator: CorelDRAW X7 -->
<svg xmlns="http://www.w3.org/2000/svg" xml:space="preserve" width="12mm" height="12mm" version="1.1" style="shape-rendering:geometricPrecision; text-rendering:geometricPrecision; image-rendering:optimizeQuality; fill-rule:evenodd; clip-rule:evenodd"
viewBox="0 0 1200 1200"
 xmlns:xlink="http://www.w3.org/1999/xlink">
 <defs>
  <style type="text/css">
   <![CDATA[
    .str0 {stroke:black;stroke-width:10}
    .str1 {stroke:#C9C7C7;stroke-width:10}
    .fil1 {fill:none}
    .fil2 {fill:#2196F3}
    .fil3 {fill:#4D1F1F}
    .fil0 {fill:#EBE8E8}
    .fil4 {fill:#EBE8E8}
   ]]>
  </style>
 </defs>
 <g id="Layer_x0020_1">
  <metadata id="CorelCorpID_0Corel-Layer"/>
  <path class="fil0 str0" d="M192 647c108,118 260,185 419,185 160,0 312,-67 420,-185 -86,-151 -246,-244 -420,-244 -173,0 -334,93 -419,244z"/>
  <path class="fil1 str0" d="M435 437c-101,148 -91,274 31,376"/>
  <path class="fil1 str0" d="M798 441c81,120 81,241 0,362"/>
  <path class="fil2" d="M608 832c64,0 126,-11 185,-32 78,-118 77,-236 -2,-354 -57,-24 -119,-37 -183,-37 -61,0 -120,11 -174,33 -99,146 -89,270 31,371 46,13 94,19 143,19z"/>
  <ellipse class="fil3 str1" cx="609" cy="620" rx="150" ry="138"/>
  <ellipse class="fil4" cx="545" cy="547" rx="78" ry="72"/>
 </g>
</svg>
